{"glyphs":{"0":{"ha":694,"x_min":69,"x_max":625,"o":"m 347 -11 q 272 -4 310 -11 q 200 21 233 3 q 140 67 167 39 q 98 130 114 96 q 76 202 82 164 q 69 278 69 240 l 69 743 q 76 819 69 781 q 98 891 82 857 q 140 953 114 925 q 200 1000 167 982 q 272 1025 233 1018 q 347 1032 310 1032 q 423 1025 385 1032 q 494 1000 461 1018 q 554 953 528 982 q 597 891 581 925 q 619 819 613 857 q 625 743 625 781 l 625 278 q 619 202 625 240 q 597 130 613 164 q 554 67 581 96 q 494 21 528 39 q 423 -4 461 3 q 347 -11 385 -11 m 242 500 l 453 668 l 453 743 q 449 793 453 768 q 431 840 444 818 q 395 874 418 861 q 347 886 372 886 q 299 874 322 886 q 263 840 276 861 q 246 793 250 818 q 242 743 242 768 l 242 500 m 347 135 q 395 147 372 135 q 431 181 418 160 q 449 228 444 203 q 453 278 453 253 l 453 521 l 242 353 l 242 278 q 246 228 242 253 q 263 181 250 203 q 299 147 276 160 q 347 135 322 135 z "},"1":{"ha":694,"x_min":72,"x_max":475,"o":"m 303 0 l 303 853 l 164 721 l 72 803 l 303 1021 l 475 1021 l 475 0 l 303 0 z "},"2":{"ha":694,"x_min":78,"x_max":619,"o":"m 81 0 l 81 1 q 81 73 81 38 q 87 144 82 108 q 101 214 92 179 q 124 282 110 249 q 158 346 139 315 q 199 404 176 376 q 248 456 222 432 q 302 503 274 481 q 358 548 331 525 q 407 600 386 571 q 438 664 428 629 q 447 735 447 699 q 446 769 447 751 q 440 802 444 786 q 428 833 436 818 q 409 861 421 849 q 381 880 397 874 q 349 886 365 886 q 306 875 326 886 q 272 845 285 864 q 255 804 260 826 q 250 758 250 782 l 250 754 l 78 754 l 78 764 q 85 835 78 800 q 110 903 93 871 q 152 960 126 935 q 210 1003 178 986 q 277 1026 242 1019 q 349 1032 313 1032 q 424 1024 386 1032 q 495 997 463 1017 q 553 949 528 978 q 593 884 578 919 q 614 810 608 849 q 619 735 619 772 q 609 647 619 690 q 576 565 599 604 q 523 494 554 526 q 459 433 492 463 q 394 373 426 404 q 335 306 361 342 q 291 230 310 271 q 264 146 272 189 l 614 146 l 614 0 l 81 0 z "},"3":{"ha":694,"x_min":67,"x_max":636,"o":"m 351 -11 q 277 -5 314 -11 q 208 17 240 1 q 147 59 175 33 q 101 117 119 85 q 75 185 83 149 q 67 258 67 222 l 67 267 l 239 267 l 239 263 q 245 215 239 239 q 267 173 251 192 q 305 144 282 154 q 351 135 328 135 q 401 147 378 135 q 439 181 425 160 q 458 228 453 203 q 464 281 464 254 q 460 326 464 303 q 446 369 456 349 q 420 408 436 390 q 383 435 404 425 q 340 447 363 444 q 294 450 317 450 l 294 596 q 335 599 314 596 q 374 610 356 601 q 406 635 392 619 q 428 671 419 651 q 439 710 436 690 q 442 751 442 731 q 438 797 442 775 q 424 840 435 819 q 394 873 414 860 q 351 886 374 886 q 310 874 329 886 q 280 844 290 863 q 265 803 269 825 q 261 760 261 781 l 261 754 l 89 754 l 89 765 q 97 835 89 800 q 119 901 104 869 q 159 959 135 933 q 215 1001 183 985 q 281 1025 246 1018 q 351 1032 317 1032 q 423 1025 388 1032 q 490 1000 458 1018 q 545 955 521 982 q 585 896 569 928 q 607 828 600 864 q 614 757 614 793 q 606 688 614 722 q 583 624 599 654 q 544 568 568 593 q 490 525 519 543 q 552 482 524 508 q 599 422 581 456 q 627 351 618 389 q 636 275 636 314 q 628 200 636 238 q 603 128 619 163 q 559 67 586 94 q 499 21 532 39 q 427 -4 465 3 q 351 -11 389 -11 z "},"4":{"ha":694,"x_min":69,"x_max":614,"o":"m 374 0 l 374 251 l 69 251 l 69 397 l 364 1021 l 526 1021 l 233 397 l 374 397 l 374 593 l 544 593 l 544 397 l 614 397 l 614 251 l 544 251 l 544 0 l 374 0 z "},"5":{"ha":694,"x_min":78,"x_max":625,"o":"m 351 -11 q 281 -5 315 -11 q 215 17 246 1 q 158 58 183 33 q 115 113 132 82 q 90 178 99 144 q 78 247 81 213 l 251 247 q 259 206 253 226 q 278 169 265 186 q 310 144 290 153 q 351 135 329 135 q 389 145 371 135 q 418 172 407 156 q 436 208 429 189 q 447 247 443 226 q 451 287 450 267 q 453 326 453 307 q 451 367 453 347 q 447 406 450 386 q 437 444 443 425 q 420 481 431 464 q 392 508 410 497 q 356 518 375 518 q 321 514 338 518 q 291 498 304 510 q 271 469 278 486 q 264 435 264 453 l 92 435 l 92 1021 l 588 1021 l 588 875 l 264 875 l 264 654 q 309 662 286 660 q 356 664 332 664 q 436 653 396 664 q 509 619 476 643 q 565 560 542 594 q 602 488 589 526 q 620 408 615 449 q 625 326 625 368 q 620 244 625 286 q 601 165 615 203 q 564 92 588 126 q 506 33 540 57 q 432 -1 472 10 q 351 -11 392 -11 z "},"6":{"ha":694,"x_min":69,"x_max":625,"o":"m 347 -11 q 267 -1 307 -11 q 192 31 226 8 q 134 86 158 53 q 95 158 110 119 q 75 236 81 196 q 69 317 69 276 q 78 433 69 375 q 103 547 88 490 q 142 656 119 603 q 190 761 165 710 l 314 1021 l 500 1021 l 346 699 q 322 647 335 674 q 300 594 310 621 q 356 633 324 619 q 422 646 388 646 q 492 631 458 646 q 550 590 526 617 q 588 529 574 563 q 611 460 603 496 q 622 389 619 425 q 625 317 625 353 q 619 236 625 276 q 599 158 614 196 q 560 86 585 119 q 502 31 536 53 q 428 -1 468 8 q 347 -11 388 -11 m 347 135 q 385 144 367 135 q 415 168 403 153 q 435 201 428 183 q 446 239 442 219 q 451 278 450 258 q 453 317 453 297 q 451 356 453 336 q 446 395 450 376 q 435 433 442 414 q 415 467 428 451 q 385 491 403 482 q 347 500 367 500 q 313 493 329 500 q 284 473 296 486 q 265 444 272 460 q 252 410 257 428 q 245 376 247 393 q 242 340 243 358 l 242 317 q 243 278 242 297 q 249 239 244 258 q 260 201 253 219 q 279 168 267 183 q 310 144 292 153 q 347 135 328 135 z "},"7":{"ha":694,"x_min":81,"x_max":614,"o":"m 182 0 l 436 875 l 81 875 l 81 1021 l 614 1021 l 614 875 l 358 0 l 182 0 z "},"8":{"ha":694,"x_min":69,"x_max":625,"o":"m 347 -11 q 275 -5 311 -11 q 207 17 239 1 q 148 58 175 32 q 103 115 121 83 q 78 181 86 146 q 69 253 69 217 q 81 332 69 293 q 113 406 92 371 q 161 470 133 440 q 219 525 189 500 q 169 578 193 550 q 127 638 144 606 q 101 706 110 671 q 92 778 92 742 q 99 846 92 813 q 122 909 107 879 q 162 964 138 939 q 216 1004 186 989 q 280 1026 246 1019 q 347 1032 314 1032 q 415 1026 381 1032 q 478 1004 449 1019 q 533 964 508 989 q 572 909 557 939 q 595 846 588 879 q 603 778 603 813 q 594 706 603 742 q 567 638 585 671 q 526 578 550 606 q 475 525 501 550 q 533 470 506 500 q 582 406 561 440 q 614 332 603 371 q 625 253 625 293 q 617 181 625 217 q 591 115 608 146 q 547 58 574 83 q 488 17 519 32 q 419 -5 456 1 q 347 -11 383 -11 m 347 621 q 381 653 365 636 q 407 690 396 669 q 424 732 418 710 q 431 776 431 754 q 426 815 431 796 q 412 851 422 835 q 384 876 401 867 q 347 886 367 886 q 310 876 328 886 q 283 851 293 867 q 268 815 272 835 q 264 776 264 796 q 270 732 264 754 q 288 690 276 710 q 314 653 299 669 q 347 621 329 636 m 347 135 q 391 144 369 135 q 426 170 413 153 q 447 210 440 188 q 453 254 453 232 q 444 306 453 281 q 422 353 436 332 q 388 394 407 375 q 347 428 368 413 q 307 394 326 413 q 273 353 288 375 q 250 306 258 332 q 242 254 242 281 q 248 210 242 232 q 268 170 254 188 q 303 144 282 153 q 347 135 325 135 z "},"9":{"ha":694,"x_min":69,"x_max":625,"o":"m 194 0 l 349 322 q 372 374 360 347 q 394 426 385 400 q 339 388 371 401 q 272 375 307 375 q 202 390 236 375 q 144 431 168 404 q 106 492 121 458 q 83 560 92 525 q 72 632 75 596 q 69 704 69 668 q 75 785 69 744 q 95 863 81 825 q 134 935 110 901 q 192 990 158 968 q 267 1022 226 1013 q 347 1032 307 1032 q 428 1022 388 1032 q 502 990 468 1013 q 560 935 536 968 q 599 863 585 901 q 619 785 614 825 q 625 704 625 744 q 616 588 625 646 q 591 474 607 531 q 552 365 575 418 q 504 260 529 311 l 381 0 l 194 0 m 347 521 q 382 528 365 521 q 410 548 399 535 q 430 577 422 561 q 442 610 438 593 q 449 645 447 628 q 453 681 451 663 l 453 704 q 451 743 453 724 q 446 782 450 763 q 435 819 442 801 q 415 853 428 838 q 385 877 403 868 q 347 886 367 886 q 310 877 328 886 q 279 853 292 868 q 260 819 267 838 q 249 782 253 801 q 243 743 244 763 q 242 704 242 724 q 243 665 242 685 q 249 626 244 644 q 260 588 253 607 q 279 554 267 569 q 310 530 292 539 q 347 521 328 521 z "},"\r":{"ha":0,"x_min":0,"x_max":0,"o":""}," ":{"ha":694,"x_min":0,"x_max":0,"o":""},"!":{"ha":694,"x_min":218,"x_max":476,"o":"m 261 408 l 261 1021 l 433 1021 l 433 408 l 261 408 m 347 -11 q 296 -3 321 -11 q 252 23 271 4 q 226 67 233 42 q 218 118 218 92 q 226 169 218 144 q 252 213 233 194 q 296 240 271 232 q 347 247 321 247 q 399 240 374 247 q 442 213 424 232 q 469 169 461 194 q 476 118 476 144 q 469 67 476 92 q 442 23 461 42 q 399 -3 424 4 q 347 -11 374 -11 z "},"\"":{"ha":694,"x_min":114,"x_max":581,"o":"m 126 614 q 117 842 119 728 q 114 1072 114 957 l 303 1072 q 300 842 303 957 q 290 614 297 728 l 126 614 m 404 614 q 394 842 397 728 q 392 1072 392 957 l 581 1072 q 578 842 581 957 q 568 614 575 728 l 404 614 z "},"#":{"ha":694,"x_min":17,"x_max":678,"o":"m 124 25 l 124 243 l 17 243 l 17 389 l 124 389 l 124 632 l 17 632 l 17 778 l 124 778 l 124 996 l 275 996 l 275 778 l 419 778 l 419 996 l 571 996 l 571 778 l 678 778 l 678 632 l 571 632 l 571 389 l 678 389 l 678 243 l 571 243 l 571 25 l 419 25 l 419 243 l 275 243 l 275 25 l 124 25 m 419 389 l 419 632 l 275 632 l 275 389 l 419 389 z "},"$":{"ha":694,"x_min":67,"x_max":625,"o":"m 275 -149 l 275 46 q 189 76 229 54 q 121 135 149 99 q 80 215 93 171 q 67 304 67 258 l 67 318 l 239 318 l 239 311 q 242 277 239 294 q 253 244 246 260 q 272 215 260 228 q 300 194 283 203 l 300 447 q 216 494 256 467 q 146 560 176 522 q 98 643 115 597 q 81 738 81 689 q 93 820 81 779 q 132 893 106 861 q 196 946 158 925 q 275 975 233 967 l 275 1171 l 419 1171 l 419 975 q 502 943 464 967 q 567 883 540 919 q 605 804 593 847 q 617 717 617 761 l 617 703 l 444 703 l 444 710 q 442 742 444 726 q 433 773 439 758 q 418 801 428 788 q 394 824 408 815 l 394 579 q 482 531 440 558 q 556 466 524 504 q 606 381 588 428 q 625 285 625 333 q 611 200 625 242 q 569 126 597 158 q 501 73 540 93 q 419 46 463 53 l 419 -149 l 275 -149 m 300 635 l 300 825 q 265 788 276 813 q 253 736 253 763 q 265 681 253 707 q 300 635 278 654 m 394 194 q 419 209 408 200 q 438 231 431 218 q 449 257 446 243 q 453 286 453 271 q 437 347 453 318 q 394 396 421 376 l 394 194 z "},"%":{"ha":694,"x_min":29,"x_max":665,"o":"m 193 500 q 129 508 161 500 q 74 539 97 517 q 40 592 50 561 q 29 657 29 624 l 29 875 q 40 938 29 907 q 74 992 50 969 q 129 1023 97 1014 q 193 1032 161 1032 q 258 1023 226 1032 q 314 992 290 1014 q 348 938 338 969 q 358 875 358 907 l 358 657 q 348 592 358 624 q 314 539 338 561 q 258 508 290 517 q 193 500 226 500 m 400 597 l 493 1021 l 654 1021 l 533 597 l 400 597 m 194 613 q 208 616 201 613 q 219 626 215 619 q 224 641 222 633 q 225 657 225 649 l 225 875 q 224 890 225 882 q 219 904 222 897 q 208 915 215 911 q 194 919 201 919 q 179 915 186 919 q 169 904 172 911 q 164 890 165 897 q 163 875 163 882 l 163 657 q 164 641 163 649 q 169 626 165 633 q 179 616 172 619 q 194 613 186 613 m 500 -11 q 436 -2 468 -11 q 381 29 404 7 q 347 83 357 51 q 336 146 336 114 l 336 364 q 347 428 336 397 q 381 482 357 460 q 436 513 404 504 q 500 521 468 521 q 565 513 533 521 q 621 482 597 504 q 655 428 644 460 q 665 364 665 397 l 665 146 q 655 83 665 114 q 621 29 644 51 q 565 -2 597 7 q 500 -11 533 -11 m 40 0 l 161 424 l 294 424 l 201 0 l 40 0 m 501 101 q 515 106 508 101 q 526 117 522 110 q 531 131 529 124 q 532 146 532 139 l 532 364 q 531 380 532 372 q 526 394 529 388 q 515 405 522 401 q 501 408 508 408 q 486 405 493 408 q 476 394 479 401 q 471 380 472 388 q 469 364 469 372 l 469 146 q 471 131 469 139 q 476 117 472 124 q 486 106 479 110 q 501 101 493 101 z "},"&":{"ha":694,"x_min":69,"x_max":685,"o":"m 308 -11 q 240 -3 274 -11 q 177 25 206 6 q 128 72 149 44 q 94 132 107 100 q 76 198 82 164 q 69 267 69 232 q 78 343 69 306 q 105 415 88 381 q 147 480 122 450 q 201 535 172 510 q 167 594 183 564 q 136 657 150 625 q 115 723 122 689 q 107 792 107 757 q 113 853 107 822 q 132 912 119 883 q 165 964 144 940 q 212 1003 185 988 q 269 1026 239 1019 q 331 1032 300 1032 q 392 1026 361 1032 q 449 1003 422 1019 q 496 963 475 988 q 529 911 517 939 q 548 853 542 883 q 554 792 554 822 q 542 708 554 749 q 508 631 531 667 q 457 564 486 594 q 394 507 428 533 q 400 498 397 503 q 406 489 403 493 l 489 343 l 531 450 l 683 450 l 596 225 q 588 205 592 215 q 579 185 583 194 l 685 0 l 508 0 l 481 49 l 468 72 q 407 15 443 38 q 331 -10 371 -7 l 308 -11 m 318 632 q 349 666 335 649 q 373 703 363 683 q 389 746 383 724 q 394 790 394 768 q 392 826 394 808 q 382 859 389 843 q 361 886 375 875 q 331 897 347 897 q 299 885 313 897 q 278 858 285 874 q 268 824 271 842 q 265 789 265 807 q 281 708 265 747 q 318 632 297 668 m 332 124 q 377 137 356 124 q 413 168 399 150 l 279 403 q 242 339 256 374 q 228 267 228 304 q 233 217 228 242 q 251 172 239 193 q 285 137 263 150 q 332 124 307 124 z "},"'":{"ha":694,"x_min":253,"x_max":442,"o":"m 265 614 q 256 842 258 728 q 253 1072 253 957 l 442 1072 q 439 842 442 957 q 429 614 436 728 l 265 614 z "},"(":{"ha":694,"x_min":142,"x_max":586,"o":"m 500 -224 q 388 -145 440 -190 q 294 -45 336 -100 q 223 72 253 10 q 175 201 193 135 q 149 335 157 267 q 142 472 142 404 q 149 609 142 540 q 175 744 157 678 q 223 872 193 810 q 294 990 253 935 q 388 1090 336 1044 q 500 1168 440 1135 l 586 1042 q 462 935 517 999 q 374 795 407 871 q 327 638 340 719 q 314 472 314 556 q 327 307 314 389 q 374 149 340 225 q 462 10 407 74 q 586 -97 517 -54 l 500 -224 z "},")":{"ha":694,"x_min":108,"x_max":553,"o":"m 194 -224 l 108 -97 q 233 10 178 -54 q 321 149 288 74 q 367 307 354 225 q 381 472 381 389 q 367 638 381 556 q 321 795 354 719 q 233 935 288 871 q 108 1042 178 999 l 194 1168 q 306 1090 254 1135 q 400 990 358 1044 q 472 872 442 935 q 519 744 501 810 q 545 609 538 678 q 553 472 553 540 q 545 335 553 404 q 519 201 538 267 q 472 72 501 135 q 400 -45 442 10 q 306 -145 358 -100 q 194 -224 254 -190 z "},"*":{"ha":694,"x_min":43,"x_max":651,"o":"m 246 563 l 106 649 l 238 810 l 43 863 l 96 1001 l 274 933 l 261 1133 l 433 1133 l 421 933 l 599 1001 l 651 863 l 457 810 l 589 649 l 449 563 l 347 721 l 246 563 z "},"+":{"ha":694,"x_min":81,"x_max":614,"o":"m 271 194 l 271 408 l 81 408 l 81 536 l 271 536 l 271 750 l 424 750 l 424 536 l 614 536 l 614 408 l 424 408 l 424 194 l 271 194 z "},",":{"ha":694,"x_min":175,"x_max":489,"o":"m 282 -299 l 175 -204 q 264 -115 222 -162 q 333 -11 306 -67 q 281 1 307 -10 q 238 31 256 11 q 213 78 219 51 q 206 131 206 104 q 214 188 206 160 q 242 236 222 215 q 290 265 263 257 q 347 274 318 274 q 405 265 376 274 q 453 235 433 256 q 481 185 474 214 q 489 128 489 157 q 472 8 489 67 q 427 -105 456 -51 q 361 -207 399 -158 q 282 -299 324 -256 z "},"-":{"ha":694,"x_min":81,"x_max":614,"o":"m 614 400 l 81 400 l 81 544 l 614 544 l 614 400 z "},".":{"ha":694,"x_min":206,"x_max":489,"o":"m 347 -11 q 290 -3 318 -11 q 242 26 263 6 q 214 74 222 46 q 206 131 206 103 q 214 188 206 160 q 242 236 222 215 q 290 265 263 257 q 347 274 318 274 q 404 265 376 274 q 452 236 432 257 q 481 188 472 215 q 489 131 489 160 q 481 74 489 103 q 452 26 472 46 q 404 -3 432 6 q 347 -11 376 -11 z "},"/":{"ha":694,"x_min":65,"x_max":629,"o":"m 240 -199 l 65 -199 l 454 1143 l 629 1143 l 240 -199 z "},":":{"ha":694,"x_min":206,"x_max":489,"o":"m 347 -11 q 290 -3 318 -11 q 242 26 263 6 q 214 74 222 46 q 206 131 206 103 q 214 188 206 160 q 242 236 222 215 q 290 265 263 257 q 347 274 318 274 q 404 265 376 274 q 452 236 432 257 q 481 188 472 215 q 489 131 489 160 q 481 74 489 103 q 452 26 472 46 q 404 -3 432 6 q 347 -11 376 -11 m 347 449 q 290 457 318 449 q 242 486 263 465 q 214 535 222 507 q 206 592 206 563 q 214 648 206 619 q 242 697 222 676 q 290 725 263 717 q 347 733 318 733 q 404 725 376 733 q 452 697 432 717 q 481 648 472 676 q 489 592 489 619 q 481 535 489 563 q 452 486 472 507 q 404 457 432 465 q 347 449 376 449 z "},";":{"ha":694,"x_min":175,"x_max":489,"o":"m 282 -299 l 175 -204 q 264 -115 222 -162 q 333 -11 306 -67 q 281 1 307 -10 q 238 31 256 11 q 213 78 219 51 q 206 131 206 104 q 214 188 206 160 q 242 236 222 215 q 290 265 263 257 q 347 274 318 274 q 405 265 376 274 q 453 235 433 256 q 481 185 474 214 q 489 128 489 157 q 472 8 489 67 q 427 -105 456 -51 q 361 -207 399 -158 q 282 -299 324 -256 m 347 449 q 290 457 318 449 q 242 486 263 465 q 214 535 222 507 q 206 592 206 563 q 214 648 206 619 q 242 697 222 676 q 290 725 263 717 q 347 733 318 733 q 404 725 376 733 q 452 697 432 717 q 481 648 472 676 q 489 592 489 619 q 481 535 489 563 q 452 486 472 507 q 404 457 432 465 q 347 449 376 449 z "},"<":{"ha":694,"x_min":81,"x_max":654,"o":"m 574 89 l 81 397 l 81 547 l 574 856 l 654 746 l 204 472 l 654 199 l 574 89 z "},"=":{"ha":694,"x_min":81,"x_max":614,"o":"m 81 536 l 81 665 l 614 665 l 614 536 l 81 536 m 81 279 l 81 408 l 614 408 l 614 279 l 81 279 z "},">":{"ha":694,"x_min":40,"x_max":614,"o":"m 121 89 l 81 144 l 40 199 l 490 472 l 40 746 l 121 856 l 614 547 l 614 397 l 121 89 z "},"?":{"ha":694,"x_min":78,"x_max":614,"o":"m 261 354 q 263 413 261 383 q 273 470 265 442 q 294 525 281 499 q 325 575 307 551 q 363 620 343 599 q 401 665 383 642 q 431 715 419 688 q 442 772 442 743 q 436 814 442 793 q 419 851 431 835 q 387 877 407 868 q 346 886 367 886 q 303 876 324 886 q 272 846 283 865 q 255 805 260 826 q 250 761 250 783 l 250 754 l 78 754 l 78 768 q 85 838 78 803 q 110 905 93 874 q 151 962 126 936 q 208 1003 176 988 q 275 1026 240 1019 q 346 1032 310 1032 q 416 1026 381 1032 q 483 1004 451 1019 q 540 964 514 989 q 582 908 565 939 q 606 842 599 876 q 614 772 614 808 q 608 715 614 743 q 592 658 603 686 q 567 606 582 631 q 533 557 551 581 q 495 512 515 533 q 460 466 475 490 q 439 413 444 442 q 433 354 433 383 l 261 354 m 347 -11 q 296 -3 321 -11 q 252 23 271 4 q 226 67 233 42 q 218 118 218 92 q 226 169 218 144 q 252 213 233 194 q 296 240 271 232 q 347 247 321 247 q 399 240 374 247 q 442 213 424 232 q 469 169 461 194 q 476 118 476 144 q 469 67 476 92 q 442 23 461 42 q 399 -3 424 4 q 347 -11 374 -11 z "},"@":{"ha":694,"x_min":81,"x_max":614,"o":"m 347 -112 q 271 -104 308 -112 q 201 -76 233 -96 q 144 -25 168 -56 q 106 41 119 6 q 86 115 92 76 q 81 192 81 153 l 81 753 q 86 830 81 792 q 106 903 92 868 q 144 969 119 939 q 201 1020 168 1000 q 271 1049 233 1040 q 347 1057 308 1057 q 421 1049 385 1057 q 489 1023 457 1042 q 545 976 521 1004 q 585 913 569 947 q 607 843 600 879 q 614 769 614 807 l 614 329 q 611 278 614 303 q 600 228 608 253 q 578 183 592 204 q 544 146 564 161 q 499 124 524 131 q 447 117 474 117 q 397 124 422 117 q 352 146 372 131 q 318 183 332 161 q 296 228 304 204 q 285 278 288 253 q 282 329 282 303 l 282 558 q 285 610 282 585 q 297 660 288 636 q 321 706 306 685 q 357 742 336 728 q 403 763 378 757 q 454 769 429 769 l 481 769 q 471 824 479 797 q 444 871 463 850 q 401 901 426 892 q 347 911 375 911 q 290 899 318 911 q 244 864 263 888 q 220 811 226 840 q 214 753 214 782 l 214 192 q 220 133 214 163 q 244 81 226 104 q 290 45 263 57 q 347 33 318 33 l 542 33 l 542 -112 l 347 -112 m 447 229 q 463 238 457 229 q 472 255 469 246 q 476 273 475 264 q 479 291 478 282 q 481 310 481 300 q 481 329 481 319 l 481 657 l 454 657 q 438 650 444 657 q 426 634 431 643 q 420 616 422 625 q 417 597 418 607 q 415 578 415 588 q 415 558 415 568 l 415 329 q 415 310 415 319 q 416 291 415 300 q 419 273 417 282 q 424 255 421 264 q 433 238 426 246 q 447 229 439 229 z "},"A":{"ha":694,"x_min":49,"x_max":646,"o":"m 49 0 l 249 1021 l 446 1021 l 646 0 l 469 0 l 436 215 l 258 215 l 225 0 l 49 0 m 414 361 l 364 681 q 356 734 360 707 q 347 788 351 761 q 339 734 343 761 q 331 681 335 707 l 281 361 l 414 361 z "},"B":{"ha":694,"x_min":81,"x_max":636,"o":"m 326 0 l 81 0 l 81 1021 l 326 1021 q 400 1014 364 1021 q 469 990 436 1007 q 528 945 501 972 q 570 885 554 918 q 592 815 586 851 q 599 742 599 779 q 594 681 599 711 q 576 622 589 650 q 543 572 564 594 q 496 532 522 549 q 557 492 529 517 q 603 437 585 468 q 629 369 622 406 q 636 297 636 333 q 628 215 636 256 q 601 140 621 175 q 551 76 582 104 q 484 31 521 47 q 407 7 447 14 q 326 0 367 0 m 253 601 l 326 601 q 372 613 350 601 q 406 646 393 625 q 422 690 418 667 q 426 739 426 714 q 422 786 426 763 q 406 831 418 810 q 372 863 393 851 q 326 875 350 875 l 253 875 l 253 601 m 253 146 l 326 146 q 384 156 356 146 q 431 190 413 167 q 457 242 450 213 q 464 300 464 271 q 457 358 464 329 q 431 410 450 388 q 384 444 413 433 q 326 456 356 456 l 253 456 l 253 146 z "},"C":{"ha":694,"x_min":69,"x_max":617,"o":"m 343 -11 q 266 -3 304 -11 q 194 25 228 6 q 136 75 161 44 q 96 141 111 106 q 75 215 81 176 q 69 292 69 253 l 69 729 q 75 806 69 768 q 96 880 81 844 q 136 946 111 915 q 194 996 161 976 q 266 1024 228 1015 q 343 1032 304 1032 q 415 1026 379 1032 q 483 1003 451 1019 q 542 960 515 986 q 585 902 568 935 q 609 834 601 869 q 617 763 617 799 l 617 754 l 444 754 l 444 758 q 439 803 444 781 q 421 846 433 826 q 388 876 408 865 q 343 886 367 886 q 308 880 325 886 q 280 860 292 874 q 260 831 268 847 q 249 799 253 815 q 243 764 244 782 q 242 729 242 746 l 242 292 q 243 257 242 275 q 249 222 244 239 q 260 190 253 206 q 280 160 268 174 q 308 141 292 147 q 343 135 325 135 q 388 145 367 135 q 421 175 408 156 q 439 217 433 194 q 444 263 444 240 l 444 267 l 617 267 l 617 258 q 609 187 617 222 q 585 119 601 151 q 542 60 568 86 q 483 18 515 35 q 415 -5 451 1 q 343 -11 379 -11 z "},"D":{"ha":694,"x_min":81,"x_max":625,"o":"m 81 0 l 81 1021 l 293 1021 q 380 1014 336 1021 q 463 988 424 1007 q 535 939 503 969 q 588 869 568 908 q 617 787 608 831 q 625 700 625 743 l 625 321 q 617 234 625 278 q 588 151 608 190 q 535 82 568 113 q 463 33 503 51 q 380 7 424 14 q 293 0 336 0 l 81 0 m 253 146 l 293 146 q 338 151 315 146 q 379 167 360 156 q 413 195 399 178 q 437 233 428 213 q 449 276 446 254 q 453 321 453 299 l 453 700 q 449 744 453 722 q 437 788 446 767 q 413 826 428 808 q 379 854 399 843 q 338 870 360 865 q 293 875 315 875 l 253 875 l 253 146 z "},"E":{"ha":694,"x_min":92,"x_max":614,"o":"m 92 0 l 92 1021 l 614 1021 l 614 875 l 264 875 l 264 604 l 533 604 l 533 458 l 264 458 l 264 146 l 614 146 l 614 0 l 92 0 z "},"F":{"ha":694,"x_min":121,"x_max":614,"o":"m 121 0 l 121 1021 l 614 1021 l 614 875 l 293 875 l 293 604 l 533 604 l 533 458 l 293 458 l 293 0 l 121 0 z "},"G":{"ha":694,"x_min":69,"x_max":617,"o":"m 267 -11 q 201 1 233 -11 q 144 38 168 14 q 106 94 121 63 q 83 158 92 125 q 72 224 75 190 q 69 292 69 258 l 69 729 q 75 806 69 768 q 96 880 81 844 q 136 946 111 915 q 194 996 161 976 q 266 1024 228 1015 q 343 1032 304 1032 q 415 1026 379 1032 q 483 1003 451 1019 q 542 960 515 986 q 585 902 568 935 q 609 834 601 869 q 617 763 617 799 l 617 754 l 444 754 l 444 758 q 439 803 444 781 q 421 846 433 826 q 388 876 408 865 q 343 886 367 886 q 308 880 325 886 q 280 860 292 874 q 260 831 268 847 q 249 799 253 815 q 243 764 244 782 q 242 729 242 746 l 242 292 q 243 258 242 275 q 249 223 244 240 q 260 190 253 206 q 280 161 268 174 q 308 142 292 149 q 342 135 324 135 q 376 142 360 135 q 403 161 392 149 q 423 190 415 174 q 435 223 431 206 q 440 258 439 240 q 442 292 442 275 l 442 421 l 347 421 l 347 567 l 614 567 l 614 0 l 453 0 l 453 171 q 431 103 444 136 q 393 43 417 69 q 336 3 369 17 q 267 -11 303 -11 z "},"H":{"ha":694,"x_min":81,"x_max":614,"o":"m 81 0 l 81 1021 l 253 1021 l 253 596 l 442 596 l 442 1021 l 614 1021 l 614 0 l 442 0 l 442 450 l 253 450 l 253 0 l 81 0 z "},"I":{"ha":694,"x_min":104,"x_max":590,"o":"m 104 0 l 104 146 l 261 146 l 261 875 l 104 875 l 104 1021 l 590 1021 l 590 875 l 433 875 l 433 146 l 590 146 l 590 0 l 104 0 z "},"J":{"ha":694,"x_min":57,"x_max":568,"o":"m 313 -11 q 243 -4 278 -11 q 178 20 208 3 q 124 65 147 38 q 86 123 101 92 q 64 189 71 154 q 57 258 57 224 l 57 267 l 229 267 l 229 263 q 233 220 229 242 q 247 180 238 199 q 274 148 256 161 q 313 135 292 135 q 344 143 329 135 q 367 165 358 151 q 382 195 376 179 q 390 227 388 211 q 394 260 393 243 q 396 292 396 276 l 396 875 l 239 875 l 239 1021 l 568 1021 l 568 292 q 563 217 568 254 q 545 145 558 181 q 509 79 532 110 q 455 28 486 49 q 387 -2 424 7 q 313 -11 350 -11 z "},"K":{"ha":694,"x_min":103,"x_max":639,"o":"m 639 0 l 457 0 l 304 388 l 275 333 l 275 0 l 103 0 l 103 1021 l 275 1021 l 275 642 l 454 1021 l 639 1021 l 392 556 l 639 0 z "},"L":{"ha":694,"x_min":121,"x_max":622,"o":"m 121 0 l 121 1021 l 293 1021 l 293 146 l 622 146 l 622 0 l 121 0 z "},"M":{"ha":694,"x_min":54,"x_max":640,"o":"m 54 0 l 54 1021 l 226 1021 l 347 532 l 468 1021 l 640 1021 l 640 0 l 482 0 l 482 204 q 483 338 482 271 q 489 473 485 406 q 499 607 493 540 q 511 742 506 674 l 403 306 l 292 306 l 183 742 q 195 607 189 674 q 206 473 201 540 q 211 338 210 406 q 213 204 213 271 l 213 0 l 54 0 z "},"N":{"ha":694,"x_min":81,"x_max":614,"o":"m 81 0 l 81 1021 l 246 1021 l 460 357 q 446 485 450 421 q 442 613 442 549 l 442 1021 l 614 1021 l 614 0 l 449 0 l 235 664 q 249 536 244 600 q 253 408 253 472 l 253 0 l 81 0 z "},"O":{"ha":694,"x_min":69,"x_max":625,"o":"m 347 -11 q 269 -3 308 -11 q 197 24 231 4 q 138 74 164 44 q 97 140 113 104 q 75 214 81 175 q 69 292 69 253 l 69 729 q 75 807 69 768 q 97 881 81 846 q 138 947 113 917 q 197 997 164 976 q 269 1024 231 1017 q 347 1032 308 1032 q 425 1024 386 1032 q 497 997 464 1017 q 556 947 531 976 q 598 881 582 917 q 619 807 614 846 q 625 729 625 768 l 625 292 q 619 214 625 253 q 598 140 614 175 q 556 74 582 104 q 497 24 531 44 q 425 -3 464 4 q 347 -11 386 -11 m 347 135 q 382 141 365 135 q 412 160 399 147 q 433 188 425 172 q 445 222 440 204 q 451 257 450 239 q 453 292 453 275 l 453 729 q 451 764 453 746 q 445 799 450 782 q 433 833 440 817 q 412 861 425 849 q 382 880 399 874 q 347 886 365 886 q 313 880 329 886 q 283 861 296 874 q 262 833 269 849 q 249 799 254 817 q 243 764 244 782 q 242 729 242 746 l 242 292 q 243 257 242 275 q 249 222 244 239 q 262 188 254 204 q 283 160 269 172 q 313 141 296 147 q 347 135 329 135 z "},"P":{"ha":694,"x_min":101,"x_max":636,"o":"m 101 0 l 101 1021 l 353 1021 q 433 1013 393 1021 q 507 983 472 1004 q 567 931 542 963 q 609 863 593 900 q 631 786 625 826 q 636 706 636 746 q 631 625 636 665 q 609 548 625 585 q 567 480 593 511 q 507 428 542 449 q 433 399 472 407 q 353 390 393 390 l 272 390 l 272 0 l 101 0 m 353 536 q 390 543 372 536 q 422 564 408 550 q 443 595 435 578 q 456 631 451 613 q 463 667 461 649 q 464 706 464 686 q 463 744 464 725 q 456 781 461 763 q 443 817 451 800 q 422 847 435 833 q 390 868 408 861 q 353 875 372 875 l 272 875 l 272 536 l 353 536 z "},"Q":{"ha":694,"x_min":69,"x_max":625,"o":"m 544 -267 q 474 -260 510 -267 q 407 -239 439 -254 q 349 -199 375 -224 q 308 -142 324 -174 q 285 -76 292 -111 q 278 -6 278 -40 q 215 15 246 1 q 160 51 185 29 q 117 102 135 74 q 88 162 99 131 q 74 226 78 193 q 69 292 69 258 l 69 729 q 75 807 69 768 q 97 881 81 846 q 138 947 113 917 q 197 997 164 976 q 269 1024 231 1017 q 347 1032 308 1032 q 425 1024 386 1032 q 497 997 464 1017 q 556 947 531 976 q 598 881 582 917 q 619 807 614 846 q 625 729 625 768 l 625 292 q 617 202 625 247 q 587 117 608 157 q 529 47 565 76 q 450 3 493 17 l 450 0 q 454 -44 450 -22 q 470 -83 458 -65 q 502 -111 482 -101 q 544 -121 522 -121 l 583 -121 l 583 -267 l 544 -267 m 347 135 q 382 141 365 135 q 412 160 399 147 q 433 188 425 172 q 445 222 440 204 q 451 257 450 239 q 453 292 453 275 l 453 729 q 451 764 453 746 q 445 799 450 782 q 433 833 440 817 q 412 861 425 849 q 382 880 399 874 q 347 886 365 886 q 313 880 329 886 q 283 861 296 874 q 262 833 269 849 q 249 799 254 817 q 243 764 244 782 q 242 729 242 746 l 242 292 q 243 257 242 275 q 249 222 244 239 q 262 188 254 204 q 283 160 269 172 q 313 141 296 147 q 347 135 329 135 z "},"R":{"ha":694,"x_min":81,"x_max":647,"o":"m 464 0 l 293 390 l 253 390 l 253 0 l 81 0 l 81 1021 l 353 1021 q 431 1012 393 1021 q 503 982 469 1003 q 560 929 536 961 q 599 860 585 897 q 619 784 614 824 q 625 706 625 744 q 618 617 625 661 q 592 532 611 572 q 540 460 572 492 q 468 411 508 428 l 647 0 l 464 0 m 353 536 q 388 544 371 536 q 417 567 406 553 q 435 598 428 581 q 446 633 442 615 q 451 669 450 651 q 453 706 453 688 q 451 742 453 724 q 446 778 450 761 q 435 813 442 796 q 417 845 428 831 q 388 867 406 860 q 353 875 371 875 l 253 875 l 253 536 l 353 536 z "},"S":{"ha":694,"x_min":67,"x_max":625,"o":"m 346 -11 q 274 -5 310 -11 q 205 17 238 1 q 145 57 172 32 q 101 114 118 82 q 75 181 83 146 q 67 253 67 217 l 67 267 l 239 267 l 239 261 q 244 215 239 238 q 265 173 250 192 q 301 144 279 154 q 346 135 322 135 q 391 144 369 135 q 426 171 413 153 q 447 211 440 189 q 453 257 453 233 q 440 322 453 290 q 403 377 426 353 q 351 418 381 401 q 293 451 322 435 q 236 486 264 467 q 185 528 208 506 q 142 579 161 551 q 108 638 122 607 q 88 701 94 668 q 81 767 81 733 q 88 838 81 803 q 113 904 96 872 q 154 961 129 936 q 211 1003 179 986 q 278 1026 243 1019 q 349 1032 313 1032 q 419 1026 385 1032 q 486 1003 454 1019 q 543 962 518 988 q 585 904 568 936 q 609 838 601 872 q 617 768 617 803 l 617 754 l 444 754 l 444 760 q 440 804 444 782 q 423 845 435 826 q 391 875 411 864 q 349 886 371 886 q 306 876 326 886 q 274 849 286 867 q 258 808 263 831 q 253 765 253 786 q 265 700 253 732 q 301 644 278 668 q 354 603 325 619 q 413 570 383 586 q 469 535 442 554 q 521 493 497 517 q 564 442 544 469 q 597 385 583 415 q 618 321 611 354 q 625 254 625 288 q 617 183 625 218 q 591 115 608 147 q 547 58 574 83 q 487 17 519 32 q 418 -5 454 1 q 346 -11 382 -11 z "},"T":{"ha":694,"x_min":72,"x_max":622,"o":"m 261 0 l 261 875 l 72 875 l 72 1021 l 622 1021 l 622 875 l 433 875 l 433 0 l 261 0 z "},"U":{"ha":694,"x_min":81,"x_max":614,"o":"m 347 -11 q 271 -3 308 -11 q 201 26 233 6 q 144 76 168 46 q 106 142 119 107 q 86 216 92 178 q 81 292 81 254 l 81 1021 l 253 1021 l 253 292 q 254 258 253 275 q 259 224 256 240 q 269 191 263 207 q 288 162 276 175 q 315 142 299 149 q 347 135 331 135 q 380 142 364 135 q 407 162 396 149 q 425 191 418 175 q 435 224 432 207 q 440 258 439 240 q 442 292 442 275 l 442 1021 l 614 1021 l 614 292 q 608 216 614 254 q 589 142 603 178 q 551 76 575 107 q 494 26 526 46 q 424 -3 461 6 q 347 -11 386 -11 z "},"V":{"ha":694,"x_min":49,"x_max":646,"o":"m 249 0 l 49 1021 l 225 1021 l 331 340 q 339 287 335 314 q 347 233 343 260 q 356 287 351 260 q 364 340 360 314 l 469 1021 l 646 1021 l 446 0 l 249 0 z "},"W":{"ha":694,"x_min":32,"x_max":663,"o":"m 150 0 l 32 1021 l 192 1021 l 228 315 l 281 735 l 414 735 l 467 315 l 503 1021 l 663 1021 l 544 0 l 413 0 l 347 486 l 282 0 l 150 0 z "},"X":{"ha":694,"x_min":49,"x_max":646,"o":"m 49 0 l 269 511 l 49 1021 l 235 1021 l 347 717 l 460 1021 l 646 1021 l 425 511 l 646 0 l 460 0 l 347 304 l 235 0 l 49 0 z "},"Y":{"ha":694,"x_min":42,"x_max":653,"o":"m 261 0 l 261 435 l 42 1021 l 225 1021 l 347 642 l 469 1021 l 653 1021 l 433 435 l 433 0 l 261 0 z "},"Z":{"ha":694,"x_min":81,"x_max":614,"o":"m 81 0 l 81 146 l 415 875 l 81 875 l 81 1021 l 614 1021 l 614 875 l 279 146 l 614 146 l 614 0 l 81 0 z "},"[":{"ha":694,"x_min":153,"x_max":561,"o":"m 561 -199 l 153 -199 l 153 1143 l 561 1143 l 561 997 l 325 997 l 325 -53 l 561 -53 l 561 -199 z "},"\\":{"ha":694,"x_min":65,"x_max":629,"o":"m 629 -199 l 454 -199 l 65 1143 l 240 1143 l 629 -199 z "},"]":{"ha":694,"x_min":133,"x_max":542,"o":"m 133 -199 l 133 -53 l 369 -53 l 369 997 l 133 997 l 133 1143 l 542 1143 l 542 -199 l 133 -199 z "},"^":{"ha":694,"x_min":22,"x_max":672,"o":"m 519 608 l 347 892 l 175 608 l 22 692 l 260 1033 l 435 1033 l 672 692 l 519 608 z "},"_":{"ha":694,"x_min":81,"x_max":614,"o":"m 81 -146 l 81 0 l 614 0 l 614 -146 l 81 -146 z "},"`":{"ha":694,"x_min":99,"x_max":507,"o":"m 392 731 l 99 1032 l 240 1140 l 507 819 l 392 731 z "},"a":{"ha":694,"x_min":69,"x_max":614,"o":"m 267 -11 q 185 3 225 -11 q 119 48 146 17 q 81 119 92 79 q 69 201 69 160 q 78 274 69 238 q 109 341 88 311 q 162 392 131 371 q 228 424 193 413 q 301 440 264 436 q 374 444 338 444 l 442 444 l 442 485 q 436 524 442 504 q 417 559 431 544 q 385 581 404 574 q 346 588 365 588 q 310 583 328 588 q 279 568 293 579 q 258 541 265 557 q 250 507 250 525 l 250 504 l 78 504 l 78 511 q 87 576 78 544 q 115 635 96 608 q 160 681 133 661 q 217 713 188 701 q 280 729 247 725 q 346 733 313 733 q 415 728 381 733 q 481 708 450 722 q 539 672 513 694 q 583 618 565 649 q 607 553 600 588 q 614 485 614 519 l 614 0 l 442 0 l 442 111 q 415 61 432 85 q 374 21 397 38 q 323 -3 351 4 q 267 -11 294 -11 m 342 135 q 383 143 363 135 q 418 168 404 151 q 437 206 432 185 q 442 250 442 228 l 442 299 l 374 299 q 345 298 360 299 q 316 294 331 297 q 288 285 301 290 q 264 269 275 279 q 247 246 253 260 q 242 218 242 232 q 249 182 242 199 q 272 154 257 165 q 304 139 286 143 q 342 135 322 135 z "},"b":{"ha":694,"x_min":81,"x_max":625,"o":"m 428 -11 q 369 -2 399 -11 q 317 26 340 7 q 278 70 294 44 q 253 124 263 96 l 253 0 l 81 0 l 81 1021 l 253 1021 l 253 599 q 278 652 263 626 q 317 697 294 678 q 369 724 340 715 q 428 733 399 733 q 492 722 461 733 q 547 688 524 711 q 586 635 571 665 q 610 574 601 606 q 622 510 619 543 q 625 444 625 478 l 625 278 q 622 212 625 244 q 610 148 619 179 q 586 87 601 117 q 547 34 571 57 q 492 0 524 11 q 428 -11 461 -11 m 353 135 q 399 148 378 135 q 433 183 421 161 q 449 228 444 204 q 453 278 453 253 l 453 444 q 449 494 453 469 q 433 540 444 518 q 399 574 421 561 q 353 588 378 588 q 306 574 328 588 q 273 540 285 561 q 257 494 261 518 q 253 444 253 469 l 253 278 q 257 228 253 253 q 273 183 261 204 q 306 148 285 161 q 353 135 328 135 z "},"c":{"ha":694,"x_min":69,"x_max":617,"o":"m 343 -11 q 268 -4 306 -11 q 197 22 231 3 q 138 68 164 40 q 97 131 113 96 q 76 203 82 165 q 69 278 69 240 l 69 444 q 76 519 69 482 q 97 592 82 557 q 138 654 113 626 q 197 701 164 682 q 268 726 231 719 q 343 733 306 733 q 415 727 379 733 q 483 705 450 721 q 541 663 515 689 q 584 606 567 638 q 609 538 601 574 q 617 467 617 503 l 617 456 l 444 456 l 444 461 q 439 506 444 483 q 421 548 433 529 q 387 577 408 567 q 343 588 365 588 q 296 574 318 588 q 262 540 274 561 q 246 494 250 518 q 242 444 242 469 l 242 278 q 246 228 242 253 q 262 183 250 204 q 296 148 274 161 q 343 135 318 135 q 387 145 365 135 q 421 174 408 156 q 439 216 433 193 q 444 261 444 239 l 444 267 l 617 267 l 617 256 q 609 184 617 219 q 584 117 601 149 q 541 59 567 85 q 483 17 515 33 q 415 -5 450 1 q 343 -11 379 -11 z "},"d":{"ha":694,"x_min":69,"x_max":614,"o":"m 267 -11 q 202 0 233 -11 q 147 34 171 11 q 108 87 124 57 q 84 148 93 117 q 72 212 75 179 q 69 278 69 244 l 69 444 q 72 510 69 478 q 84 574 75 543 q 108 635 93 606 q 147 688 124 665 q 202 722 171 711 q 267 733 233 733 q 325 724 296 733 q 377 697 354 715 q 416 652 400 678 q 442 599 432 626 l 442 1021 l 614 1021 l 614 0 l 442 0 l 442 124 q 416 70 432 96 q 377 26 400 44 q 325 -2 354 7 q 267 -11 296 -11 m 342 135 q 388 148 367 135 q 422 183 410 161 q 438 228 433 204 q 442 278 442 253 l 442 444 q 438 494 442 469 q 422 540 433 518 q 388 574 410 561 q 342 588 367 588 q 295 574 317 588 q 262 540 274 561 q 246 494 250 518 q 242 444 242 469 l 242 278 q 246 228 242 253 q 262 183 250 204 q 295 148 274 161 q 342 135 317 135 z "},"e":{"ha":694,"x_min":69,"x_max":625,"o":"m 347 -11 q 271 -4 308 -11 q 200 21 233 3 q 140 67 167 39 q 98 130 114 96 q 76 202 82 164 q 69 278 69 240 l 69 444 q 76 520 69 482 q 98 592 82 558 q 140 655 114 626 q 200 701 167 683 q 272 726 233 719 q 347 733 310 733 q 423 726 385 733 q 494 701 461 719 q 554 655 528 683 q 597 592 581 626 q 619 520 613 558 q 625 444 625 482 l 625 289 l 242 289 l 242 278 q 246 228 242 253 q 263 181 250 203 q 299 147 276 160 q 347 135 322 135 q 384 139 365 135 q 418 154 403 143 q 442 183 433 165 q 450 218 450 200 l 622 218 q 613 152 622 185 q 584 92 603 119 q 538 43 565 64 q 478 10 510 22 q 414 -6 447 -1 q 347 -11 381 -11 m 242 433 l 453 433 l 453 444 q 449 494 453 469 q 431 541 444 519 q 395 575 418 563 q 347 588 372 588 q 299 575 322 588 q 263 541 276 563 q 246 494 250 519 q 242 444 242 469 l 242 433 z "},"f":{"ha":694,"x_min":81,"x_max":647,"o":"m 224 0 l 224 522 l 81 522 l 81 668 l 224 668 l 224 788 q 228 849 224 818 q 244 908 232 879 q 274 960 256 936 q 319 1001 293 985 q 375 1025 344 1018 q 436 1032 406 1032 q 519 1019 478 1032 q 590 977 560 1007 q 633 907 619 947 q 647 824 647 867 l 647 821 l 475 821 l 475 822 q 474 842 475 832 q 468 863 472 853 q 455 879 464 872 q 436 886 446 886 q 419 879 426 886 q 408 863 413 872 q 402 844 404 854 q 399 826 400 835 q 397 807 397 817 q 396 788 396 797 l 396 668 l 588 668 l 588 522 l 396 522 l 396 0 l 224 0 z "},"g":{"ha":694,"x_min":69,"x_max":614,"o":"m 344 -310 q 281 -306 313 -310 q 219 -290 249 -301 q 162 -260 189 -279 q 116 -215 135 -240 q 88 -158 97 -189 q 78 -94 78 -126 l 250 -94 q 259 -126 250 -111 q 282 -149 268 -140 q 312 -161 296 -158 q 344 -164 328 -164 q 390 -151 369 -164 q 423 -116 411 -137 q 438 -70 435 -94 q 442 -21 442 -46 l 442 124 q 416 70 432 96 q 377 26 400 44 q 325 -2 354 7 q 267 -11 296 -11 q 202 0 233 -11 q 147 34 171 11 q 108 87 124 57 q 84 148 93 117 q 72 212 75 179 q 69 278 69 244 l 69 444 q 72 510 69 478 q 84 574 75 543 q 108 635 93 606 q 147 688 124 665 q 202 722 171 711 q 267 733 233 733 q 325 724 296 733 q 377 697 354 715 q 416 652 400 678 q 442 599 432 626 l 442 722 l 614 722 l 614 -21 q 608 -96 614 -58 q 588 -167 603 -133 q 547 -230 572 -201 q 489 -276 521 -258 q 419 -302 457 -294 q 344 -310 382 -310 m 342 135 q 388 148 367 135 q 422 183 410 161 q 438 228 433 204 q 442 278 442 253 l 442 444 q 438 494 442 469 q 422 540 433 518 q 388 574 410 561 q 342 588 367 588 q 295 574 317 588 q 262 540 274 561 q 246 494 250 518 q 242 444 242 469 l 242 278 q 246 228 242 253 q 262 183 250 204 q 295 148 274 161 q 342 135 317 135 z "},"h":{"ha":694,"x_min":81,"x_max":614,"o":"m 81 0 l 81 1021 l 253 1021 l 253 600 q 278 653 263 628 q 315 697 293 678 q 365 724 338 715 q 422 733 393 733 q 485 722 454 733 q 540 687 517 710 q 577 634 563 664 q 600 573 592 604 q 611 509 608 542 q 614 444 614 476 l 614 0 l 442 0 l 442 444 q 440 477 442 461 q 435 508 439 493 q 424 538 431 524 q 406 565 417 553 q 379 582 394 576 q 347 588 364 588 q 315 582 331 588 q 289 565 300 576 q 271 538 278 553 q 260 508 264 524 q 254 477 256 493 q 253 444 253 461 l 253 0 l 81 0 z "},"i":{"ha":694,"x_min":104,"x_max":590,"o":"m 104 0 l 104 146 l 271 146 l 271 576 l 124 576 l 124 722 l 443 722 l 443 146 l 590 146 l 590 0 l 104 0 m 354 813 q 307 819 331 813 q 267 843 283 826 q 243 883 250 860 q 236 931 236 907 q 243 978 236 954 q 267 1018 250 1001 q 307 1042 283 1035 q 354 1049 331 1049 q 401 1042 378 1049 q 442 1018 425 1035 q 465 978 458 1001 q 472 931 472 954 q 465 883 472 907 q 442 843 458 860 q 401 819 425 826 q 354 813 378 813 z "},"j":{"ha":694,"x_min":-4,"x_max":543,"o":"m 257 -310 q 191 -305 224 -310 q 128 -286 158 -300 q 72 -250 97 -272 q 30 -199 47 -228 q 4 -139 13 -171 q -4 -74 -4 -107 l 168 -74 q 174 -109 168 -92 q 192 -140 179 -126 q 222 -158 204 -153 q 257 -164 239 -164 q 290 -156 274 -164 q 316 -135 306 -149 q 333 -106 326 -122 q 342 -74 339 -90 q 347 -40 346 -57 q 349 -7 349 -24 l 349 576 l 192 576 l 192 722 l 521 722 l 521 -7 q 516 -83 521 -44 q 497 -156 511 -121 q 458 -221 482 -190 q 403 -272 435 -251 q 333 -301 371 -293 q 257 -310 296 -310 m 424 813 q 376 819 400 813 q 336 843 353 826 q 313 883 319 860 q 306 931 306 907 q 313 978 306 954 q 336 1018 319 1001 q 376 1042 353 1035 q 424 1049 400 1049 q 471 1042 447 1049 q 511 1018 494 1035 q 535 978 528 1001 q 542 931 542 954 q 535 883 542 907 q 511 843 528 860 q 471 819 494 826 q 424 813 447 813 z "},"k":{"ha":694,"x_min":103,"x_max":640,"o":"m 453 0 l 317 257 l 275 196 l 275 0 l 103 0 l 103 1021 l 275 1021 l 275 443 l 446 722 l 640 722 l 410 390 l 640 0 l 453 0 z "},"l":{"ha":694,"x_min":104,"x_max":590,"o":"m 104 0 l 104 146 l 271 146 l 271 875 l 124 875 l 124 1021 l 443 1021 l 443 146 l 590 146 l 590 0 l 104 0 z "},"m":{"ha":694,"x_min":54,"x_max":640,"o":"m 54 0 l 54 722 l 200 722 l 200 646 q 214 679 206 664 q 235 708 222 694 q 265 727 249 721 q 300 733 282 733 q 343 724 322 733 q 377 697 364 714 q 399 658 390 679 q 413 617 407 638 q 424 658 417 638 q 446 697 432 679 q 479 724 460 714 q 521 733 499 733 q 563 724 543 733 q 597 697 583 714 q 619 658 611 679 q 633 616 628 638 q 639 573 638 594 q 640 529 640 551 l 640 0 l 494 0 l 494 529 q 494 553 494 542 q 490 577 493 565 q 478 599 486 589 q 457 610 469 610 q 437 599 444 610 q 426 577 429 589 q 421 553 422 565 q 419 529 419 542 l 419 0 l 275 0 l 275 529 q 274 553 275 542 q 269 577 272 565 q 258 599 265 589 q 238 610 250 610 q 217 599 225 610 q 205 577 208 589 q 201 553 201 565 q 200 529 200 542 l 200 0 l 54 0 z "},"n":{"ha":694,"x_min":81,"x_max":614,"o":"m 81 0 l 81 722 l 253 722 l 253 600 q 278 653 263 628 q 315 697 293 678 q 365 724 338 715 q 422 733 393 733 q 485 722 454 733 q 540 687 517 710 q 577 634 563 664 q 600 573 592 604 q 611 509 608 542 q 614 444 614 476 l 614 0 l 442 0 l 442 444 q 440 477 442 461 q 435 508 439 493 q 424 538 431 524 q 406 565 417 553 q 379 582 394 576 q 347 588 364 588 q 315 582 331 588 q 289 565 300 576 q 271 538 278 553 q 260 508 264 524 q 254 477 256 493 q 253 444 253 461 l 253 0 l 81 0 z "},"o":{"ha":694,"x_min":69,"x_max":625,"o":"m 347 -11 q 272 -4 310 -11 q 200 21 233 3 q 140 67 167 39 q 98 130 114 96 q 76 202 82 164 q 69 278 69 240 l 69 444 q 76 520 69 482 q 98 592 82 558 q 140 655 114 626 q 200 701 167 683 q 272 726 233 719 q 347 733 310 733 q 423 726 385 733 q 494 701 461 719 q 554 655 528 683 q 597 592 581 626 q 619 520 613 558 q 625 444 625 482 l 625 278 q 619 202 625 240 q 597 130 613 164 q 554 67 581 96 q 494 21 528 39 q 423 -4 461 3 q 347 -11 385 -11 m 347 135 q 395 147 372 135 q 431 181 418 160 q 449 228 444 203 q 453 278 453 253 l 453 444 q 449 494 453 469 q 431 541 444 519 q 395 575 418 563 q 347 588 372 588 q 299 575 322 588 q 263 541 276 563 q 246 494 250 519 q 242 444 242 469 l 242 278 q 246 228 242 253 q 263 181 250 203 q 299 147 276 160 q 347 135 322 135 z "},"p":{"ha":694,"x_min":81,"x_max":625,"o":"m 81 -299 l 81 722 l 253 722 l 253 599 q 278 652 263 626 q 317 697 294 678 q 369 724 340 715 q 428 733 399 733 q 492 722 461 733 q 547 688 524 711 q 586 635 571 665 q 610 574 601 606 q 622 510 619 543 q 625 444 625 478 l 625 278 q 622 212 625 244 q 610 148 619 179 q 586 87 601 117 q 547 34 571 57 q 492 0 524 11 q 428 -11 461 -11 q 369 -2 399 -11 q 317 26 340 7 q 278 70 294 44 q 253 124 263 96 l 253 -299 l 81 -299 m 353 135 q 399 148 378 135 q 433 183 421 161 q 449 228 444 204 q 453 278 453 253 l 453 444 q 449 494 453 469 q 433 540 444 518 q 399 574 421 561 q 353 588 378 588 q 306 574 328 588 q 273 540 285 561 q 257 494 261 518 q 253 444 253 469 l 253 278 q 257 228 253 253 q 273 183 261 204 q 306 148 285 161 q 353 135 328 135 z "},"q":{"ha":694,"x_min":69,"x_max":614,"o":"m 442 -299 l 442 124 q 416 70 432 96 q 377 26 400 44 q 325 -2 354 7 q 267 -11 296 -11 q 202 0 233 -11 q 147 34 171 11 q 108 87 124 57 q 84 148 93 117 q 72 212 75 179 q 69 278 69 244 l 69 444 q 72 510 69 478 q 84 574 75 543 q 108 635 93 606 q 147 688 124 665 q 202 722 171 711 q 267 733 233 733 q 325 724 296 733 q 377 697 354 715 q 416 652 400 678 q 442 599 432 626 l 442 722 l 614 722 l 614 -299 l 442 -299 m 342 135 q 388 148 367 135 q 422 183 410 161 q 438 228 433 204 q 442 278 442 253 l 442 444 q 438 494 442 469 q 422 540 433 518 q 388 574 410 561 q 342 588 367 588 q 295 574 317 588 q 262 540 274 561 q 246 494 250 518 q 242 444 242 469 l 242 278 q 246 228 242 253 q 262 183 250 204 q 295 148 274 161 q 342 135 317 135 z "},"r":{"ha":694,"x_min":154,"x_max":644,"o":"m 154 0 l 154 722 l 326 722 l 326 574 q 348 632 335 604 q 381 683 361 660 q 430 720 401 707 q 489 733 458 733 q 542 724 517 733 q 586 697 568 715 q 616 653 604 678 q 634 602 628 628 q 642 550 640 576 q 644 497 644 524 l 472 497 q 470 526 472 511 q 462 556 468 542 q 443 578 456 569 q 415 588 431 588 q 379 574 396 588 q 353 542 363 560 q 340 504 344 524 q 331 465 335 485 q 327 424 328 444 q 326 383 326 403 l 326 0 l 154 0 z "},"s":{"ha":694,"x_min":78,"x_max":614,"o":"m 346 -11 q 283 -8 314 -11 q 222 6 251 -4 q 165 34 192 17 q 118 76 138 51 q 88 132 99 101 q 78 194 78 163 l 78 204 l 250 204 l 250 201 q 259 170 250 185 q 283 148 268 156 q 313 138 297 140 q 346 135 329 135 q 377 137 361 135 q 408 146 393 139 q 432 165 422 153 q 442 194 442 178 q 427 233 442 215 q 393 262 413 251 q 353 278 374 272 q 312 291 332 285 q 271 306 292 297 q 231 325 250 314 q 195 349 213 336 q 162 376 178 361 q 133 409 146 392 q 111 447 121 426 q 97 488 101 467 q 92 531 92 508 q 101 591 92 561 q 129 645 111 621 q 173 688 147 669 q 228 716 199 706 q 288 730 257 726 q 349 733 318 733 q 410 729 379 733 q 470 715 442 725 q 524 687 499 704 q 569 644 550 669 q 597 590 588 619 q 606 528 606 560 l 606 518 l 433 518 l 433 521 q 426 550 433 536 q 407 573 419 564 q 379 585 394 582 q 349 588 364 588 q 320 585 335 588 q 293 576 306 583 q 272 556 281 569 q 264 529 264 543 q 278 490 264 507 q 312 461 293 472 q 351 444 331 450 q 393 431 372 438 q 434 417 414 425 q 474 398 454 408 q 510 374 493 388 q 543 346 528 361 q 572 313 558 331 q 594 276 585 296 q 609 235 604 257 q 614 192 614 214 q 603 131 614 161 q 574 75 593 100 q 527 33 554 50 q 470 6 500 17 q 409 -8 440 -4 q 346 -11 378 -11 z "},"t":{"ha":694,"x_min":97,"x_max":644,"o":"m 422 -11 q 355 -3 388 -11 q 295 26 322 6 q 249 74 268 46 q 218 133 229 101 q 203 199 207 165 q 199 265 199 232 l 199 576 l 97 576 l 97 722 l 199 722 l 199 1021 l 371 1021 l 371 722 l 583 722 l 583 576 l 371 576 l 371 265 q 372 240 371 253 q 374 215 372 228 q 378 190 375 203 q 385 166 381 178 q 399 144 390 154 q 422 135 408 135 q 442 144 433 135 q 456 164 451 153 q 465 188 461 175 q 469 212 468 200 q 472 236 471 224 q 472 261 472 249 l 472 267 l 644 267 l 644 253 q 639 188 644 221 q 622 126 633 156 q 591 69 610 96 q 545 23 572 42 q 486 -3 518 4 q 422 -11 454 -11 z "},"u":{"ha":694,"x_min":81,"x_max":614,"o":"m 272 -11 q 209 1 240 -11 q 155 35 178 13 q 117 88 132 58 q 94 149 103 118 q 83 213 86 181 q 81 278 81 246 l 81 722 l 253 722 l 253 278 q 254 245 253 261 q 260 214 256 229 q 271 184 264 199 q 289 158 278 169 q 315 140 300 146 q 347 135 331 135 q 379 140 364 135 q 406 158 394 146 q 424 184 417 169 q 435 214 431 199 q 440 245 439 229 q 442 278 442 261 l 442 722 l 614 722 l 614 0 l 442 0 l 442 122 q 417 69 432 94 q 379 26 401 44 q 329 -2 357 7 q 272 -11 301 -11 z "},"v":{"ha":694,"x_min":49,"x_max":646,"o":"m 249 0 l 49 722 l 228 722 l 333 240 q 340 209 336 225 q 347 176 343 193 q 355 209 351 193 q 361 240 358 225 l 467 722 l 646 722 l 446 0 l 249 0 z "},"w":{"ha":694,"x_min":32,"x_max":663,"o":"m 150 0 l 32 722 l 192 722 l 228 225 l 281 519 l 414 519 l 467 225 l 503 722 l 663 722 l 544 0 l 413 0 l 347 343 l 282 0 l 150 0 z "},"x":{"ha":694,"x_min":57,"x_max":638,"o":"m 57 0 l 267 361 l 57 722 l 256 722 l 347 526 l 439 722 l 638 722 l 428 361 l 638 0 l 439 0 l 347 196 l 256 0 l 57 0 z "},"y":{"ha":694,"x_min":64,"x_max":631,"o":"m 358 -299 l 181 -299 q 210 -192 196 -246 q 238 -86 224 -139 l 261 1 l 64 722 l 242 722 l 351 217 l 453 722 l 631 722 l 358 -299 z "},"z":{"ha":694,"x_min":81,"x_max":614,"o":"m 81 0 l 81 146 l 436 576 l 81 576 l 81 722 l 614 722 l 614 576 l 258 146 l 614 146 l 614 0 l 81 0 z "},"{":{"ha":694,"x_min":107,"x_max":561,"o":"m 561 -212 q 478 -208 519 -212 q 398 -190 438 -203 q 322 -157 358 -178 q 258 -106 286 -136 q 217 -35 231 -75 q 203 44 203 4 q 206 88 203 67 q 215 128 208 108 q 230 168 221 149 q 248 207 239 188 q 264 247 257 226 q 271 288 271 267 q 265 324 271 307 q 245 356 258 342 q 215 378 232 369 q 181 391 199 386 q 144 398 163 396 q 107 400 126 400 l 107 544 q 144 547 126 544 q 181 553 163 549 q 215 567 199 558 q 245 589 232 575 q 265 620 258 603 q 271 657 271 638 q 264 698 271 678 q 248 738 257 718 q 230 776 239 757 q 215 816 221 796 q 206 857 208 836 q 203 900 203 878 q 217 980 203 940 q 258 1050 231 1019 q 322 1101 286 1081 q 398 1135 358 1122 q 478 1152 438 1147 q 560 1157 519 1157 l 561 1011 q 520 1009 540 1011 q 481 1002 500 1007 q 442 990 461 997 q 408 969 424 982 q 384 938 393 957 q 375 900 375 919 q 383 853 375 876 q 401 810 392 831 l 403 808 q 431 734 419 772 q 443 657 443 696 q 435 597 443 626 q 409 544 426 568 q 367 502 392 519 q 315 472 343 485 q 367 442 343 460 q 409 401 392 425 q 435 347 426 376 q 443 288 443 318 q 431 210 443 249 q 403 136 419 172 l 401 135 q 383 91 392 114 q 375 44 375 68 q 384 6 375 25 q 408 -25 393 -12 q 442 -45 424 -37 q 481 -58 461 -53 q 520 -65 500 -62 q 561 -67 540 -67 l 561 -212 z "},"|":{"ha":694,"x_min":261,"x_max":433,"o":"m 261 -199 l 261 1143 l 433 1143 l 433 -199 l 261 -199 z "},"}":{"ha":694,"x_min":133,"x_max":588,"o":"m 133 -212 l 133 -67 q 174 -65 154 -67 q 214 -58 194 -62 q 252 -45 233 -53 q 286 -25 271 -37 q 310 6 301 -12 q 319 44 319 25 q 311 91 319 68 q 293 135 303 114 l 292 136 q 263 210 275 172 q 251 288 251 249 q 260 347 251 318 q 285 401 268 376 q 327 442 303 425 q 379 472 351 460 q 327 502 351 485 q 285 544 303 519 q 260 597 268 568 q 251 657 251 626 q 263 734 251 696 q 292 808 275 772 l 293 810 q 311 853 303 831 q 319 900 319 876 q 310 938 319 919 q 286 969 301 957 q 252 990 271 982 q 214 1002 233 997 q 174 1009 194 1007 q 135 1011 154 1011 l 133 1157 q 216 1152 175 1157 q 297 1135 257 1147 q 372 1101 336 1122 q 436 1050 408 1081 q 478 980 464 1019 q 492 900 492 940 q 489 857 492 878 q 480 816 486 836 q 465 776 474 796 q 447 738 456 757 q 431 698 438 718 q 424 657 424 678 q 430 620 424 638 q 449 589 436 603 q 479 567 463 575 q 514 553 496 558 q 550 547 532 549 q 588 544 568 544 l 588 400 q 550 398 568 400 q 514 391 532 396 q 479 378 496 386 q 449 356 463 369 q 430 324 436 342 q 424 288 424 307 q 431 247 424 267 q 447 207 438 226 q 465 168 456 188 q 480 128 474 149 q 489 88 486 108 q 492 44 492 67 q 478 -35 492 4 q 436 -106 464 -75 q 372 -157 408 -136 q 297 -190 336 -178 q 216 -208 257 -203 q 135 -212 175 -212 l 133 -212 z "},"~":{"ha":694,"x_min":10,"x_max":685,"o":"m 450 253 q 430 254 440 253 q 410 258 419 256 q 393 265 401 261 q 376 274 385 268 q 360 285 367 279 q 347 298 353 292 q 333 312 340 304 q 320 327 326 319 q 308 343 314 335 q 298 359 303 351 q 288 374 293 367 q 277 392 283 382 q 265 410 271 401 q 254 426 260 419 q 241 442 249 433 q 233 453 233 450 l 235 453 q 239 452 236 453 q 246 451 242 451 q 250 452 247 451 q 254 453 253 453 q 249 444 254 449 q 236 430 243 439 q 228 417 229 421 q 223 409 226 414 q 217 399 219 404 q 210 389 214 394 q 204 376 207 383 q 198 363 201 369 q 190 348 194 356 q 183 333 186 340 q 176 316 179 325 q 168 298 172 307 q 160 278 164 289 q 151 258 156 268 l 10 306 q 32 360 21 335 q 54 407 43 385 q 76 448 65 429 q 97 483 86 467 q 122 517 107 499 q 156 549 138 535 q 198 572 175 563 q 244 581 221 581 q 265 579 254 581 q 284 575 275 578 q 301 568 293 572 q 319 559 310 564 q 335 548 328 554 q 348 535 342 542 q 361 522 354 529 q 374 506 368 514 q 386 490 381 499 q 397 474 392 482 q 406 459 401 467 q 417 442 411 451 q 429 423 424 432 q 440 406 435 414 q 453 390 446 399 q 461 381 461 382 l 440 381 q 446 389 440 383 q 458 403 451 394 q 467 416 465 413 q 472 424 468 419 q 478 433 475 428 q 484 444 481 439 q 490 456 488 450 q 497 470 493 463 q 504 485 500 478 q 512 500 508 492 q 519 517 515 508 q 526 535 522 526 q 535 555 531 544 q 543 575 539 565 l 685 528 q 663 474 674 499 q 640 426 651 449 q 619 385 629 404 q 598 351 608 367 q 572 317 588 335 q 538 284 557 299 q 497 261 519 269 q 450 253 474 253 z "},"":{"ha":694,"x_min":0,"x_max":0,"o":""},"":{"ha":694,"x_min":218,"x_max":476,"o":"m 347 475 q 296 483 321 475 q 252 509 271 490 q 226 553 233 528 q 218 604 218 578 q 226 656 218 631 q 252 699 233 681 q 296 726 271 718 q 347 733 321 733 q 399 726 374 733 q 442 699 424 718 q 469 656 461 681 q 476 604 476 631 q 469 553 476 578 q 442 509 461 528 q 399 483 424 490 q 347 475 374 475 m 261 -299 l 261 314 l 433 314 l 433 -299 l 261 -299 z "},"":{"ha":694,"x_min":69,"x_max":617,"o":"m 275 -149 l 275 -6 q 214 13 243 0 q 160 47 185 26 q 117 95 135 68 q 89 152 100 122 q 74 214 78 182 q 69 278 69 246 l 69 444 q 74 508 69 476 q 89 570 78 540 q 117 627 100 600 q 160 675 135 654 q 214 709 185 696 q 275 728 243 722 l 275 872 l 419 872 l 419 726 q 502 693 464 717 q 566 633 540 669 q 604 554 592 597 q 617 467 617 511 l 617 456 l 444 456 l 444 461 q 442 492 444 476 q 433 524 439 508 q 418 552 428 539 q 394 574 408 565 l 394 149 q 418 170 408 157 q 433 199 428 183 q 442 230 439 214 q 444 261 444 246 l 444 267 l 617 267 l 617 256 q 604 168 617 211 q 566 89 592 125 q 502 29 540 53 q 419 -4 464 6 l 419 -149 l 275 -149 m 300 144 l 300 578 q 271 553 282 569 q 253 519 260 538 q 244 483 246 501 q 242 444 242 464 l 242 278 q 244 240 242 258 q 253 203 246 221 q 271 169 260 185 q 300 144 282 153 z "},"":{"ha":694,"x_min":81,"x_max":614,"o":"m 81 0 l 81 146 q 126 201 107 169 q 157 266 146 232 q 170 336 168 300 q 172 408 172 372 l 172 457 l 92 457 l 92 564 l 172 564 l 172 801 q 176 860 172 831 q 192 917 181 890 q 224 967 204 944 q 268 1005 243 990 q 322 1026 293 1019 q 382 1032 351 1032 q 439 1026 410 1032 q 493 1005 468 1019 q 537 968 518 990 q 567 919 556 946 q 585 863 579 892 q 590 806 590 835 l 590 794 l 418 794 l 418 799 q 417 824 418 811 q 412 850 415 838 q 401 874 408 863 q 382 886 394 886 q 360 875 368 886 q 350 851 353 864 q 346 826 347 839 q 344 801 344 814 l 344 564 l 456 564 l 456 457 l 344 457 l 344 408 q 344 341 344 375 q 338 274 343 307 q 322 208 332 240 q 294 146 311 175 l 614 146 l 614 0 l 81 0 z "},"":{"ha":694,"x_min":33,"x_max":661,"o":"m 567 165 l 482 250 q 417 227 451 233 q 347 221 382 221 q 278 227 313 221 q 213 250 243 233 l 128 165 l 33 246 l 125 338 q 102 403 108 368 q 96 472 96 438 q 102 542 96 507 q 125 607 108 576 l 33 699 l 128 779 l 213 694 q 278 717 243 711 q 347 724 313 724 q 417 717 382 724 q 482 694 451 711 l 567 779 l 661 699 l 569 607 q 592 542 586 576 q 599 472 599 507 q 592 403 599 438 q 569 338 586 368 l 661 246 l 567 165 m 347 333 q 398 344 374 333 q 438 374 422 354 q 460 420 454 394 q 465 472 465 446 q 460 524 465 499 q 438 570 454 550 q 398 601 422 590 q 347 611 374 611 q 297 601 321 611 q 256 570 272 590 q 235 524 240 550 q 229 472 229 499 q 235 420 229 446 q 256 374 240 394 q 297 344 272 354 q 347 333 321 333 z "},"":{"ha":694,"x_min":42,"x_max":653,"o":"m 261 0 l 261 150 l 81 150 l 81 258 l 261 258 l 261 354 l 81 354 l 81 463 l 251 463 l 42 1021 l 225 1021 l 347 642 l 469 1021 l 653 1021 l 443 463 l 614 463 l 614 354 l 433 354 l 433 258 l 614 258 l 614 150 l 433 150 l 433 0 l 261 0 z "},"":{"ha":694,"x_min":261,"x_max":433,"o":"m 261 544 l 261 1143 l 433 1143 l 433 544 l 261 544 m 261 -199 l 261 400 l 433 400 l 433 -199 l 261 -199 z "},"":{"ha":694,"x_min":78,"x_max":617,"o":"m 346 -210 q 274 -203 310 -210 q 207 -179 239 -196 q 150 -137 175 -162 q 109 -79 125 -111 q 85 -12 93 -47 q 78 60 78 24 l 78 68 l 250 68 l 250 64 q 255 19 250 42 q 272 -22 260 -3 q 303 -53 283 -42 q 346 -64 324 -64 q 390 -51 369 -64 q 421 -19 410 -39 q 438 23 432 0 q 443 69 443 46 q 429 126 443 99 q 392 172 415 154 q 340 199 368 189 q 283 219 311 210 q 228 240 256 228 q 176 271 200 253 q 134 312 153 289 q 103 362 115 335 q 86 419 92 389 q 81 478 81 449 q 85 533 81 506 q 98 588 89 561 q 121 640 107 615 q 154 686 135 665 q 99 770 117 721 q 81 869 81 819 q 88 943 81 907 q 111 1013 96 979 q 151 1074 126 1046 q 207 1121 175 1103 q 276 1147 239 1139 q 349 1154 313 1154 q 420 1147 385 1154 q 488 1124 456 1140 q 544 1081 519 1107 q 585 1024 569 1056 q 609 956 601 992 q 617 885 617 921 l 617 876 l 444 876 l 444 881 q 440 925 444 903 q 423 967 435 947 q 391 997 411 986 q 349 1008 371 1008 q 305 996 325 1008 q 274 964 285 983 q 257 922 263 944 q 251 875 251 899 q 265 818 251 846 q 303 773 279 790 q 355 745 326 756 q 411 726 383 735 q 467 704 439 717 q 518 674 494 692 q 560 633 542 656 q 591 583 579 610 q 608 526 603 556 q 614 467 614 496 q 610 411 614 439 q 597 356 606 383 q 574 304 588 329 q 540 258 560 279 q 596 174 578 224 q 614 75 614 125 q 606 1 614 38 q 583 -68 599 -35 q 544 -130 568 -101 q 488 -176 519 -158 q 419 -202 456 -194 q 346 -210 382 -210 m 390 340 q 415 363 404 349 q 431 392 425 376 q 440 426 436 408 q 443 460 443 443 q 431 512 443 486 q 399 556 419 538 q 355 585 379 574 q 304 604 331 596 q 280 582 290 596 q 264 552 269 568 q 255 519 258 536 q 251 485 251 501 q 263 433 251 458 q 295 389 275 407 q 340 360 315 371 q 390 340 364 349 z "},"":{"ha":694,"x_min":106,"x_max":589,"o":"m 486 828 q 445 834 465 828 q 410 855 425 840 q 390 890 396 869 q 383 931 383 910 q 390 972 383 951 q 410 1006 396 992 q 445 1027 425 1021 q 486 1033 465 1033 q 527 1027 507 1033 q 562 1006 547 1021 q 583 972 576 992 q 589 931 589 951 q 583 890 589 910 q 562 855 576 869 q 527 834 547 840 q 486 828 507 828 m 208 828 q 167 834 188 828 q 133 855 147 840 q 112 890 118 869 q 106 931 106 910 q 112 972 106 951 q 133 1006 118 992 q 167 1027 147 1021 q 208 1033 188 1033 q 249 1027 229 1033 q 284 1006 269 1021 q 305 972 299 992 q 311 931 311 951 q 305 890 311 910 q 284 855 299 869 q 249 834 269 840 q 208 828 229 828 z "},"":{"ha":694,"x_min":139,"x_max":547,"o":"m 285 440 q 226 450 256 440 q 177 481 197 460 q 148 532 157 503 q 139 590 139 561 q 147 644 139 618 q 171 692 154 671 q 211 727 188 713 q 260 750 235 742 q 313 761 286 758 q 367 764 340 764 l 415 764 l 415 790 q 410 815 415 803 q 395 835 406 828 q 372 847 385 843 q 346 850 360 850 q 323 848 335 850 q 301 840 311 846 q 285 824 292 835 q 278 803 278 814 l 278 801 l 144 801 l 144 807 q 163 876 144 843 q 210 928 181 908 q 275 955 239 947 q 346 963 311 963 q 396 959 371 963 q 444 947 421 956 q 488 922 468 938 q 522 885 508 907 q 542 840 536 864 q 547 790 547 815 l 547 449 l 415 449 l 415 526 q 394 490 407 507 q 364 462 381 474 q 326 445 347 450 q 285 440 306 440 m 343 553 q 371 557 357 553 q 395 572 385 561 q 410 596 406 582 q 415 624 415 610 l 415 653 l 367 653 q 338 651 353 653 q 308 644 322 649 q 283 629 294 640 q 272 603 272 618 q 278 580 272 590 q 296 563 285 569 q 319 555 307 557 q 343 553 331 553 m 147 258 l 147 347 l 547 347 l 547 258 l 147 258 z "},"":{"ha":694,"x_min":40,"x_max":657,"o":"m 544 118 q 501 210 525 165 q 449 297 478 256 q 384 376 419 339 q 307 442 349 413 l 307 503 q 384 569 349 532 q 449 647 419 606 q 501 734 478 689 q 544 826 525 779 l 657 789 q 579 621 625 703 q 469 472 533 539 q 579 324 533 406 q 657 156 625 242 l 544 118 m 278 118 q 235 210 258 165 q 182 297 211 256 q 117 376 153 339 q 40 442 82 413 l 40 503 q 117 569 82 532 q 182 647 153 606 q 235 734 211 689 q 278 826 258 779 l 390 789 q 313 621 358 703 q 203 472 267 539 q 313 324 267 406 q 390 156 358 242 l 278 118 z "},"":{"ha":694,"x_min":81,"x_max":614,"o":"m 463 179 l 463 408 l 81 408 l 81 536 l 614 536 l 614 179 l 463 179 z "},"":{"ha":694,"x_min":81,"x_max":614,"o":"m 614 400 l 81 400 l 81 544 l 614 544 l 614 400 z "},"":{"ha":694,"x_min":18,"x_max":676,"o":"m 225 714 l 225 1122 l 356 1122 q 405 1113 381 1122 q 445 1085 429 1104 q 468 1041 461 1065 q 475 992 475 1017 q 472 954 475 972 q 460 920 468 936 q 440 891 453 904 q 410 869 426 878 l 483 714 l 390 714 l 321 860 l 311 860 l 311 714 l 225 714 m 311 933 l 356 933 q 372 940 365 933 q 382 956 379 947 q 386 973 385 964 q 388 992 388 982 q 386 1009 388 1000 q 382 1026 385 1018 q 372 1042 379 1035 q 356 1049 365 1049 l 311 1049 l 311 933 m 347 589 q 259 597 303 589 q 176 624 215 604 q 105 676 136 644 q 53 747 74 707 q 26 830 33 786 q 18 918 18 874 q 26 1006 18 963 q 53 1090 33 1050 q 105 1160 74 1129 q 176 1212 136 1192 q 259 1240 215 1232 q 347 1247 303 1247 q 435 1240 392 1247 q 519 1212 479 1232 q 590 1160 558 1192 q 641 1090 621 1129 q 669 1006 661 1050 q 676 918 676 963 q 669 830 676 874 q 641 747 661 786 q 590 676 621 707 q 519 624 558 644 q 435 597 479 604 q 347 589 392 589 m 347 663 q 414 669 381 663 q 476 692 447 675 q 528 733 506 708 q 565 788 550 758 q 584 851 579 818 q 589 918 589 885 q 584 985 589 951 q 565 1048 579 1018 q 528 1103 550 1078 q 476 1144 506 1128 q 414 1167 447 1161 q 347 1174 381 1174 q 281 1167 314 1174 q 218 1144 247 1161 q 167 1103 189 1128 q 130 1048 144 1078 q 110 985 115 1018 q 106 918 106 951 q 110 851 106 885 q 130 788 115 818 q 167 733 144 758 q 218 692 189 708 q 281 669 247 675 q 347 663 314 663 z "},"":{"ha":694,"x_min":81,"x_max":614,"o":"m 81 874 l 81 988 l 614 988 l 614 874 l 81 874 z "},"":{"ha":694,"x_min":167,"x_max":528,"o":"m 347 728 q 276 739 311 728 q 215 776 240 750 q 178 837 189 801 q 167 910 167 872 q 178 981 167 946 q 215 1042 189 1017 q 276 1079 240 1068 q 347 1090 311 1090 q 419 1079 383 1090 q 480 1042 454 1068 q 517 981 506 1017 q 528 910 528 946 q 517 837 528 872 q 480 776 506 801 q 419 739 454 750 q 347 728 383 728 m 347 846 q 372 850 360 846 q 394 863 385 854 q 406 884 403 872 q 410 910 410 896 q 406 935 410 922 q 394 956 403 947 q 372 969 385 965 q 347 972 360 972 q 322 969 335 972 q 301 956 310 965 q 288 935 292 947 q 285 910 285 922 q 288 884 285 896 q 301 863 292 872 q 322 850 310 854 q 347 846 335 846 z "},"":{"ha":694,"x_min":81,"x_max":614,"o":"m 271 194 l 271 408 l 81 408 l 81 536 l 271 536 l 271 750 l 424 750 l 424 536 l 614 536 l 614 408 l 424 408 l 424 194 l 271 194 m 614 0 l 81 0 l 81 129 l 614 129 l 614 0 z "},"":{"ha":694,"x_min":144,"x_max":551,"o":"m 147 449 l 147 450 q 149 510 147 481 q 156 571 150 540 q 172 630 161 601 q 197 684 182 658 q 233 733 213 710 q 276 776 253 756 q 326 813 300 796 q 373 850 351 829 q 406 900 394 871 q 418 960 418 929 q 415 994 418 976 q 404 1026 413 1011 q 381 1049 396 1040 q 349 1058 365 1058 q 319 1053 333 1058 q 295 1035 304 1047 q 282 1009 286 1024 q 278 979 278 994 l 278 976 l 144 976 l 144 982 q 159 1060 144 1022 q 203 1124 174 1097 q 270 1160 232 1150 q 349 1171 308 1171 q 403 1166 376 1171 q 456 1148 431 1161 q 500 1114 481 1135 q 531 1068 519 1093 q 547 1015 543 1043 q 551 960 551 988 q 544 898 551 928 q 521 842 536 868 q 484 793 506 815 q 438 751 463 771 q 390 713 414 732 q 347 669 367 693 q 313 618 328 646 q 290 561 299 590 l 547 561 l 547 449 l 147 449 z "},"":{"ha":694,"x_min":138,"x_max":564,"o":"m 350 440 q 270 451 310 440 q 200 488 231 461 q 153 552 169 514 q 138 631 138 590 l 138 635 l 271 635 l 271 633 q 276 601 271 617 q 292 575 281 586 q 319 558 303 564 q 350 553 335 553 q 383 560 367 553 q 410 581 400 567 q 426 611 421 594 q 431 646 431 628 q 422 692 431 669 q 396 731 414 715 q 354 752 378 747 q 307 757 331 757 l 307 869 q 350 875 329 869 q 386 895 371 881 q 408 931 401 910 q 415 974 415 951 q 412 1003 415 989 q 401 1031 408 1018 q 379 1051 393 1043 q 350 1058 365 1058 q 322 1052 336 1058 q 301 1034 308 1046 q 290 1008 293 1022 q 286 979 286 993 l 286 976 l 153 976 l 153 983 q 167 1059 153 1022 q 208 1122 181 1096 q 274 1160 236 1149 q 350 1171 311 1171 q 427 1159 389 1171 q 493 1119 465 1147 q 534 1053 521 1092 q 547 976 547 1015 q 542 929 547 953 q 525 884 536 906 q 497 845 514 863 q 460 815 481 828 q 503 785 483 804 q 536 744 522 767 q 557 696 550 722 q 564 643 564 669 q 549 562 564 601 q 503 494 533 522 q 432 453 472 465 q 350 440 392 440 z "},"":{"ha":694,"x_min":188,"x_max":596,"o":"m 303 731 l 188 819 l 454 1140 l 596 1032 l 303 731 z "},"":{"ha":694,"x_min":81,"x_max":614,"o":"m 81 -299 l 81 722 l 253 722 l 253 278 q 254 245 253 261 q 260 214 256 229 q 271 184 264 199 q 289 158 278 169 q 315 140 300 146 q 347 135 331 135 q 391 147 371 135 q 422 181 411 160 q 438 224 433 201 q 442 269 442 247 l 442 722 l 614 722 l 614 0 l 442 0 l 442 122 q 417 69 432 94 q 379 26 401 44 q 329 -2 357 7 q 272 -11 301 -11 q 258 -10 265 -11 q 243 -8 250 -10 q 251 -78 249 -43 q 253 -149 253 -114 l 253 -299 l 81 -299 z "},"":{"ha":694,"x_min":81,"x_max":614,"o":"m 318 0 l 318 461 q 249 469 283 461 q 186 497 215 478 q 136 544 157 515 q 103 605 115 572 q 85 672 90 638 q 81 742 81 707 q 85 811 81 776 q 103 878 90 846 q 136 938 115 910 q 186 985 157 967 q 249 1013 215 1004 q 318 1021 283 1021 l 614 1021 l 614 0 l 499 0 l 499 924 l 433 924 l 433 0 l 318 0 z "},"":{"ha":694,"x_min":206,"x_max":489,"o":"m 347 331 q 290 339 318 331 q 242 367 263 347 q 214 415 222 388 q 206 472 206 443 q 214 529 206 501 q 242 577 222 557 q 290 606 263 597 q 347 614 318 614 q 404 606 376 614 q 452 577 432 597 q 481 529 472 557 q 489 472 489 501 q 481 415 489 443 q 452 367 472 388 q 404 339 432 347 q 347 331 376 331 z "},"":{"ha":694,"x_min":208,"x_max":497,"o":"m 208 -306 l 208 -190 l 347 -190 q 363 -189 356 -190 q 378 -185 371 -187 q 390 -175 385 -182 q 394 -160 394 -168 q 391 -142 394 -151 q 381 -128 388 -133 q 365 -120 374 -122 q 347 -118 356 -118 l 279 -118 l 279 0 l 415 0 l 415 -68 q 449 -85 433 -75 q 476 -111 465 -96 q 492 -145 488 -126 q 497 -182 497 -164 q 485 -235 497 -210 q 451 -278 474 -261 q 402 -300 429 -294 q 347 -306 375 -306 l 208 -306 z "},"":{"ha":694,"x_min":153,"x_max":443,"o":"m 310 449 l 310 1032 l 224 947 l 153 1008 l 310 1164 l 443 1164 l 443 449 l 310 449 z "},"":{"ha":694,"x_min":139,"x_max":556,"o":"m 347 440 q 292 445 319 440 q 240 462 265 450 q 195 493 215 474 q 162 537 175 513 q 144 588 149 561 q 139 643 139 615 l 139 760 q 144 815 139 788 q 162 866 149 842 q 195 910 175 890 q 240 941 215 929 q 292 958 265 953 q 347 963 319 963 q 402 958 375 963 q 454 941 429 953 q 499 910 479 929 q 533 866 519 890 q 551 815 546 842 q 556 760 556 788 l 556 643 q 551 588 556 615 q 533 537 546 561 q 499 493 519 513 q 454 462 479 474 q 402 445 429 450 q 347 440 375 440 m 347 553 q 380 560 364 553 q 406 580 396 567 q 419 610 415 593 q 422 643 422 626 l 422 760 q 419 793 422 776 q 406 823 415 810 q 380 843 396 836 q 347 850 364 850 q 315 843 331 850 q 289 823 299 836 q 276 793 279 810 q 272 760 272 776 l 272 643 q 276 610 272 626 q 289 580 279 593 q 315 560 299 567 q 347 553 331 553 m 147 258 l 147 347 l 547 347 l 547 258 l 147 258 z "},"":{"ha":694,"x_min":38,"x_max":654,"o":"m 417 118 l 304 156 q 382 324 336 242 q 492 472 428 406 q 382 621 428 539 q 304 789 336 703 l 417 826 q 460 734 436 779 q 513 647 483 689 q 577 569 542 606 q 654 503 613 532 l 654 442 q 577 376 613 413 q 513 297 542 339 q 460 210 483 256 q 417 118 436 165 m 150 118 l 38 156 q 115 324 69 242 q 225 472 161 406 q 115 621 161 539 q 38 789 69 703 l 150 826 q 193 734 169 779 q 246 647 217 689 q 310 569 275 606 q 388 503 346 532 l 388 442 q 310 376 346 413 q 246 297 275 339 q 193 210 217 256 q 150 118 169 165 z "},"":{"ha":694,"x_min":81,"x_max":614,"o":"m 81 426 l 81 518 l 614 518 l 614 426 l 81 426 m 310 617 l 310 1058 l 258 1003 l 193 1056 l 310 1178 l 432 1178 l 432 617 l 310 617 m 356 -233 l 356 -104 l 174 -104 l 174 0 l 350 328 l 464 328 l 288 0 l 356 0 l 356 82 l 478 82 l 478 0 l 517 0 l 517 -104 l 478 -104 l 478 -233 l 356 -233 z "},"":{"ha":694,"x_min":81,"x_max":614,"o":"m 81 426 l 81 518 l 614 518 l 614 426 l 81 426 m 310 617 l 310 1058 l 258 1003 l 193 1056 l 310 1178 l 432 1178 l 432 617 l 310 617 m 179 -233 l 179 -232 q 180 -185 179 -208 q 185 -137 181 -161 q 197 -91 189 -114 q 217 -48 206 -68 q 245 -9 229 -28 q 280 25 261 10 q 319 52 299 40 q 358 79 340 64 q 387 117 376 94 q 397 163 397 139 q 396 187 397 175 q 388 209 394 199 q 372 225 382 219 q 349 231 361 231 q 329 228 339 231 q 313 218 319 225 q 303 201 306 211 q 300 182 300 192 l 178 182 l 178 185 q 191 247 178 217 q 228 298 204 278 q 285 326 253 318 q 349 335 317 335 q 417 324 383 335 q 474 289 450 314 q 509 231 499 264 q 519 163 519 197 q 510 102 519 132 q 481 48 500 72 q 436 6 461 24 q 388 -33 411 -12 q 344 -77 364 -53 q 315 -131 325 -101 l 517 -131 l 517 -233 l 179 -233 z "},"":{"ha":694,"x_min":81,"x_max":614,"o":"m 81 426 l 81 518 l 614 518 l 614 426 l 81 426 m 350 611 q 285 618 317 611 q 226 645 253 625 q 185 696 200 665 q 171 760 171 726 l 171 764 l 293 764 l 293 763 q 298 742 293 751 q 310 726 303 732 q 328 717 318 719 q 350 714 339 714 q 374 718 363 714 q 392 731 385 722 q 403 751 400 739 q 407 774 407 763 q 400 807 407 790 q 379 834 393 824 q 349 847 365 844 q 314 850 332 850 l 314 954 q 344 957 329 954 q 372 970 360 960 q 389 995 383 981 q 394 1025 394 1010 q 392 1046 394 1036 q 385 1064 390 1056 q 369 1076 379 1072 q 350 1081 360 1081 q 332 1078 340 1081 q 317 1067 324 1075 q 308 1051 311 1060 q 306 1033 306 1042 l 306 1032 l 183 1032 l 183 1036 q 196 1098 183 1068 q 233 1148 208 1128 q 288 1176 257 1168 q 350 1185 318 1185 q 414 1175 382 1185 q 469 1144 446 1165 q 505 1091 493 1122 q 517 1028 517 1060 q 513 992 517 1010 q 499 957 508 974 q 478 927 490 940 q 450 904 465 914 q 483 881 468 894 q 508 849 497 867 q 524 812 518 832 q 529 772 529 792 q 516 706 529 738 q 477 651 503 674 q 418 620 451 629 q 350 611 385 611 m 356 -233 l 356 -104 l 174 -104 l 174 0 l 350 328 l 464 328 l 288 0 l 356 0 l 356 82 l 478 82 l 478 0 l 517 0 l 517 -104 l 478 -104 l 478 -233 l 356 -233 z "},"":{"ha":694,"x_min":81,"x_max":617,"o":"m 347 475 q 296 483 321 475 q 252 509 271 490 q 226 553 233 528 q 218 604 218 578 q 226 656 218 631 q 252 699 233 681 q 296 726 271 718 q 347 733 321 733 q 399 726 374 733 q 442 699 424 718 q 469 656 461 681 q 476 604 476 631 q 469 553 476 578 q 442 509 461 528 q 399 483 424 490 q 347 475 374 475 m 349 -310 q 278 -303 314 -310 q 212 -282 243 -297 q 155 -242 181 -267 q 113 -185 129 -217 q 88 -120 96 -154 q 81 -50 81 -86 q 86 8 81 -21 q 102 64 92 36 q 128 117 113 92 q 161 165 143 142 q 199 210 179 189 q 235 256 219 232 q 256 310 250 281 q 261 368 261 339 l 433 368 q 431 310 433 339 q 422 252 429 281 q 401 197 414 224 q 369 147 388 171 q 331 102 351 124 q 293 58 311 81 q 264 7 275 35 q 253 -50 253 -21 q 258 -92 253 -71 q 276 -129 264 -112 q 308 -155 288 -146 q 349 -164 328 -164 q 391 -153 371 -164 q 423 -124 411 -143 q 440 -83 435 -104 q 444 -39 444 -61 l 444 -32 l 617 -32 l 617 -46 q 609 -116 617 -81 q 585 -183 601 -151 q 543 -240 568 -214 q 486 -281 518 -265 q 419 -303 454 -297 q 349 -310 385 -310 z "},"":{"ha":694,"x_min":49,"x_max":646,"o":"m 49 0 l 249 1021 l 446 1021 l 646 0 l 469 0 l 436 215 l 258 215 l 225 0 l 49 0 m 414 361 l 364 681 q 356 734 360 707 q 347 788 351 761 q 339 734 343 761 q 331 681 335 707 l 281 361 l 414 361 m 367 1096 l 171 1283 l 281 1369 l 456 1168 l 367 1096 z "},"":{"ha":694,"x_min":49,"x_max":646,"o":"m 49 0 l 249 1021 l 446 1021 l 646 0 l 469 0 l 436 215 l 258 215 l 225 0 l 49 0 m 414 361 l 364 681 q 356 734 360 707 q 347 788 351 761 q 339 734 343 761 q 331 681 335 707 l 281 361 l 414 361 m 328 1096 l 239 1168 l 414 1369 l 524 1283 l 328 1096 z "},"":{"ha":694,"x_min":49,"x_max":646,"o":"m 49 0 l 249 1021 l 446 1021 l 646 0 l 469 0 l 436 215 l 258 215 l 225 0 l 49 0 m 414 361 l 364 681 q 356 734 360 707 q 347 788 351 761 q 339 734 343 761 q 331 681 335 707 l 281 361 l 414 361 m 478 1117 l 347 1265 l 217 1117 l 136 1169 l 263 1363 l 432 1363 l 558 1169 l 478 1117 z "},"":{"ha":694,"x_min":49,"x_max":646,"o":"m 49 0 l 249 1021 l 446 1021 l 646 0 l 469 0 l 436 215 l 258 215 l 225 0 l 49 0 m 414 361 l 364 681 q 356 734 360 707 q 347 788 351 761 q 339 734 343 761 q 331 681 335 707 l 281 361 l 414 361 m 426 1128 q 413 1128 419 1128 q 400 1131 407 1129 q 388 1133 393 1132 q 376 1138 382 1135 q 363 1144 369 1140 q 352 1151 357 1147 q 342 1158 347 1154 q 331 1167 336 1163 q 322 1176 326 1171 q 313 1185 317 1181 q 304 1194 308 1190 q 297 1203 300 1199 q 288 1215 293 1208 q 277 1226 282 1221 q 267 1235 272 1231 q 263 1242 263 1240 l 274 1242 q 269 1236 274 1239 q 261 1228 265 1233 q 256 1222 257 1224 q 252 1218 254 1221 q 248 1213 250 1215 q 244 1206 246 1210 q 239 1199 242 1203 q 233 1192 236 1196 q 228 1183 231 1188 q 224 1174 226 1179 q 217 1165 221 1169 q 211 1154 214 1160 q 206 1143 208 1149 q 199 1131 203 1138 l 79 1185 q 98 1219 89 1203 q 116 1250 107 1236 q 135 1276 125 1264 q 153 1298 144 1288 q 176 1320 163 1308 q 203 1340 189 1332 q 235 1352 218 1347 q 268 1357 251 1357 q 281 1356 275 1357 q 294 1354 288 1356 q 307 1351 301 1353 q 319 1346 313 1349 q 331 1340 325 1343 q 342 1334 338 1338 q 353 1326 347 1331 q 363 1317 358 1322 q 373 1308 368 1313 q 382 1299 378 1303 q 390 1290 386 1294 q 398 1281 394 1285 q 407 1269 401 1276 q 417 1258 413 1263 q 427 1249 422 1253 q 432 1243 432 1244 l 421 1243 q 425 1247 421 1244 q 433 1256 429 1250 q 439 1263 438 1261 q 442 1267 440 1264 q 447 1272 444 1269 q 451 1278 449 1275 q 456 1285 453 1282 q 461 1292 458 1289 q 466 1301 464 1296 q 471 1310 468 1306 q 477 1319 474 1314 q 483 1330 481 1325 q 489 1341 486 1335 q 496 1353 492 1347 l 615 1300 q 597 1265 606 1281 q 578 1235 588 1249 q 560 1208 569 1221 q 541 1186 550 1196 q 519 1165 532 1176 q 491 1145 506 1153 q 460 1133 476 1138 q 426 1128 443 1128 z "},"":{"ha":694,"x_min":49,"x_max":646,"o":"m 49 0 l 249 1021 l 446 1021 l 646 0 l 469 0 l 436 215 l 258 215 l 225 0 l 49 0 m 414 361 l 364 681 q 356 734 360 707 q 347 788 351 761 q 339 734 343 761 q 331 681 335 707 l 281 361 l 414 361 m 486 1126 q 445 1133 465 1126 q 410 1153 425 1139 q 390 1188 396 1168 q 383 1229 383 1208 q 390 1270 383 1250 q 410 1305 396 1290 q 445 1326 425 1319 q 486 1332 465 1332 q 527 1326 507 1332 q 562 1305 547 1319 q 583 1270 576 1290 q 589 1229 589 1250 q 583 1188 589 1208 q 562 1153 576 1168 q 527 1133 547 1139 q 486 1126 507 1126 m 208 1126 q 167 1133 188 1126 q 133 1153 147 1139 q 112 1188 118 1168 q 106 1229 106 1208 q 112 1270 106 1250 q 133 1305 118 1290 q 167 1326 147 1319 q 208 1332 188 1332 q 249 1326 229 1332 q 284 1305 269 1319 q 305 1270 299 1290 q 311 1229 311 1250 q 305 1188 311 1208 q 284 1153 299 1168 q 249 1133 269 1139 q 208 1126 229 1126 z "},"":{"ha":694,"x_min":49,"x_max":646,"o":"m 49 0 l 249 1021 l 446 1021 l 646 0 l 469 0 l 436 215 l 258 215 l 225 0 l 49 0 m 414 361 l 364 681 q 356 734 360 707 q 347 788 351 761 q 339 734 343 761 q 331 681 335 707 l 281 361 l 414 361 m 347 1088 q 292 1097 319 1088 q 244 1126 264 1106 q 215 1174 224 1146 q 206 1229 206 1201 q 215 1285 206 1257 q 244 1333 224 1313 q 292 1362 264 1353 q 347 1371 319 1371 q 403 1362 375 1371 q 451 1333 431 1353 q 480 1285 471 1313 q 489 1229 489 1257 q 480 1174 489 1201 q 451 1126 471 1146 q 403 1097 431 1106 q 347 1088 375 1088 m 347 1181 q 367 1183 357 1181 q 383 1193 376 1186 q 393 1210 390 1200 q 396 1229 396 1219 q 393 1249 396 1239 q 383 1265 390 1258 q 367 1275 376 1272 q 347 1278 357 1278 q 328 1275 338 1278 q 311 1265 318 1272 q 301 1249 304 1258 q 299 1229 299 1239 q 301 1210 299 1219 q 311 1193 304 1200 q 328 1183 318 1186 q 347 1181 338 1181 z "},"":{"ha":694,"x_min":33,"x_max":640,"o":"m 33 0 l 238 1021 l 640 1021 l 640 875 l 457 875 l 457 604 l 610 604 l 610 458 l 457 458 l 457 146 l 640 146 l 640 0 l 311 0 l 311 238 l 222 238 l 179 0 l 33 0 m 311 361 l 311 726 q 306 703 308 715 q 303 681 304 692 l 244 361 l 311 361 z "},"":{"ha":694,"x_min":69,"x_max":617,"o":"m 343 -11 q 266 -3 304 -11 q 194 25 228 6 q 136 75 161 44 q 96 141 111 106 q 75 215 81 176 q 69 292 69 253 l 69 729 q 75 806 69 768 q 96 880 81 844 q 136 946 111 915 q 194 996 161 976 q 266 1024 228 1015 q 343 1032 304 1032 q 415 1026 379 1032 q 483 1003 451 1019 q 542 960 515 986 q 585 902 568 935 q 609 834 601 869 q 617 763 617 799 l 617 754 l 444 754 l 444 758 q 439 803 444 781 q 421 846 433 826 q 388 876 408 865 q 343 886 367 886 q 308 880 325 886 q 280 860 292 874 q 260 831 268 847 q 249 799 253 815 q 243 764 244 782 q 242 729 242 746 l 242 292 q 243 257 242 275 q 249 222 244 239 q 260 190 253 206 q 280 160 268 174 q 308 141 292 147 q 343 135 325 135 q 388 145 367 135 q 421 175 408 156 q 439 217 433 194 q 444 263 444 240 l 444 267 l 617 267 l 617 258 q 609 187 617 222 q 585 119 601 151 q 542 60 568 86 q 483 18 515 35 q 415 -5 451 1 q 343 -11 379 -11 m 208 -306 l 208 -190 l 347 -190 q 363 -189 356 -190 q 378 -185 371 -187 q 390 -175 385 -182 q 394 -160 394 -168 q 391 -142 394 -151 q 381 -128 388 -133 q 365 -120 374 -122 q 347 -118 356 -118 l 279 -118 l 279 135 l 415 135 l 415 -68 q 449 -85 433 -75 q 476 -111 465 -96 q 492 -145 488 -126 q 497 -182 497 -164 q 485 -235 497 -210 q 451 -278 474 -261 q 402 -300 429 -294 q 347 -306 375 -306 l 208 -306 z "},"":{"ha":694,"x_min":92,"x_max":614,"o":"m 92 0 l 92 1021 l 614 1021 l 614 875 l 264 875 l 264 604 l 533 604 l 533 458 l 264 458 l 264 146 l 614 146 l 614 0 l 92 0 m 367 1096 l 171 1283 l 281 1369 l 456 1168 l 367 1096 z "},"":{"ha":694,"x_min":92,"x_max":614,"o":"m 92 0 l 92 1021 l 614 1021 l 614 875 l 264 875 l 264 604 l 533 604 l 533 458 l 264 458 l 264 146 l 614 146 l 614 0 l 92 0 m 328 1096 l 239 1168 l 414 1369 l 524 1283 l 328 1096 z "},"":{"ha":694,"x_min":92,"x_max":614,"o":"m 92 0 l 92 1021 l 614 1021 l 614 875 l 264 875 l 264 604 l 533 604 l 533 458 l 264 458 l 264 146 l 614 146 l 614 0 l 92 0 m 478 1117 l 347 1265 l 217 1117 l 136 1169 l 263 1363 l 432 1363 l 558 1169 l 478 1117 z "},"":{"ha":694,"x_min":92,"x_max":614,"o":"m 92 0 l 92 1021 l 614 1021 l 614 875 l 264 875 l 264 604 l 533 604 l 533 458 l 264 458 l 264 146 l 614 146 l 614 0 l 92 0 m 486 1126 q 445 1133 465 1126 q 410 1153 425 1139 q 390 1188 396 1168 q 383 1229 383 1208 q 390 1270 383 1250 q 410 1305 396 1290 q 445 1326 425 1319 q 486 1332 465 1332 q 527 1326 507 1332 q 562 1305 547 1319 q 583 1270 576 1290 q 589 1229 589 1250 q 583 1188 589 1208 q 562 1153 576 1168 q 527 1133 547 1139 q 486 1126 507 1126 m 208 1126 q 167 1133 188 1126 q 133 1153 147 1139 q 112 1188 118 1168 q 106 1229 106 1208 q 112 1270 106 1250 q 133 1305 118 1290 q 167 1326 147 1319 q 208 1332 188 1332 q 249 1326 229 1332 q 284 1305 269 1319 q 305 1270 299 1290 q 311 1229 311 1250 q 305 1188 311 1208 q 284 1153 299 1168 q 249 1133 269 1139 q 208 1126 229 1126 z "},"":{"ha":694,"x_min":104,"x_max":590,"o":"m 104 0 l 104 146 l 261 146 l 261 875 l 104 875 l 104 1021 l 590 1021 l 590 875 l 433 875 l 433 146 l 590 146 l 590 0 l 104 0 m 367 1096 l 171 1283 l 281 1369 l 456 1168 l 367 1096 z "},"":{"ha":694,"x_min":104,"x_max":590,"o":"m 104 0 l 104 146 l 261 146 l 261 875 l 104 875 l 104 1021 l 590 1021 l 590 875 l 433 875 l 433 146 l 590 146 l 590 0 l 104 0 m 328 1096 l 239 1168 l 414 1369 l 524 1283 l 328 1096 z "},"":{"ha":694,"x_min":104,"x_max":590,"o":"m 104 0 l 104 146 l 261 146 l 261 875 l 104 875 l 104 1021 l 590 1021 l 590 875 l 433 875 l 433 146 l 590 146 l 590 0 l 104 0 m 478 1117 l 347 1265 l 217 1117 l 136 1169 l 263 1363 l 432 1363 l 558 1169 l 478 1117 z "},"":{"ha":694,"x_min":104,"x_max":590,"o":"m 104 0 l 104 146 l 261 146 l 261 875 l 104 875 l 104 1021 l 590 1021 l 590 875 l 433 875 l 433 146 l 590 146 l 590 0 l 104 0 m 486 1126 q 445 1133 465 1126 q 410 1153 425 1139 q 390 1188 396 1168 q 383 1229 383 1208 q 390 1270 383 1250 q 410 1305 396 1290 q 445 1326 425 1319 q 486 1332 465 1332 q 527 1326 507 1332 q 562 1305 547 1319 q 583 1270 576 1290 q 589 1229 589 1250 q 583 1188 589 1208 q 562 1153 576 1168 q 527 1133 547 1139 q 486 1126 507 1126 m 208 1126 q 167 1133 188 1126 q 133 1153 147 1139 q 112 1188 118 1168 q 106 1229 106 1208 q 112 1270 106 1250 q 133 1305 118 1290 q 167 1326 147 1319 q 208 1332 188 1332 q 249 1326 229 1332 q 284 1305 269 1319 q 305 1270 299 1290 q 311 1229 311 1250 q 305 1188 311 1208 q 284 1153 299 1168 q 249 1133 269 1139 q 208 1126 229 1126 z "},"":{"ha":694,"x_min":24,"x_max":625,"o":"m 81 0 l 81 457 l 24 457 l 24 564 l 81 564 l 81 1021 l 293 1021 q 380 1014 336 1021 q 463 988 424 1007 q 535 939 503 969 q 588 869 568 908 q 617 787 608 831 q 625 700 625 743 l 625 321 q 617 234 625 278 q 588 151 608 190 q 535 82 568 113 q 463 33 503 51 q 380 7 424 14 q 293 0 336 0 l 81 0 m 253 146 l 293 146 q 338 151 315 146 q 379 167 360 156 q 413 195 399 178 q 437 233 428 213 q 449 276 446 254 q 453 321 453 299 l 453 700 q 449 744 453 722 q 437 788 446 767 q 413 826 428 808 q 379 854 399 843 q 338 870 360 865 q 293 875 315 875 l 253 875 l 253 564 l 367 564 l 367 457 l 253 457 l 253 146 z "},"":{"ha":694,"x_min":79,"x_max":615,"o":"m 81 0 l 81 1021 l 246 1021 l 460 357 q 446 485 450 421 q 442 613 442 549 l 442 1021 l 614 1021 l 614 0 l 449 0 l 235 664 q 249 536 244 600 q 253 408 253 472 l 253 0 l 81 0 m 426 1128 q 413 1128 419 1128 q 400 1131 407 1129 q 388 1133 393 1132 q 376 1138 382 1135 q 363 1144 369 1140 q 352 1151 357 1147 q 342 1158 347 1154 q 331 1167 336 1163 q 322 1176 326 1171 q 313 1185 317 1181 q 304 1194 308 1190 q 297 1203 300 1199 q 288 1215 293 1208 q 277 1226 282 1221 q 267 1235 272 1231 q 263 1242 263 1240 l 274 1242 q 269 1236 274 1239 q 261 1228 265 1233 q 256 1222 257 1224 q 252 1218 254 1221 q 248 1213 250 1215 q 244 1206 246 1210 q 239 1199 242 1203 q 233 1192 236 1196 q 228 1183 231 1188 q 224 1174 226 1179 q 217 1165 221 1169 q 211 1154 214 1160 q 206 1143 208 1149 q 199 1131 203 1138 l 79 1185 q 98 1219 89 1203 q 116 1250 107 1236 q 135 1276 125 1264 q 153 1298 144 1288 q 176 1320 163 1308 q 203 1340 189 1332 q 235 1352 218 1347 q 268 1357 251 1357 q 281 1356 275 1357 q 294 1354 288 1356 q 307 1351 301 1353 q 319 1346 313 1349 q 331 1340 325 1343 q 342 1334 338 1338 q 353 1326 347 1331 q 363 1317 358 1322 q 373 1308 368 1313 q 382 1299 378 1303 q 390 1290 386 1294 q 398 1281 394 1285 q 407 1269 401 1276 q 417 1258 413 1263 q 427 1249 422 1253 q 432 1243 432 1244 l 421 1243 q 425 1247 421 1244 q 433 1256 429 1250 q 439 1263 438 1261 q 442 1267 440 1264 q 447 1272 444 1269 q 451 1278 449 1275 q 456 1285 453 1282 q 461 1292 458 1289 q 466 1301 464 1296 q 471 1310 468 1306 q 477 1319 474 1314 q 483 1330 481 1325 q 489 1341 486 1335 q 496 1353 492 1347 l 615 1300 q 597 1265 606 1281 q 578 1235 588 1249 q 560 1208 569 1221 q 541 1186 550 1196 q 519 1165 532 1176 q 491 1145 506 1153 q 460 1133 476 1138 q 426 1128 443 1128 z "},"":{"ha":694,"x_min":69,"x_max":625,"o":"m 347 -11 q 269 -3 308 -11 q 197 24 231 4 q 138 74 164 44 q 97 140 113 104 q 75 214 81 175 q 69 292 69 253 l 69 729 q 75 807 69 768 q 97 881 81 846 q 138 947 113 917 q 197 997 164 976 q 269 1024 231 1017 q 347 1032 308 1032 q 425 1024 386 1032 q 497 997 464 1017 q 556 947 531 976 q 598 881 582 917 q 619 807 614 846 q 625 729 625 768 l 625 292 q 619 214 625 253 q 598 140 614 175 q 556 74 582 104 q 497 24 531 44 q 425 -3 464 4 q 347 -11 386 -11 m 347 135 q 382 141 365 135 q 412 160 399 147 q 433 188 425 172 q 445 222 440 204 q 451 257 450 239 q 453 292 453 275 l 453 729 q 451 764 453 746 q 445 799 450 782 q 433 833 440 817 q 412 861 425 849 q 382 880 399 874 q 347 886 365 886 q 313 880 329 886 q 283 861 296 874 q 262 833 269 849 q 249 799 254 817 q 243 764 244 782 q 242 729 242 746 l 242 292 q 243 257 242 275 q 249 222 244 239 q 262 188 254 204 q 283 160 269 172 q 313 141 296 147 q 347 135 329 135 m 367 1096 l 171 1283 l 281 1369 l 456 1168 l 367 1096 z "},"":{"ha":694,"x_min":69,"x_max":625,"o":"m 347 -11 q 269 -3 308 -11 q 197 24 231 4 q 138 74 164 44 q 97 140 113 104 q 75 214 81 175 q 69 292 69 253 l 69 729 q 75 807 69 768 q 97 881 81 846 q 138 947 113 917 q 197 997 164 976 q 269 1024 231 1017 q 347 1032 308 1032 q 425 1024 386 1032 q 497 997 464 1017 q 556 947 531 976 q 598 881 582 917 q 619 807 614 846 q 625 729 625 768 l 625 292 q 619 214 625 253 q 598 140 614 175 q 556 74 582 104 q 497 24 531 44 q 425 -3 464 4 q 347 -11 386 -11 m 347 135 q 382 141 365 135 q 412 160 399 147 q 433 188 425 172 q 445 222 440 204 q 451 257 450 239 q 453 292 453 275 l 453 729 q 451 764 453 746 q 445 799 450 782 q 433 833 440 817 q 412 861 425 849 q 382 880 399 874 q 347 886 365 886 q 313 880 329 886 q 283 861 296 874 q 262 833 269 849 q 249 799 254 817 q 243 764 244 782 q 242 729 242 746 l 242 292 q 243 257 242 275 q 249 222 244 239 q 262 188 254 204 q 283 160 269 172 q 313 141 296 147 q 347 135 329 135 m 328 1096 l 239 1168 l 414 1369 l 524 1283 l 328 1096 z "},"":{"ha":694,"x_min":69,"x_max":625,"o":"m 347 -11 q 269 -3 308 -11 q 197 24 231 4 q 138 74 164 44 q 97 140 113 104 q 75 214 81 175 q 69 292 69 253 l 69 729 q 75 807 69 768 q 97 881 81 846 q 138 947 113 917 q 197 997 164 976 q 269 1024 231 1017 q 347 1032 308 1032 q 425 1024 386 1032 q 497 997 464 1017 q 556 947 531 976 q 598 881 582 917 q 619 807 614 846 q 625 729 625 768 l 625 292 q 619 214 625 253 q 598 140 614 175 q 556 74 582 104 q 497 24 531 44 q 425 -3 464 4 q 347 -11 386 -11 m 347 135 q 382 141 365 135 q 412 160 399 147 q 433 188 425 172 q 445 222 440 204 q 451 257 450 239 q 453 292 453 275 l 453 729 q 451 764 453 746 q 445 799 450 782 q 433 833 440 817 q 412 861 425 849 q 382 880 399 874 q 347 886 365 886 q 313 880 329 886 q 283 861 296 874 q 262 833 269 849 q 249 799 254 817 q 243 764 244 782 q 242 729 242 746 l 242 292 q 243 257 242 275 q 249 222 244 239 q 262 188 254 204 q 283 160 269 172 q 313 141 296 147 q 347 135 329 135 m 478 1117 l 347 1265 l 217 1117 l 136 1169 l 263 1363 l 432 1363 l 558 1169 l 478 1117 z "},"":{"ha":694,"x_min":69,"x_max":625,"o":"m 347 -11 q 269 -3 308 -11 q 197 24 231 4 q 138 74 164 44 q 97 140 113 104 q 75 214 81 175 q 69 292 69 253 l 69 729 q 75 807 69 768 q 97 881 81 846 q 138 947 113 917 q 197 997 164 976 q 269 1024 231 1017 q 347 1032 308 1032 q 425 1024 386 1032 q 497 997 464 1017 q 556 947 531 976 q 598 881 582 917 q 619 807 614 846 q 625 729 625 768 l 625 292 q 619 214 625 253 q 598 140 614 175 q 556 74 582 104 q 497 24 531 44 q 425 -3 464 4 q 347 -11 386 -11 m 347 135 q 382 141 365 135 q 412 160 399 147 q 433 188 425 172 q 445 222 440 204 q 451 257 450 239 q 453 292 453 275 l 453 729 q 451 764 453 746 q 445 799 450 782 q 433 833 440 817 q 412 861 425 849 q 382 880 399 874 q 347 886 365 886 q 313 880 329 886 q 283 861 296 874 q 262 833 269 849 q 249 799 254 817 q 243 764 244 782 q 242 729 242 746 l 242 292 q 243 257 242 275 q 249 222 244 239 q 262 188 254 204 q 283 160 269 172 q 313 141 296 147 q 347 135 329 135 m 426 1128 q 413 1128 419 1128 q 400 1131 407 1129 q 388 1133 393 1132 q 376 1138 382 1135 q 363 1144 369 1140 q 352 1151 357 1147 q 342 1158 347 1154 q 331 1167 336 1163 q 322 1176 326 1171 q 313 1185 317 1181 q 304 1194 308 1190 q 297 1203 300 1199 q 288 1215 293 1208 q 277 1226 282 1221 q 267 1235 272 1231 q 263 1242 263 1240 l 274 1242 q 269 1236 274 1239 q 261 1228 265 1233 q 256 1222 257 1224 q 252 1218 254 1221 q 248 1213 250 1215 q 244 1206 246 1210 q 239 1199 242 1203 q 233 1192 236 1196 q 228 1183 231 1188 q 224 1174 226 1179 q 217 1165 221 1169 q 211 1154 214 1160 q 206 1143 208 1149 q 199 1131 203 1138 l 79 1185 q 98 1219 89 1203 q 116 1250 107 1236 q 135 1276 125 1264 q 153 1298 144 1288 q 176 1320 163 1308 q 203 1340 189 1332 q 235 1352 218 1347 q 268 1357 251 1357 q 281 1356 275 1357 q 294 1354 288 1356 q 307 1351 301 1353 q 319 1346 313 1349 q 331 1340 325 1343 q 342 1334 338 1338 q 353 1326 347 1331 q 363 1317 358 1322 q 373 1308 368 1313 q 382 1299 378 1303 q 390 1290 386 1294 q 398 1281 394 1285 q 407 1269 401 1276 q 417 1258 413 1263 q 427 1249 422 1253 q 432 1243 432 1244 l 421 1243 q 425 1247 421 1244 q 433 1256 429 1250 q 439 1263 438 1261 q 442 1267 440 1264 q 447 1272 444 1269 q 451 1278 449 1275 q 456 1285 453 1282 q 461 1292 458 1289 q 466 1301 464 1296 q 471 1310 468 1306 q 477 1319 474 1314 q 483 1330 481 1325 q 489 1341 486 1335 q 496 1353 492 1347 l 615 1300 q 597 1265 606 1281 q 578 1235 588 1249 q 560 1208 569 1221 q 541 1186 550 1196 q 519 1165 532 1176 q 491 1145 506 1153 q 460 1133 476 1138 q 426 1128 443 1128 z "},"":{"ha":694,"x_min":69,"x_max":625,"o":"m 347 -11 q 269 -3 308 -11 q 197 24 231 4 q 138 74 164 44 q 97 140 113 104 q 75 214 81 175 q 69 292 69 253 l 69 729 q 75 807 69 768 q 97 881 81 846 q 138 947 113 917 q 197 997 164 976 q 269 1024 231 1017 q 347 1032 308 1032 q 425 1024 386 1032 q 497 997 464 1017 q 556 947 531 976 q 598 881 582 917 q 619 807 614 846 q 625 729 625 768 l 625 292 q 619 214 625 253 q 598 140 614 175 q 556 74 582 104 q 497 24 531 44 q 425 -3 464 4 q 347 -11 386 -11 m 347 135 q 382 141 365 135 q 412 160 399 147 q 433 188 425 172 q 445 222 440 204 q 451 257 450 239 q 453 292 453 275 l 453 729 q 451 764 453 746 q 445 799 450 782 q 433 833 440 817 q 412 861 425 849 q 382 880 399 874 q 347 886 365 886 q 313 880 329 886 q 283 861 296 874 q 262 833 269 849 q 249 799 254 817 q 243 764 244 782 q 242 729 242 746 l 242 292 q 243 257 242 275 q 249 222 244 239 q 262 188 254 204 q 283 160 269 172 q 313 141 296 147 q 347 135 329 135 m 486 1126 q 445 1133 465 1126 q 410 1153 425 1139 q 390 1188 396 1168 q 383 1229 383 1208 q 390 1270 383 1250 q 410 1305 396 1290 q 445 1326 425 1319 q 486 1332 465 1332 q 527 1326 507 1332 q 562 1305 547 1319 q 583 1270 576 1290 q 589 1229 589 1250 q 583 1188 589 1208 q 562 1153 576 1168 q 527 1133 547 1139 q 486 1126 507 1126 m 208 1126 q 167 1133 188 1126 q 133 1153 147 1139 q 112 1188 118 1168 q 106 1229 106 1208 q 112 1270 106 1250 q 133 1305 118 1290 q 167 1326 147 1319 q 208 1332 188 1332 q 249 1326 229 1332 q 284 1305 269 1319 q 305 1270 299 1290 q 311 1229 311 1250 q 305 1188 311 1208 q 284 1153 299 1168 q 249 1133 269 1139 q 208 1126 229 1126 z "},"":{"ha":694,"x_min":7,"x_max":688,"o":"m 581 140 l 347 374 l 114 140 l 7 231 l 249 472 l 7 714 l 114 804 l 347 571 l 581 804 l 688 714 l 446 472 l 688 231 l 581 140 z "},"":{"ha":694,"x_min":64,"x_max":631,"o":"m 182 -71 l 64 -31 l 117 101 q 94 146 104 122 q 79 193 85 169 q 72 242 74 217 q 69 292 69 267 l 69 729 q 75 807 69 768 q 97 881 81 846 q 138 947 113 917 q 197 997 164 976 q 269 1024 231 1017 q 347 1032 308 1032 q 414 1026 381 1032 q 478 1007 447 1021 l 513 1092 l 631 1051 l 578 919 q 600 875 590 899 q 615 828 610 851 q 623 779 621 804 q 625 729 625 754 l 625 292 q 619 214 625 253 q 598 140 614 175 q 556 74 582 104 q 497 24 531 44 q 425 -3 464 4 q 347 -11 386 -11 q 281 -6 314 -11 q 217 14 247 0 l 182 -71 m 242 414 l 418 854 q 385 878 404 869 q 347 886 367 886 q 313 880 329 886 q 283 861 296 874 q 262 833 269 849 q 249 799 254 817 q 243 764 244 782 q 242 729 242 746 l 242 414 m 347 135 q 382 141 365 135 q 412 160 399 147 q 433 188 425 172 q 445 222 440 204 q 451 257 450 239 q 453 292 453 275 l 453 607 l 276 167 q 309 143 290 151 q 347 135 328 135 z "},"":{"ha":694,"x_min":81,"x_max":614,"o":"m 347 -11 q 271 -3 308 -11 q 201 26 233 6 q 144 76 168 46 q 106 142 119 107 q 86 216 92 178 q 81 292 81 254 l 81 1021 l 253 1021 l 253 292 q 254 258 253 275 q 259 224 256 240 q 269 191 263 207 q 288 162 276 175 q 315 142 299 149 q 347 135 331 135 q 380 142 364 135 q 407 162 396 149 q 425 191 418 175 q 435 224 432 207 q 440 258 439 240 q 442 292 442 275 l 442 1021 l 614 1021 l 614 292 q 608 216 614 254 q 589 142 603 178 q 551 76 575 107 q 494 26 526 46 q 424 -3 461 6 q 347 -11 386 -11 m 367 1096 l 171 1283 l 281 1369 l 456 1168 l 367 1096 z "},"":{"ha":694,"x_min":81,"x_max":614,"o":"m 347 -11 q 271 -3 308 -11 q 201 26 233 6 q 144 76 168 46 q 106 142 119 107 q 86 216 92 178 q 81 292 81 254 l 81 1021 l 253 1021 l 253 292 q 254 258 253 275 q 259 224 256 240 q 269 191 263 207 q 288 162 276 175 q 315 142 299 149 q 347 135 331 135 q 380 142 364 135 q 407 162 396 149 q 425 191 418 175 q 435 224 432 207 q 440 258 439 240 q 442 292 442 275 l 442 1021 l 614 1021 l 614 292 q 608 216 614 254 q 589 142 603 178 q 551 76 575 107 q 494 26 526 46 q 424 -3 461 6 q 347 -11 386 -11 m 328 1096 l 239 1168 l 414 1369 l 524 1283 l 328 1096 z "},"":{"ha":694,"x_min":81,"x_max":614,"o":"m 347 -11 q 271 -3 308 -11 q 201 26 233 6 q 144 76 168 46 q 106 142 119 107 q 86 216 92 178 q 81 292 81 254 l 81 1021 l 253 1021 l 253 292 q 254 258 253 275 q 259 224 256 240 q 269 191 263 207 q 288 162 276 175 q 315 142 299 149 q 347 135 331 135 q 380 142 364 135 q 407 162 396 149 q 425 191 418 175 q 435 224 432 207 q 440 258 439 240 q 442 292 442 275 l 442 1021 l 614 1021 l 614 292 q 608 216 614 254 q 589 142 603 178 q 551 76 575 107 q 494 26 526 46 q 424 -3 461 6 q 347 -11 386 -11 m 478 1117 l 347 1265 l 217 1117 l 136 1169 l 263 1363 l 432 1363 l 558 1169 l 478 1117 z "},"":{"ha":694,"x_min":81,"x_max":614,"o":"m 347 -11 q 271 -3 308 -11 q 201 26 233 6 q 144 76 168 46 q 106 142 119 107 q 86 216 92 178 q 81 292 81 254 l 81 1021 l 253 1021 l 253 292 q 254 258 253 275 q 259 224 256 240 q 269 191 263 207 q 288 162 276 175 q 315 142 299 149 q 347 135 331 135 q 380 142 364 135 q 407 162 396 149 q 425 191 418 175 q 435 224 432 207 q 440 258 439 240 q 442 292 442 275 l 442 1021 l 614 1021 l 614 292 q 608 216 614 254 q 589 142 603 178 q 551 76 575 107 q 494 26 526 46 q 424 -3 461 6 q 347 -11 386 -11 m 486 1126 q 445 1133 465 1126 q 410 1153 425 1139 q 390 1188 396 1168 q 383 1229 383 1208 q 390 1270 383 1250 q 410 1305 396 1290 q 445 1326 425 1319 q 486 1332 465 1332 q 527 1326 507 1332 q 562 1305 547 1319 q 583 1270 576 1290 q 589 1229 589 1250 q 583 1188 589 1208 q 562 1153 576 1168 q 527 1133 547 1139 q 486 1126 507 1126 m 208 1126 q 167 1133 188 1126 q 133 1153 147 1139 q 112 1188 118 1168 q 106 1229 106 1208 q 112 1270 106 1250 q 133 1305 118 1290 q 167 1326 147 1319 q 208 1332 188 1332 q 249 1326 229 1332 q 284 1305 269 1319 q 305 1270 299 1290 q 311 1229 311 1250 q 305 1188 311 1208 q 284 1153 299 1168 q 249 1133 269 1139 q 208 1126 229 1126 z "},"":{"ha":694,"x_min":42,"x_max":653,"o":"m 261 0 l 261 435 l 42 1021 l 225 1021 l 347 642 l 469 1021 l 653 1021 l 433 435 l 433 0 l 261 0 m 328 1096 l 239 1168 l 414 1369 l 524 1283 l 328 1096 z "},"":{"ha":694,"x_min":101,"x_max":625,"o":"m 101 0 l 101 1021 l 272 1021 l 272 826 l 297 826 q 383 819 340 826 q 465 794 426 813 q 536 746 504 776 q 589 677 568 715 q 617 597 610 639 q 625 511 625 554 q 617 424 625 467 q 589 344 610 382 q 536 275 568 306 q 465 226 504 244 q 383 201 426 208 q 297 194 340 194 l 272 194 l 272 0 l 101 0 m 272 340 l 297 340 q 362 351 331 340 q 415 388 393 363 q 444 445 436 413 q 453 511 453 478 q 444 576 453 543 q 415 633 436 608 q 362 669 393 658 q 297 681 331 681 l 272 681 l 272 340 z "},"":{"ha":694,"x_min":81,"x_max":625,"o":"m 289 0 l 289 146 q 351 153 319 146 q 406 181 382 161 q 442 231 431 200 q 453 292 453 261 q 442 353 453 322 q 406 403 431 383 q 351 430 382 422 q 289 438 319 438 l 289 583 q 344 598 318 583 q 388 637 371 613 q 412 690 404 661 q 419 747 419 718 q 418 777 419 763 q 413 806 417 792 q 403 835 410 821 q 388 861 397 850 q 365 879 379 872 q 336 886 351 886 q 304 877 319 886 q 280 853 289 868 q 266 823 271 839 q 258 790 261 807 q 253 756 254 774 q 253 722 253 739 l 253 0 l 81 0 l 81 722 q 85 798 81 760 q 103 872 90 836 q 139 938 117 907 q 192 992 161 969 q 261 1023 224 1014 q 336 1032 299 1032 q 408 1024 372 1032 q 474 997 443 1017 q 527 949 504 978 q 564 888 550 921 q 585 820 578 856 q 592 749 592 785 q 586 688 592 718 q 570 631 581 658 q 543 577 560 603 q 506 531 526 551 q 558 485 535 511 q 597 427 582 458 q 619 361 613 396 q 625 292 625 326 q 616 208 625 250 q 584 131 607 167 q 527 69 561 96 q 454 27 493 43 q 373 6 415 11 q 289 0 331 0 z "},"":{"ha":694,"x_min":69,"x_max":614,"o":"m 267 -11 q 185 3 225 -11 q 119 48 146 17 q 81 119 92 79 q 69 201 69 160 q 78 274 69 238 q 109 341 88 311 q 162 392 131 371 q 228 424 193 413 q 301 440 264 436 q 374 444 338 444 l 442 444 l 442 485 q 436 524 442 504 q 417 559 431 544 q 385 581 404 574 q 346 588 365 588 q 310 583 328 588 q 279 568 293 579 q 258 541 265 557 q 250 507 250 525 l 250 504 l 78 504 l 78 511 q 87 576 78 544 q 115 635 96 608 q 160 681 133 661 q 217 713 188 701 q 280 729 247 725 q 346 733 313 733 q 415 728 381 733 q 481 708 450 722 q 539 672 513 694 q 583 618 565 649 q 607 553 600 588 q 614 485 614 519 l 614 0 l 442 0 l 442 111 q 415 61 432 85 q 374 21 397 38 q 323 -3 351 4 q 267 -11 294 -11 m 342 135 q 383 143 363 135 q 418 168 404 151 q 437 206 432 185 q 442 250 442 228 l 442 299 l 374 299 q 345 298 360 299 q 316 294 331 297 q 288 285 301 290 q 264 269 275 279 q 247 246 253 260 q 242 218 242 232 q 249 182 242 199 q 272 154 257 165 q 304 139 286 143 q 342 135 322 135 m 367 797 l 171 985 l 281 1071 l 456 869 l 367 797 z "},"":{"ha":694,"x_min":69,"x_max":614,"o":"m 267 -11 q 185 3 225 -11 q 119 48 146 17 q 81 119 92 79 q 69 201 69 160 q 78 274 69 238 q 109 341 88 311 q 162 392 131 371 q 228 424 193 413 q 301 440 264 436 q 374 444 338 444 l 442 444 l 442 485 q 436 524 442 504 q 417 559 431 544 q 385 581 404 574 q 346 588 365 588 q 310 583 328 588 q 279 568 293 579 q 258 541 265 557 q 250 507 250 525 l 250 504 l 78 504 l 78 511 q 87 576 78 544 q 115 635 96 608 q 160 681 133 661 q 217 713 188 701 q 280 729 247 725 q 346 733 313 733 q 415 728 381 733 q 481 708 450 722 q 539 672 513 694 q 583 618 565 649 q 607 553 600 588 q 614 485 614 519 l 614 0 l 442 0 l 442 111 q 415 61 432 85 q 374 21 397 38 q 323 -3 351 4 q 267 -11 294 -11 m 342 135 q 383 143 363 135 q 418 168 404 151 q 437 206 432 185 q 442 250 442 228 l 442 299 l 374 299 q 345 298 360 299 q 316 294 331 297 q 288 285 301 290 q 264 269 275 279 q 247 246 253 260 q 242 218 242 232 q 249 182 242 199 q 272 154 257 165 q 304 139 286 143 q 342 135 322 135 m 328 797 l 239 869 l 414 1071 l 524 985 l 328 797 z "},"":{"ha":694,"x_min":69,"x_max":614,"o":"m 267 -11 q 185 3 225 -11 q 119 48 146 17 q 81 119 92 79 q 69 201 69 160 q 78 274 69 238 q 109 341 88 311 q 162 392 131 371 q 228 424 193 413 q 301 440 264 436 q 374 444 338 444 l 442 444 l 442 485 q 436 524 442 504 q 417 559 431 544 q 385 581 404 574 q 346 588 365 588 q 310 583 328 588 q 279 568 293 579 q 258 541 265 557 q 250 507 250 525 l 250 504 l 78 504 l 78 511 q 87 576 78 544 q 115 635 96 608 q 160 681 133 661 q 217 713 188 701 q 280 729 247 725 q 346 733 313 733 q 415 728 381 733 q 481 708 450 722 q 539 672 513 694 q 583 618 565 649 q 607 553 600 588 q 614 485 614 519 l 614 0 l 442 0 l 442 111 q 415 61 432 85 q 374 21 397 38 q 323 -3 351 4 q 267 -11 294 -11 m 342 135 q 383 143 363 135 q 418 168 404 151 q 437 206 432 185 q 442 250 442 228 l 442 299 l 374 299 q 345 298 360 299 q 316 294 331 297 q 288 285 301 290 q 264 269 275 279 q 247 246 253 260 q 242 218 242 232 q 249 182 242 199 q 272 154 257 165 q 304 139 286 143 q 342 135 322 135 m 478 818 l 347 967 l 217 818 l 136 871 l 263 1064 l 432 1064 l 558 871 l 478 818 z "},"":{"ha":694,"x_min":69,"x_max":615,"o":"m 267 -11 q 185 3 225 -11 q 119 48 146 17 q 81 119 92 79 q 69 201 69 160 q 78 274 69 238 q 109 341 88 311 q 162 392 131 371 q 228 424 193 413 q 301 440 264 436 q 374 444 338 444 l 442 444 l 442 485 q 436 524 442 504 q 417 559 431 544 q 385 581 404 574 q 346 588 365 588 q 310 583 328 588 q 279 568 293 579 q 258 541 265 557 q 250 507 250 525 l 250 504 l 78 504 l 78 511 q 87 576 78 544 q 115 635 96 608 q 160 681 133 661 q 217 713 188 701 q 280 729 247 725 q 346 733 313 733 q 415 728 381 733 q 481 708 450 722 q 539 672 513 694 q 583 618 565 649 q 607 553 600 588 q 614 485 614 519 l 614 0 l 442 0 l 442 111 q 415 61 432 85 q 374 21 397 38 q 323 -3 351 4 q 267 -11 294 -11 m 342 135 q 383 143 363 135 q 418 168 404 151 q 437 206 432 185 q 442 250 442 228 l 442 299 l 374 299 q 345 298 360 299 q 316 294 331 297 q 288 285 301 290 q 264 269 275 279 q 247 246 253 260 q 242 218 242 232 q 249 182 242 199 q 272 154 257 165 q 304 139 286 143 q 342 135 322 135 m 426 829 q 413 830 419 829 q 400 832 407 831 q 388 835 393 833 q 376 839 382 836 q 363 845 369 842 q 352 852 357 849 q 342 860 347 856 q 331 868 336 864 q 322 877 326 872 q 313 887 317 882 q 304 896 308 892 q 297 905 300 900 q 288 916 293 910 q 277 927 282 922 q 267 937 272 932 q 263 943 263 942 l 274 943 q 269 938 274 940 q 261 930 265 935 q 256 924 257 925 q 252 919 254 922 q 248 914 250 917 q 244 908 246 911 q 239 901 242 904 q 233 893 236 897 q 228 885 231 889 q 224 876 226 881 q 217 866 221 871 q 211 856 214 861 q 206 844 208 850 q 199 832 203 839 l 79 886 q 98 921 89 904 q 116 951 107 938 q 135 977 125 965 q 153 999 144 989 q 176 1022 163 1010 q 203 1041 189 1033 q 235 1053 218 1049 q 268 1058 251 1058 q 281 1058 275 1058 q 294 1056 288 1057 q 307 1052 301 1054 q 319 1047 313 1050 q 331 1042 325 1044 q 342 1035 338 1039 q 353 1028 347 1032 q 363 1019 358 1024 q 373 1009 368 1014 q 382 1000 378 1004 q 390 991 386 996 q 398 982 394 986 q 407 971 401 978 q 417 959 413 964 q 427 950 422 954 q 432 944 432 946 l 421 944 q 425 949 421 946 q 433 957 429 951 q 439 964 438 963 q 442 968 440 965 q 447 974 444 971 q 451 980 449 976 q 456 987 453 983 q 461 994 458 990 q 466 1002 464 997 q 471 1011 468 1007 q 477 1021 474 1015 q 483 1031 481 1026 q 489 1042 486 1036 q 496 1054 492 1049 l 615 1001 q 597 966 606 982 q 578 936 588 950 q 560 910 569 922 q 541 888 550 897 q 519 866 532 878 q 491 847 506 854 q 460 834 476 839 q 426 829 443 829 z "},"":{"ha":694,"x_min":69,"x_max":614,"o":"m 267 -11 q 185 3 225 -11 q 119 48 146 17 q 81 119 92 79 q 69 201 69 160 q 78 274 69 238 q 109 341 88 311 q 162 392 131 371 q 228 424 193 413 q 301 440 264 436 q 374 444 338 444 l 442 444 l 442 485 q 436 524 442 504 q 417 559 431 544 q 385 581 404 574 q 346 588 365 588 q 310 583 328 588 q 279 568 293 579 q 258 541 265 557 q 250 507 250 525 l 250 504 l 78 504 l 78 511 q 87 576 78 544 q 115 635 96 608 q 160 681 133 661 q 217 713 188 701 q 280 729 247 725 q 346 733 313 733 q 415 728 381 733 q 481 708 450 722 q 539 672 513 694 q 583 618 565 649 q 607 553 600 588 q 614 485 614 519 l 614 0 l 442 0 l 442 111 q 415 61 432 85 q 374 21 397 38 q 323 -3 351 4 q 267 -11 294 -11 m 342 135 q 383 143 363 135 q 418 168 404 151 q 437 206 432 185 q 442 250 442 228 l 442 299 l 374 299 q 345 298 360 299 q 316 294 331 297 q 288 285 301 290 q 264 269 275 279 q 247 246 253 260 q 242 218 242 232 q 249 182 242 199 q 272 154 257 165 q 304 139 286 143 q 342 135 322 135 m 486 828 q 445 834 465 828 q 410 855 425 840 q 390 890 396 869 q 383 931 383 910 q 390 972 383 951 q 410 1006 396 992 q 445 1027 425 1021 q 486 1033 465 1033 q 527 1027 507 1033 q 562 1006 547 1021 q 583 972 576 992 q 589 931 589 951 q 583 890 589 910 q 562 855 576 869 q 527 834 547 840 q 486 828 507 828 m 208 828 q 167 834 188 828 q 133 855 147 840 q 112 890 118 869 q 106 931 106 910 q 112 972 106 951 q 133 1006 118 992 q 167 1027 147 1021 q 208 1033 188 1033 q 249 1027 229 1033 q 284 1006 269 1021 q 305 972 299 992 q 311 931 311 951 q 305 890 311 910 q 284 855 299 869 q 249 834 269 840 q 208 828 229 828 z "},"":{"ha":694,"x_min":69,"x_max":614,"o":"m 267 -11 q 185 3 225 -11 q 119 48 146 17 q 81 119 92 79 q 69 201 69 160 q 78 274 69 238 q 109 341 88 311 q 162 392 131 371 q 228 424 193 413 q 301 440 264 436 q 374 444 338 444 l 442 444 l 442 485 q 436 524 442 504 q 417 559 431 544 q 385 581 404 574 q 346 588 365 588 q 310 583 328 588 q 279 568 293 579 q 258 541 265 557 q 250 507 250 525 l 250 504 l 78 504 l 78 511 q 87 576 78 544 q 115 635 96 608 q 160 681 133 661 q 217 713 188 701 q 280 729 247 725 q 346 733 313 733 q 415 728 381 733 q 481 708 450 722 q 539 672 513 694 q 583 618 565 649 q 607 553 600 588 q 614 485 614 519 l 614 0 l 442 0 l 442 111 q 415 61 432 85 q 374 21 397 38 q 323 -3 351 4 q 267 -11 294 -11 m 342 135 q 383 143 363 135 q 418 168 404 151 q 437 206 432 185 q 442 250 442 228 l 442 299 l 374 299 q 345 298 360 299 q 316 294 331 297 q 288 285 301 290 q 264 269 275 279 q 247 246 253 260 q 242 218 242 232 q 249 182 242 199 q 272 154 257 165 q 304 139 286 143 q 342 135 322 135 m 347 789 q 292 798 319 789 q 244 827 264 807 q 215 875 224 847 q 206 931 206 903 q 215 986 206 958 q 244 1034 224 1014 q 292 1063 264 1054 q 347 1072 319 1072 q 403 1063 375 1072 q 451 1034 431 1054 q 480 986 471 1014 q 489 931 489 958 q 480 875 489 903 q 451 827 471 847 q 403 798 431 807 q 347 789 375 789 m 347 882 q 367 885 357 882 q 383 894 376 888 q 393 911 390 901 q 396 931 396 921 q 393 950 396 940 q 383 967 390 960 q 367 976 376 974 q 347 979 357 979 q 328 976 338 979 q 311 967 318 974 q 301 950 304 960 q 299 931 299 940 q 301 911 299 921 q 311 894 304 901 q 328 885 318 888 q 347 882 338 882 z "},"":{"ha":694,"x_min":43,"x_max":651,"o":"m 232 -11 q 177 -5 204 -11 q 127 16 150 1 q 88 52 104 31 q 60 99 71 74 q 47 151 50 124 q 43 206 43 178 q 47 265 43 236 q 64 322 51 294 q 96 372 76 349 q 141 409 115 394 q 197 429 167 424 q 256 435 226 435 l 275 435 l 275 556 q 273 574 275 565 q 267 592 271 583 q 254 605 263 600 q 236 610 246 610 q 219 602 226 610 q 209 585 213 594 q 203 567 206 576 q 199 549 200 558 q 198 529 199 539 q 197 510 197 519 l 197 504 l 51 504 l 51 515 q 56 569 51 542 q 70 621 60 596 q 97 668 81 646 q 135 706 113 690 q 183 727 157 721 q 236 733 210 733 q 297 727 267 733 q 351 704 326 721 q 404 726 375 719 q 463 733 433 733 q 515 728 489 733 q 563 710 540 724 q 604 678 586 697 q 633 635 622 658 q 647 585 643 611 q 651 532 651 558 l 651 300 l 419 300 l 419 190 q 421 165 419 178 q 426 142 422 153 q 440 122 431 131 q 461 113 449 113 q 478 119 471 113 q 490 135 486 126 q 497 154 494 144 q 500 174 499 164 q 502 193 501 183 q 503 213 503 203 l 503 218 l 649 218 l 649 207 q 644 153 649 179 q 629 101 639 126 q 603 54 619 76 q 564 17 586 32 q 515 -5 542 1 q 461 -11 489 -11 q 400 -3 431 -11 q 344 24 369 4 q 291 -3 321 4 q 232 -11 261 -11 m 419 422 l 506 422 l 506 532 q 504 557 506 544 q 499 581 503 569 q 485 601 494 593 q 463 610 475 610 q 441 601 450 610 q 427 581 432 593 q 421 557 422 569 q 419 532 419 544 l 419 422 m 232 113 q 249 120 242 113 q 262 137 257 128 q 269 156 267 146 q 272 176 271 167 q 274 197 274 186 q 275 218 275 207 l 275 313 l 256 313 q 224 303 239 313 q 201 278 208 293 q 191 245 193 263 q 189 211 189 228 q 190 182 189 197 q 195 153 192 167 q 208 126 199 139 q 232 113 217 113 z "},"":{"ha":694,"x_min":69,"x_max":617,"o":"m 343 -11 q 268 -4 306 -11 q 197 22 231 3 q 138 68 164 40 q 97 131 113 96 q 76 203 82 165 q 69 278 69 240 l 69 444 q 76 519 69 482 q 97 592 82 557 q 138 654 113 626 q 197 701 164 682 q 268 726 231 719 q 343 733 306 733 q 415 727 379 733 q 483 705 450 721 q 541 663 515 689 q 584 606 567 638 q 609 538 601 574 q 617 467 617 503 l 617 456 l 444 456 l 444 461 q 439 506 444 483 q 421 548 433 529 q 387 577 408 567 q 343 588 365 588 q 296 574 318 588 q 262 540 274 561 q 246 494 250 518 q 242 444 242 469 l 242 278 q 246 228 242 253 q 262 183 250 204 q 296 148 274 161 q 343 135 318 135 q 387 145 365 135 q 421 174 408 156 q 439 216 433 193 q 444 261 444 239 l 444 267 l 617 267 l 617 256 q 609 184 617 219 q 584 117 601 149 q 541 59 567 85 q 483 17 515 33 q 415 -5 450 1 q 343 -11 379 -11 m 208 -306 l 208 -190 l 347 -190 q 363 -189 356 -190 q 378 -185 371 -187 q 390 -175 385 -182 q 394 -160 394 -168 q 391 -142 394 -151 q 381 -128 388 -133 q 365 -120 374 -122 q 347 -118 356 -118 l 279 -118 l 279 135 l 415 135 l 415 -68 q 449 -85 433 -75 q 476 -111 465 -96 q 492 -145 488 -126 q 497 -182 497 -164 q 485 -235 497 -210 q 451 -278 474 -261 q 402 -300 429 -294 q 347 -306 375 -306 l 208 -306 z "},"":{"ha":694,"x_min":69,"x_max":625,"o":"m 347 -11 q 271 -4 308 -11 q 200 21 233 3 q 140 67 167 39 q 98 130 114 96 q 76 202 82 164 q 69 278 69 240 l 69 444 q 76 520 69 482 q 98 592 82 558 q 140 655 114 626 q 200 701 167 683 q 272 726 233 719 q 347 733 310 733 q 423 726 385 733 q 494 701 461 719 q 554 655 528 683 q 597 592 581 626 q 619 520 613 558 q 625 444 625 482 l 625 289 l 242 289 l 242 278 q 246 228 242 253 q 263 181 250 203 q 299 147 276 160 q 347 135 322 135 q 384 139 365 135 q 418 154 403 143 q 442 183 433 165 q 450 218 450 200 l 622 218 q 613 152 622 185 q 584 92 603 119 q 538 43 565 64 q 478 10 510 22 q 414 -6 447 -1 q 347 -11 381 -11 m 242 433 l 453 433 l 453 444 q 449 494 453 469 q 431 541 444 519 q 395 575 418 563 q 347 588 372 588 q 299 575 322 588 q 263 541 276 563 q 246 494 250 519 q 242 444 242 469 l 242 433 m 367 797 l 171 985 l 281 1071 l 456 869 l 367 797 z "},"":{"ha":694,"x_min":69,"x_max":625,"o":"m 347 -11 q 271 -4 308 -11 q 200 21 233 3 q 140 67 167 39 q 98 130 114 96 q 76 202 82 164 q 69 278 69 240 l 69 444 q 76 520 69 482 q 98 592 82 558 q 140 655 114 626 q 200 701 167 683 q 272 726 233 719 q 347 733 310 733 q 423 726 385 733 q 494 701 461 719 q 554 655 528 683 q 597 592 581 626 q 619 520 613 558 q 625 444 625 482 l 625 289 l 242 289 l 242 278 q 246 228 242 253 q 263 181 250 203 q 299 147 276 160 q 347 135 322 135 q 384 139 365 135 q 418 154 403 143 q 442 183 433 165 q 450 218 450 200 l 622 218 q 613 152 622 185 q 584 92 603 119 q 538 43 565 64 q 478 10 510 22 q 414 -6 447 -1 q 347 -11 381 -11 m 242 433 l 453 433 l 453 444 q 449 494 453 469 q 431 541 444 519 q 395 575 418 563 q 347 588 372 588 q 299 575 322 588 q 263 541 276 563 q 246 494 250 519 q 242 444 242 469 l 242 433 m 328 797 l 239 869 l 414 1071 l 524 985 l 328 797 z "},"":{"ha":694,"x_min":69,"x_max":625,"o":"m 347 -11 q 271 -4 308 -11 q 200 21 233 3 q 140 67 167 39 q 98 130 114 96 q 76 202 82 164 q 69 278 69 240 l 69 444 q 76 520 69 482 q 98 592 82 558 q 140 655 114 626 q 200 701 167 683 q 272 726 233 719 q 347 733 310 733 q 423 726 385 733 q 494 701 461 719 q 554 655 528 683 q 597 592 581 626 q 619 520 613 558 q 625 444 625 482 l 625 289 l 242 289 l 242 278 q 246 228 242 253 q 263 181 250 203 q 299 147 276 160 q 347 135 322 135 q 384 139 365 135 q 418 154 403 143 q 442 183 433 165 q 450 218 450 200 l 622 218 q 613 152 622 185 q 584 92 603 119 q 538 43 565 64 q 478 10 510 22 q 414 -6 447 -1 q 347 -11 381 -11 m 242 433 l 453 433 l 453 444 q 449 494 453 469 q 431 541 444 519 q 395 575 418 563 q 347 588 372 588 q 299 575 322 588 q 263 541 276 563 q 246 494 250 519 q 242 444 242 469 l 242 433 m 478 818 l 347 967 l 217 818 l 136 871 l 263 1064 l 432 1064 l 558 871 l 478 818 z "},"":{"ha":694,"x_min":69,"x_max":625,"o":"m 347 -11 q 271 -4 308 -11 q 200 21 233 3 q 140 67 167 39 q 98 130 114 96 q 76 202 82 164 q 69 278 69 240 l 69 444 q 76 520 69 482 q 98 592 82 558 q 140 655 114 626 q 200 701 167 683 q 272 726 233 719 q 347 733 310 733 q 423 726 385 733 q 494 701 461 719 q 554 655 528 683 q 597 592 581 626 q 619 520 613 558 q 625 444 625 482 l 625 289 l 242 289 l 242 278 q 246 228 242 253 q 263 181 250 203 q 299 147 276 160 q 347 135 322 135 q 384 139 365 135 q 418 154 403 143 q 442 183 433 165 q 450 218 450 200 l 622 218 q 613 152 622 185 q 584 92 603 119 q 538 43 565 64 q 478 10 510 22 q 414 -6 447 -1 q 347 -11 381 -11 m 242 433 l 453 433 l 453 444 q 449 494 453 469 q 431 541 444 519 q 395 575 418 563 q 347 588 372 588 q 299 575 322 588 q 263 541 276 563 q 246 494 250 519 q 242 444 242 469 l 242 433 m 486 828 q 445 834 465 828 q 410 855 425 840 q 390 890 396 869 q 383 931 383 910 q 390 972 383 951 q 410 1006 396 992 q 445 1027 425 1021 q 486 1033 465 1033 q 527 1027 507 1033 q 562 1006 547 1021 q 583 972 576 992 q 589 931 589 951 q 583 890 589 910 q 562 855 576 869 q 527 834 547 840 q 486 828 507 828 m 208 828 q 167 834 188 828 q 133 855 147 840 q 112 890 118 869 q 106 931 106 910 q 112 972 106 951 q 133 1006 118 992 q 167 1027 147 1021 q 208 1033 188 1033 q 249 1027 229 1033 q 284 1006 269 1021 q 305 972 299 992 q 311 931 311 951 q 305 890 311 910 q 284 855 299 869 q 249 834 269 840 q 208 828 229 828 z "},"":{"ha":694,"x_min":104,"x_max":590,"o":"m 104 0 l 104 146 l 271 146 l 271 576 l 124 576 l 124 722 l 443 722 l 443 146 l 590 146 l 590 0 l 104 0 m 374 797 l 178 985 l 288 1071 l 463 869 l 374 797 z "},"":{"ha":694,"x_min":104,"x_max":590,"o":"m 104 0 l 104 146 l 271 146 l 271 576 l 124 576 l 124 722 l 443 722 l 443 146 l 590 146 l 590 0 l 104 0 m 335 797 l 246 869 l 421 1071 l 531 985 l 335 797 z "},"":{"ha":694,"x_min":104,"x_max":590,"o":"m 104 0 l 104 146 l 271 146 l 271 576 l 124 576 l 124 722 l 443 722 l 443 146 l 590 146 l 590 0 l 104 0 m 485 818 l 354 967 l 224 818 l 143 871 l 269 1064 l 439 1064 l 565 871 l 485 818 z "},"":{"ha":694,"x_min":104,"x_max":590,"o":"m 104 0 l 104 146 l 271 146 l 271 576 l 124 576 l 124 722 l 443 722 l 443 146 l 590 146 l 590 0 l 104 0 m 486 828 q 445 834 465 828 q 410 855 425 840 q 390 890 396 869 q 383 931 383 910 q 390 972 383 951 q 410 1006 396 992 q 445 1027 425 1021 q 486 1033 465 1033 q 527 1027 507 1033 q 562 1006 547 1021 q 583 972 576 992 q 589 931 589 951 q 583 890 589 910 q 562 855 576 869 q 527 834 547 840 q 486 828 507 828 m 208 828 q 167 834 188 828 q 133 855 147 840 q 112 890 118 869 q 106 931 106 910 q 112 972 106 951 q 133 1006 118 992 q 167 1027 147 1021 q 208 1033 188 1033 q 249 1027 229 1033 q 284 1006 269 1021 q 305 972 299 992 q 311 931 311 951 q 305 890 311 910 q 284 855 299 869 q 249 834 269 840 q 208 828 229 828 z "},"":{"ha":694,"x_min":69,"x_max":625,"o":"m 347 -11 q 267 -2 307 -11 q 192 28 226 7 q 133 83 158 50 q 94 153 108 115 q 74 231 79 190 q 69 313 69 272 q 73 382 69 347 q 85 450 76 417 q 108 515 93 483 q 147 572 124 547 q 204 610 171 597 q 272 624 238 624 q 329 615 301 624 q 379 589 357 607 q 417 547 401 571 q 444 496 433 522 q 419 608 436 553 q 375 714 403 664 l 150 656 l 118 760 l 303 808 q 248 851 278 832 q 185 883 218 871 l 240 1021 q 373 956 311 999 q 481 856 435 913 l 571 879 l 603 775 l 542 758 q 583 660 565 711 q 610 557 600 610 q 622 451 619 504 q 625 344 625 397 l 625 307 q 619 227 625 267 q 599 150 614 188 q 558 81 583 113 q 500 28 533 49 q 427 -2 467 7 q 347 -11 388 -11 m 347 135 q 384 142 367 135 q 414 164 401 150 q 434 196 426 178 q 446 232 442 214 q 451 269 450 250 q 453 306 453 288 q 451 344 453 325 q 446 381 450 363 q 434 417 442 399 q 414 449 426 435 q 384 470 401 463 q 347 478 367 478 q 310 470 328 478 q 281 449 293 463 q 260 417 268 435 q 249 381 253 400 q 243 344 244 363 q 242 307 242 326 q 243 269 242 288 q 249 232 244 250 q 260 197 253 214 q 281 165 268 179 q 310 142 293 150 q 347 135 328 135 z "},"":{"ha":694,"x_min":79,"x_max":615,"o":"m 81 0 l 81 722 l 253 722 l 253 600 q 278 653 263 628 q 315 697 293 678 q 365 724 338 715 q 422 733 393 733 q 485 722 454 733 q 540 687 517 710 q 577 634 563 664 q 600 573 592 604 q 611 509 608 542 q 614 444 614 476 l 614 0 l 442 0 l 442 444 q 440 477 442 461 q 435 508 439 493 q 424 538 431 524 q 406 565 417 553 q 379 582 394 576 q 347 588 364 588 q 315 582 331 588 q 289 565 300 576 q 271 538 278 553 q 260 508 264 524 q 254 477 256 493 q 253 444 253 461 l 253 0 l 81 0 m 426 829 q 413 830 419 829 q 400 832 407 831 q 388 835 393 833 q 376 839 382 836 q 363 845 369 842 q 352 852 357 849 q 342 860 347 856 q 331 868 336 864 q 322 877 326 872 q 313 887 317 882 q 304 896 308 892 q 297 905 300 900 q 288 916 293 910 q 277 927 282 922 q 267 937 272 932 q 263 943 263 942 l 274 943 q 269 938 274 940 q 261 930 265 935 q 256 924 257 925 q 252 919 254 922 q 248 914 250 917 q 244 908 246 911 q 239 901 242 904 q 233 893 236 897 q 228 885 231 889 q 224 876 226 881 q 217 866 221 871 q 211 856 214 861 q 206 844 208 850 q 199 832 203 839 l 79 886 q 98 921 89 904 q 116 951 107 938 q 135 977 125 965 q 153 999 144 989 q 176 1022 163 1010 q 203 1041 189 1033 q 235 1053 218 1049 q 268 1058 251 1058 q 281 1058 275 1058 q 294 1056 288 1057 q 307 1052 301 1054 q 319 1047 313 1050 q 331 1042 325 1044 q 342 1035 338 1039 q 353 1028 347 1032 q 363 1019 358 1024 q 373 1009 368 1014 q 382 1000 378 1004 q 390 991 386 996 q 398 982 394 986 q 407 971 401 978 q 417 959 413 964 q 427 950 422 954 q 432 944 432 946 l 421 944 q 425 949 421 946 q 433 957 429 951 q 439 964 438 963 q 442 968 440 965 q 447 974 444 971 q 451 980 449 976 q 456 987 453 983 q 461 994 458 990 q 466 1002 464 997 q 471 1011 468 1007 q 477 1021 474 1015 q 483 1031 481 1026 q 489 1042 486 1036 q 496 1054 492 1049 l 615 1001 q 597 966 606 982 q 578 936 588 950 q 560 910 569 922 q 541 888 550 897 q 519 866 532 878 q 491 847 506 854 q 460 834 476 839 q 426 829 443 829 z "},"":{"ha":694,"x_min":69,"x_max":625,"o":"m 347 -11 q 272 -4 310 -11 q 200 21 233 3 q 140 67 167 39 q 98 130 114 96 q 76 202 82 164 q 69 278 69 240 l 69 444 q 76 520 69 482 q 98 592 82 558 q 140 655 114 626 q 200 701 167 683 q 272 726 233 719 q 347 733 310 733 q 423 726 385 733 q 494 701 461 719 q 554 655 528 683 q 597 592 581 626 q 619 520 613 558 q 625 444 625 482 l 625 278 q 619 202 625 240 q 597 130 613 164 q 554 67 581 96 q 494 21 528 39 q 423 -4 461 3 q 347 -11 385 -11 m 347 135 q 395 147 372 135 q 431 181 418 160 q 449 228 444 203 q 453 278 453 253 l 453 444 q 449 494 453 469 q 431 541 444 519 q 395 575 418 563 q 347 588 372 588 q 299 575 322 588 q 263 541 276 563 q 246 494 250 519 q 242 444 242 469 l 242 278 q 246 228 242 253 q 263 181 250 203 q 299 147 276 160 q 347 135 322 135 m 367 797 l 171 985 l 281 1071 l 456 869 l 367 797 z "},"":{"ha":694,"x_min":69,"x_max":625,"o":"m 347 -11 q 272 -4 310 -11 q 200 21 233 3 q 140 67 167 39 q 98 130 114 96 q 76 202 82 164 q 69 278 69 240 l 69 444 q 76 520 69 482 q 98 592 82 558 q 140 655 114 626 q 200 701 167 683 q 272 726 233 719 q 347 733 310 733 q 423 726 385 733 q 494 701 461 719 q 554 655 528 683 q 597 592 581 626 q 619 520 613 558 q 625 444 625 482 l 625 278 q 619 202 625 240 q 597 130 613 164 q 554 67 581 96 q 494 21 528 39 q 423 -4 461 3 q 347 -11 385 -11 m 347 135 q 395 147 372 135 q 431 181 418 160 q 449 228 444 203 q 453 278 453 253 l 453 444 q 449 494 453 469 q 431 541 444 519 q 395 575 418 563 q 347 588 372 588 q 299 575 322 588 q 263 541 276 563 q 246 494 250 519 q 242 444 242 469 l 242 278 q 246 228 242 253 q 263 181 250 203 q 299 147 276 160 q 347 135 322 135 m 328 797 l 239 869 l 414 1071 l 524 985 l 328 797 z "},"":{"ha":694,"x_min":69,"x_max":625,"o":"m 347 -11 q 272 -4 310 -11 q 200 21 233 3 q 140 67 167 39 q 98 130 114 96 q 76 202 82 164 q 69 278 69 240 l 69 444 q 76 520 69 482 q 98 592 82 558 q 140 655 114 626 q 200 701 167 683 q 272 726 233 719 q 347 733 310 733 q 423 726 385 733 q 494 701 461 719 q 554 655 528 683 q 597 592 581 626 q 619 520 613 558 q 625 444 625 482 l 625 278 q 619 202 625 240 q 597 130 613 164 q 554 67 581 96 q 494 21 528 39 q 423 -4 461 3 q 347 -11 385 -11 m 347 135 q 395 147 372 135 q 431 181 418 160 q 449 228 444 203 q 453 278 453 253 l 453 444 q 449 494 453 469 q 431 541 444 519 q 395 575 418 563 q 347 588 372 588 q 299 575 322 588 q 263 541 276 563 q 246 494 250 519 q 242 444 242 469 l 242 278 q 246 228 242 253 q 263 181 250 203 q 299 147 276 160 q 347 135 322 135 m 478 818 l 347 967 l 217 818 l 136 871 l 263 1064 l 432 1064 l 558 871 l 478 818 z "},"":{"ha":694,"x_min":69,"x_max":625,"o":"m 347 -11 q 272 -4 310 -11 q 200 21 233 3 q 140 67 167 39 q 98 130 114 96 q 76 202 82 164 q 69 278 69 240 l 69 444 q 76 520 69 482 q 98 592 82 558 q 140 655 114 626 q 200 701 167 683 q 272 726 233 719 q 347 733 310 733 q 423 726 385 733 q 494 701 461 719 q 554 655 528 683 q 597 592 581 626 q 619 520 613 558 q 625 444 625 482 l 625 278 q 619 202 625 240 q 597 130 613 164 q 554 67 581 96 q 494 21 528 39 q 423 -4 461 3 q 347 -11 385 -11 m 347 135 q 395 147 372 135 q 431 181 418 160 q 449 228 444 203 q 453 278 453 253 l 453 444 q 449 494 453 469 q 431 541 444 519 q 395 575 418 563 q 347 588 372 588 q 299 575 322 588 q 263 541 276 563 q 246 494 250 519 q 242 444 242 469 l 242 278 q 246 228 242 253 q 263 181 250 203 q 299 147 276 160 q 347 135 322 135 m 426 829 q 413 830 419 829 q 400 832 407 831 q 388 835 393 833 q 376 839 382 836 q 363 845 369 842 q 352 852 357 849 q 342 860 347 856 q 331 868 336 864 q 322 877 326 872 q 313 887 317 882 q 304 896 308 892 q 297 905 300 900 q 288 916 293 910 q 277 927 282 922 q 267 937 272 932 q 263 943 263 942 l 274 943 q 269 938 274 940 q 261 930 265 935 q 256 924 257 925 q 252 919 254 922 q 248 914 250 917 q 244 908 246 911 q 239 901 242 904 q 233 893 236 897 q 228 885 231 889 q 224 876 226 881 q 217 866 221 871 q 211 856 214 861 q 206 844 208 850 q 199 832 203 839 l 79 886 q 98 921 89 904 q 116 951 107 938 q 135 977 125 965 q 153 999 144 989 q 176 1022 163 1010 q 203 1041 189 1033 q 235 1053 218 1049 q 268 1058 251 1058 q 281 1058 275 1058 q 294 1056 288 1057 q 307 1052 301 1054 q 319 1047 313 1050 q 331 1042 325 1044 q 342 1035 338 1039 q 353 1028 347 1032 q 363 1019 358 1024 q 373 1009 368 1014 q 382 1000 378 1004 q 390 991 386 996 q 398 982 394 986 q 407 971 401 978 q 417 959 413 964 q 427 950 422 954 q 432 944 432 946 l 421 944 q 425 949 421 946 q 433 957 429 951 q 439 964 438 963 q 442 968 440 965 q 447 974 444 971 q 451 980 449 976 q 456 987 453 983 q 461 994 458 990 q 466 1002 464 997 q 471 1011 468 1007 q 477 1021 474 1015 q 483 1031 481 1026 q 489 1042 486 1036 q 496 1054 492 1049 l 615 1001 q 597 966 606 982 q 578 936 588 950 q 560 910 569 922 q 541 888 550 897 q 519 866 532 878 q 491 847 506 854 q 460 834 476 839 q 426 829 443 829 z "},"":{"ha":694,"x_min":69,"x_max":625,"o":"m 347 -11 q 272 -4 310 -11 q 200 21 233 3 q 140 67 167 39 q 98 130 114 96 q 76 202 82 164 q 69 278 69 240 l 69 444 q 76 520 69 482 q 98 592 82 558 q 140 655 114 626 q 200 701 167 683 q 272 726 233 719 q 347 733 310 733 q 423 726 385 733 q 494 701 461 719 q 554 655 528 683 q 597 592 581 626 q 619 520 613 558 q 625 444 625 482 l 625 278 q 619 202 625 240 q 597 130 613 164 q 554 67 581 96 q 494 21 528 39 q 423 -4 461 3 q 347 -11 385 -11 m 347 135 q 395 147 372 135 q 431 181 418 160 q 449 228 444 203 q 453 278 453 253 l 453 444 q 449 494 453 469 q 431 541 444 519 q 395 575 418 563 q 347 588 372 588 q 299 575 322 588 q 263 541 276 563 q 246 494 250 519 q 242 444 242 469 l 242 278 q 246 228 242 253 q 263 181 250 203 q 299 147 276 160 q 347 135 322 135 m 486 828 q 445 834 465 828 q 410 855 425 840 q 390 890 396 869 q 383 931 383 910 q 390 972 383 951 q 410 1006 396 992 q 445 1027 425 1021 q 486 1033 465 1033 q 527 1027 507 1033 q 562 1006 547 1021 q 583 972 576 992 q 589 931 589 951 q 583 890 589 910 q 562 855 576 869 q 527 834 547 840 q 486 828 507 828 m 208 828 q 167 834 188 828 q 133 855 147 840 q 112 890 118 869 q 106 931 106 910 q 112 972 106 951 q 133 1006 118 992 q 167 1027 147 1021 q 208 1033 188 1033 q 249 1027 229 1033 q 284 1006 269 1021 q 305 972 299 992 q 311 931 311 951 q 305 890 311 910 q 284 855 299 869 q 249 834 269 840 q 208 828 229 828 z "},"":{"ha":694,"x_min":81,"x_max":614,"o":"m 347 624 q 301 631 324 624 q 263 654 279 638 q 239 693 246 671 q 232 739 232 715 q 239 785 232 763 q 263 824 246 807 q 301 847 279 840 q 347 854 324 854 q 393 847 371 854 q 432 824 415 840 q 456 785 449 807 q 463 739 463 763 q 456 693 463 715 q 432 654 449 671 q 393 631 415 638 q 347 624 371 624 m 614 408 l 81 408 l 81 536 l 614 536 l 614 408 m 347 90 q 301 97 324 90 q 263 121 279 104 q 239 160 246 138 q 232 206 232 182 q 239 251 232 229 q 263 290 246 274 q 301 314 279 307 q 347 321 324 321 q 393 314 371 321 q 432 290 415 307 q 456 251 449 274 q 463 206 463 229 q 456 160 463 182 q 432 121 449 138 q 393 97 415 104 q 347 90 371 90 z "},"":{"ha":694,"x_min":68,"x_max":626,"o":"m 179 -62 l 68 -10 l 122 88 q 98 131 108 108 q 81 178 88 154 q 72 228 74 203 q 69 278 69 253 l 69 444 q 76 520 69 482 q 98 592 82 558 q 140 655 114 626 q 200 701 167 683 q 272 726 233 719 q 347 733 310 733 q 412 728 379 733 q 474 711 444 724 l 515 785 l 626 732 l 572 635 q 597 591 586 614 q 614 544 607 568 q 623 494 621 519 q 625 444 625 469 l 625 278 q 619 202 625 240 q 597 130 613 164 q 554 67 581 96 q 494 21 528 39 q 423 -4 461 3 q 347 -11 385 -11 q 283 -6 315 -11 q 221 11 250 -1 l 179 -62 m 242 299 l 397 575 q 373 585 386 582 q 347 588 360 588 q 299 575 322 588 q 263 541 276 563 q 246 494 250 519 q 242 444 242 469 l 242 299 m 347 135 q 395 147 372 135 q 431 181 418 160 q 449 228 444 203 q 453 278 453 253 l 453 424 l 297 147 q 322 138 308 140 q 347 135 335 135 z "},"":{"ha":694,"x_min":81,"x_max":614,"o":"m 272 -11 q 209 1 240 -11 q 155 35 178 13 q 117 88 132 58 q 94 149 103 118 q 83 213 86 181 q 81 278 81 246 l 81 722 l 253 722 l 253 278 q 254 245 253 261 q 260 214 256 229 q 271 184 264 199 q 289 158 278 169 q 315 140 300 146 q 347 135 331 135 q 379 140 364 135 q 406 158 394 146 q 424 184 417 169 q 435 214 431 199 q 440 245 439 229 q 442 278 442 261 l 442 722 l 614 722 l 614 0 l 442 0 l 442 122 q 417 69 432 94 q 379 26 401 44 q 329 -2 357 7 q 272 -11 301 -11 m 367 797 l 171 985 l 281 1071 l 456 869 l 367 797 z "},"":{"ha":694,"x_min":81,"x_max":614,"o":"m 272 -11 q 209 1 240 -11 q 155 35 178 13 q 117 88 132 58 q 94 149 103 118 q 83 213 86 181 q 81 278 81 246 l 81 722 l 253 722 l 253 278 q 254 245 253 261 q 260 214 256 229 q 271 184 264 199 q 289 158 278 169 q 315 140 300 146 q 347 135 331 135 q 379 140 364 135 q 406 158 394 146 q 424 184 417 169 q 435 214 431 199 q 440 245 439 229 q 442 278 442 261 l 442 722 l 614 722 l 614 0 l 442 0 l 442 122 q 417 69 432 94 q 379 26 401 44 q 329 -2 357 7 q 272 -11 301 -11 m 328 797 l 239 869 l 414 1071 l 524 985 l 328 797 z "},"":{"ha":694,"x_min":81,"x_max":614,"o":"m 272 -11 q 209 1 240 -11 q 155 35 178 13 q 117 88 132 58 q 94 149 103 118 q 83 213 86 181 q 81 278 81 246 l 81 722 l 253 722 l 253 278 q 254 245 253 261 q 260 214 256 229 q 271 184 264 199 q 289 158 278 169 q 315 140 300 146 q 347 135 331 135 q 379 140 364 135 q 406 158 394 146 q 424 184 417 169 q 435 214 431 199 q 440 245 439 229 q 442 278 442 261 l 442 722 l 614 722 l 614 0 l 442 0 l 442 122 q 417 69 432 94 q 379 26 401 44 q 329 -2 357 7 q 272 -11 301 -11 m 478 818 l 347 967 l 217 818 l 136 871 l 263 1064 l 432 1064 l 558 871 l 478 818 z "},"":{"ha":694,"x_min":81,"x_max":614,"o":"m 272 -11 q 209 1 240 -11 q 155 35 178 13 q 117 88 132 58 q 94 149 103 118 q 83 213 86 181 q 81 278 81 246 l 81 722 l 253 722 l 253 278 q 254 245 253 261 q 260 214 256 229 q 271 184 264 199 q 289 158 278 169 q 315 140 300 146 q 347 135 331 135 q 379 140 364 135 q 406 158 394 146 q 424 184 417 169 q 435 214 431 199 q 440 245 439 229 q 442 278 442 261 l 442 722 l 614 722 l 614 0 l 442 0 l 442 122 q 417 69 432 94 q 379 26 401 44 q 329 -2 357 7 q 272 -11 301 -11 m 486 828 q 445 834 465 828 q 410 855 425 840 q 390 890 396 869 q 383 931 383 910 q 390 972 383 951 q 410 1006 396 992 q 445 1027 425 1021 q 486 1033 465 1033 q 527 1027 507 1033 q 562 1006 547 1021 q 583 972 576 992 q 589 931 589 951 q 583 890 589 910 q 562 855 576 869 q 527 834 547 840 q 486 828 507 828 m 208 828 q 167 834 188 828 q 133 855 147 840 q 112 890 118 869 q 106 931 106 910 q 112 972 106 951 q 133 1006 118 992 q 167 1027 147 1021 q 208 1033 188 1033 q 249 1027 229 1033 q 284 1006 269 1021 q 305 972 299 992 q 311 931 311 951 q 305 890 311 910 q 284 855 299 869 q 249 834 269 840 q 208 828 229 828 z "},"":{"ha":694,"x_min":64,"x_max":631,"o":"m 358 -299 l 181 -299 q 210 -192 196 -246 q 238 -86 224 -139 l 261 1 l 64 722 l 242 722 l 351 217 l 453 722 l 631 722 l 358 -299 m 328 797 l 239 869 l 414 1071 l 524 985 l 328 797 z "},"":{"ha":694,"x_min":81,"x_max":625,"o":"m 81 -299 l 81 1021 l 253 1021 l 253 599 q 278 652 263 626 q 317 697 294 678 q 369 724 340 715 q 428 733 399 733 q 492 722 461 733 q 547 688 524 711 q 586 635 571 665 q 610 574 601 606 q 622 510 619 543 q 625 444 625 478 l 625 278 q 622 212 625 244 q 610 148 619 179 q 586 87 601 117 q 547 34 571 57 q 492 0 524 11 q 428 -11 461 -11 q 369 -2 399 -11 q 317 26 340 7 q 278 70 294 44 q 253 124 263 96 l 253 -299 l 81 -299 m 353 135 q 399 148 378 135 q 433 183 421 161 q 449 228 444 204 q 453 278 453 253 l 453 444 q 449 494 453 469 q 433 540 444 518 q 399 574 421 561 q 353 588 378 588 q 306 574 328 588 q 273 540 285 561 q 257 494 261 518 q 253 444 253 469 l 253 278 q 257 228 253 253 q 273 183 261 204 q 306 148 285 161 q 353 135 328 135 z "},"":{"ha":694,"x_min":64,"x_max":631,"o":"m 358 -299 l 181 -299 q 210 -192 196 -246 q 238 -86 224 -139 l 261 1 l 64 722 l 242 722 l 351 217 l 453 722 l 631 722 l 358 -299 m 486 828 q 445 834 465 828 q 410 855 425 840 q 390 890 396 869 q 383 931 383 910 q 390 972 383 951 q 410 1006 396 992 q 445 1027 425 1021 q 486 1033 465 1033 q 527 1027 507 1033 q 562 1006 547 1021 q 583 972 576 992 q 589 931 589 951 q 583 890 589 910 q 562 855 576 869 q 527 834 547 840 q 486 828 507 828 m 208 828 q 167 834 188 828 q 133 855 147 840 q 112 890 118 869 q 106 931 106 910 q 112 972 106 951 q 133 1006 118 992 q 167 1027 147 1021 q 208 1033 188 1033 q 249 1027 229 1033 q 284 1006 269 1021 q 305 972 299 992 q 311 931 311 951 q 305 890 311 910 q 284 855 299 869 q 249 834 269 840 q 208 828 229 828 z "},"":{"ha":694,"x_min":49,"x_max":646,"o":"m 49 0 l 249 1021 l 446 1021 l 646 0 l 469 0 l 436 215 l 258 215 l 225 0 l 49 0 m 414 361 l 364 681 q 356 734 360 707 q 347 788 351 761 q 339 734 343 761 q 331 681 335 707 l 281 361 l 414 361 m 139 1172 l 139 1286 l 556 1286 l 556 1172 l 139 1172 z "},"":{"ha":694,"x_min":69,"x_max":614,"o":"m 267 -11 q 185 3 225 -11 q 119 48 146 17 q 81 119 92 79 q 69 201 69 160 q 78 274 69 238 q 109 341 88 311 q 162 392 131 371 q 228 424 193 413 q 301 440 264 436 q 374 444 338 444 l 442 444 l 442 485 q 436 524 442 504 q 417 559 431 544 q 385 581 404 574 q 346 588 365 588 q 310 583 328 588 q 279 568 293 579 q 258 541 265 557 q 250 507 250 525 l 250 504 l 78 504 l 78 511 q 87 576 78 544 q 115 635 96 608 q 160 681 133 661 q 217 713 188 701 q 280 729 247 725 q 346 733 313 733 q 415 728 381 733 q 481 708 450 722 q 539 672 513 694 q 583 618 565 649 q 607 553 600 588 q 614 485 614 519 l 614 0 l 442 0 l 442 111 q 415 61 432 85 q 374 21 397 38 q 323 -3 351 4 q 267 -11 294 -11 m 342 135 q 383 143 363 135 q 418 168 404 151 q 437 206 432 185 q 442 250 442 228 l 442 299 l 374 299 q 345 298 360 299 q 316 294 331 297 q 288 285 301 290 q 264 269 275 279 q 247 246 253 260 q 242 218 242 232 q 249 182 242 199 q 272 154 257 165 q 304 139 286 143 q 342 135 322 135 m 139 874 l 139 988 l 556 988 l 556 874 l 139 874 z "},"":{"ha":694,"x_min":49,"x_max":646,"o":"m 49 0 l 249 1021 l 446 1021 l 646 0 l 469 0 l 436 215 l 258 215 l 225 0 l 49 0 m 414 361 l 364 681 q 356 734 360 707 q 347 788 351 761 q 339 734 343 761 q 331 681 335 707 l 281 361 l 414 361 m 347 1132 q 290 1135 318 1132 q 234 1149 261 1139 q 183 1176 207 1160 q 143 1217 160 1193 q 119 1269 126 1240 q 113 1326 113 1297 l 249 1326 q 256 1292 249 1308 q 278 1265 264 1275 q 311 1251 293 1254 q 347 1247 329 1247 q 383 1251 365 1247 q 416 1265 401 1254 q 438 1292 431 1275 q 446 1326 446 1308 l 582 1326 q 575 1269 582 1297 q 551 1217 568 1240 q 511 1176 535 1193 q 460 1149 488 1160 q 405 1135 433 1139 q 347 1132 376 1132 z "},"":{"ha":694,"x_min":69,"x_max":614,"o":"m 267 -11 q 185 3 225 -11 q 119 48 146 17 q 81 119 92 79 q 69 201 69 160 q 78 274 69 238 q 109 341 88 311 q 162 392 131 371 q 228 424 193 413 q 301 440 264 436 q 374 444 338 444 l 442 444 l 442 485 q 436 524 442 504 q 417 559 431 544 q 385 581 404 574 q 346 588 365 588 q 310 583 328 588 q 279 568 293 579 q 258 541 265 557 q 250 507 250 525 l 250 504 l 78 504 l 78 511 q 87 576 78 544 q 115 635 96 608 q 160 681 133 661 q 217 713 188 701 q 280 729 247 725 q 346 733 313 733 q 415 728 381 733 q 481 708 450 722 q 539 672 513 694 q 583 618 565 649 q 607 553 600 588 q 614 485 614 519 l 614 0 l 442 0 l 442 111 q 415 61 432 85 q 374 21 397 38 q 323 -3 351 4 q 267 -11 294 -11 m 342 135 q 383 143 363 135 q 418 168 404 151 q 437 206 432 185 q 442 250 442 228 l 442 299 l 374 299 q 345 298 360 299 q 316 294 331 297 q 288 285 301 290 q 264 269 275 279 q 247 246 253 260 q 242 218 242 232 q 249 182 242 199 q 272 154 257 165 q 304 139 286 143 q 342 135 322 135 m 347 833 q 290 837 318 833 q 234 851 261 840 q 183 878 207 861 q 143 918 160 894 q 119 970 126 942 q 113 1028 113 999 l 249 1028 q 256 993 249 1010 q 278 966 264 976 q 311 952 293 956 q 347 949 329 949 q 383 952 365 949 q 416 966 401 956 q 438 993 431 976 q 446 1028 446 1010 l 582 1028 q 575 970 582 999 q 551 918 568 942 q 511 878 535 894 q 460 851 488 861 q 405 837 433 840 q 347 833 376 833 z "},"":{"ha":694,"x_min":49,"x_max":646,"o":"m 49 0 l 249 1021 l 446 1021 l 646 0 l 469 0 l 436 215 l 258 215 l 225 0 l 49 0 m 414 361 l 364 681 q 356 734 360 707 q 347 788 351 761 q 339 734 343 761 q 331 681 335 707 l 281 361 l 414 361 m 581 -311 q 536 -307 558 -311 q 493 -296 514 -303 q 453 -278 472 -289 q 419 -249 433 -267 q 397 -210 404 -232 q 390 -167 390 -189 q 399 -111 390 -139 q 424 -60 408 -83 q 462 -18 440 -37 q 508 16 483 1 q 559 41 532 31 q 614 56 586 51 l 614 0 q 579 -24 594 -10 q 553 -58 564 -39 q 534 -97 542 -76 q 526 -137 526 -117 q 531 -162 526 -150 q 547 -181 536 -174 q 569 -192 557 -189 q 594 -194 582 -194 q 613 -193 604 -194 q 632 -189 622 -192 l 632 -304 q 606 -309 619 -307 q 581 -311 593 -311 z "},"":{"ha":694,"x_min":69,"x_max":632,"o":"m 267 -11 q 185 3 225 -11 q 119 48 146 17 q 81 119 92 79 q 69 201 69 160 q 78 274 69 238 q 109 341 88 311 q 162 392 131 371 q 228 424 193 413 q 301 440 264 436 q 374 444 338 444 l 442 444 l 442 485 q 436 524 442 504 q 417 559 431 544 q 385 581 404 574 q 346 588 365 588 q 310 583 328 588 q 279 568 293 579 q 258 541 265 557 q 250 507 250 525 l 250 504 l 78 504 l 78 511 q 87 576 78 544 q 115 635 96 608 q 160 681 133 661 q 217 713 188 701 q 280 729 247 725 q 346 733 313 733 q 415 728 381 733 q 481 708 450 722 q 539 672 513 694 q 583 618 565 649 q 607 553 600 588 q 614 485 614 519 l 614 0 l 442 0 l 442 111 q 415 61 432 85 q 374 21 397 38 q 323 -3 351 4 q 267 -11 294 -11 m 342 135 q 383 143 363 135 q 418 168 404 151 q 437 206 432 185 q 442 250 442 228 l 442 299 l 374 299 q 345 298 360 299 q 316 294 331 297 q 288 285 301 290 q 264 269 275 279 q 247 246 253 260 q 242 218 242 232 q 249 182 242 199 q 272 154 257 165 q 304 139 286 143 q 342 135 322 135 m 581 -311 q 536 -307 558 -311 q 493 -296 514 -303 q 453 -278 472 -289 q 419 -249 433 -267 q 397 -210 404 -232 q 390 -167 390 -189 q 399 -111 390 -139 q 424 -60 408 -83 q 462 -18 440 -37 q 508 16 483 1 q 559 41 532 31 q 614 56 586 51 l 614 0 q 579 -24 594 -10 q 553 -58 564 -39 q 534 -97 542 -76 q 526 -137 526 -117 q 531 -162 526 -150 q 547 -181 536 -174 q 569 -192 557 -189 q 594 -194 582 -194 q 613 -193 604 -194 q 632 -189 622 -192 l 632 -304 q 606 -309 619 -307 q 581 -311 593 -311 z "},"":{"ha":694,"x_min":69,"x_max":617,"o":"m 343 -11 q 266 -3 304 -11 q 194 25 228 6 q 136 75 161 44 q 96 141 111 106 q 75 215 81 176 q 69 292 69 253 l 69 729 q 75 806 69 768 q 96 880 81 844 q 136 946 111 915 q 194 996 161 976 q 266 1024 228 1015 q 343 1032 304 1032 q 415 1026 379 1032 q 483 1003 451 1019 q 542 960 515 986 q 585 902 568 935 q 609 834 601 869 q 617 763 617 799 l 617 754 l 444 754 l 444 758 q 439 803 444 781 q 421 846 433 826 q 388 876 408 865 q 343 886 367 886 q 308 880 325 886 q 280 860 292 874 q 260 831 268 847 q 249 799 253 815 q 243 764 244 782 q 242 729 242 746 l 242 292 q 243 257 242 275 q 249 222 244 239 q 260 190 253 206 q 280 160 268 174 q 308 141 292 147 q 343 135 325 135 q 388 145 367 135 q 421 175 408 156 q 439 217 433 194 q 444 263 444 240 l 444 267 l 617 267 l 617 258 q 609 187 617 222 q 585 119 601 151 q 542 60 568 86 q 483 18 515 35 q 415 -5 451 1 q 343 -11 379 -11 m 328 1096 l 239 1168 l 414 1369 l 524 1283 l 328 1096 z "},"":{"ha":694,"x_min":69,"x_max":617,"o":"m 343 -11 q 268 -4 306 -11 q 197 22 231 3 q 138 68 164 40 q 97 131 113 96 q 76 203 82 165 q 69 278 69 240 l 69 444 q 76 519 69 482 q 97 592 82 557 q 138 654 113 626 q 197 701 164 682 q 268 726 231 719 q 343 733 306 733 q 415 727 379 733 q 483 705 450 721 q 541 663 515 689 q 584 606 567 638 q 609 538 601 574 q 617 467 617 503 l 617 456 l 444 456 l 444 461 q 439 506 444 483 q 421 548 433 529 q 387 577 408 567 q 343 588 365 588 q 296 574 318 588 q 262 540 274 561 q 246 494 250 518 q 242 444 242 469 l 242 278 q 246 228 242 253 q 262 183 250 204 q 296 148 274 161 q 343 135 318 135 q 387 145 365 135 q 421 174 408 156 q 439 216 433 193 q 444 261 444 239 l 444 267 l 617 267 l 617 256 q 609 184 617 219 q 584 117 601 149 q 541 59 567 85 q 483 17 515 33 q 415 -5 450 1 q 343 -11 379 -11 m 328 797 l 239 869 l 414 1071 l 524 985 l 328 797 z "},"":{"ha":694,"x_min":69,"x_max":617,"o":"m 343 -11 q 266 -3 304 -11 q 194 25 228 6 q 136 75 161 44 q 96 141 111 106 q 75 215 81 176 q 69 292 69 253 l 69 729 q 75 806 69 768 q 96 880 81 844 q 136 946 111 915 q 194 996 161 976 q 266 1024 228 1015 q 343 1032 304 1032 q 415 1026 379 1032 q 483 1003 451 1019 q 542 960 515 986 q 585 902 568 935 q 609 834 601 869 q 617 763 617 799 l 617 754 l 444 754 l 444 758 q 439 803 444 781 q 421 846 433 826 q 388 876 408 865 q 343 886 367 886 q 308 880 325 886 q 280 860 292 874 q 260 831 268 847 q 249 799 253 815 q 243 764 244 782 q 242 729 242 746 l 242 292 q 243 257 242 275 q 249 222 244 239 q 260 190 253 206 q 280 160 268 174 q 308 141 292 147 q 343 135 325 135 q 388 145 367 135 q 421 175 408 156 q 439 217 433 194 q 444 263 444 240 l 444 267 l 617 267 l 617 258 q 609 187 617 222 q 585 119 601 151 q 542 60 568 86 q 483 18 515 35 q 415 -5 451 1 q 343 -11 379 -11 m 478 1117 l 347 1265 l 217 1117 l 136 1169 l 263 1363 l 432 1363 l 558 1169 l 478 1117 z "},"":{"ha":694,"x_min":69,"x_max":617,"o":"m 343 -11 q 268 -4 306 -11 q 197 22 231 3 q 138 68 164 40 q 97 131 113 96 q 76 203 82 165 q 69 278 69 240 l 69 444 q 76 519 69 482 q 97 592 82 557 q 138 654 113 626 q 197 701 164 682 q 268 726 231 719 q 343 733 306 733 q 415 727 379 733 q 483 705 450 721 q 541 663 515 689 q 584 606 567 638 q 609 538 601 574 q 617 467 617 503 l 617 456 l 444 456 l 444 461 q 439 506 444 483 q 421 548 433 529 q 387 577 408 567 q 343 588 365 588 q 296 574 318 588 q 262 540 274 561 q 246 494 250 518 q 242 444 242 469 l 242 278 q 246 228 242 253 q 262 183 250 204 q 296 148 274 161 q 343 135 318 135 q 387 145 365 135 q 421 174 408 156 q 439 216 433 193 q 444 261 444 239 l 444 267 l 617 267 l 617 256 q 609 184 617 219 q 584 117 601 149 q 541 59 567 85 q 483 17 515 33 q 415 -5 450 1 q 343 -11 379 -11 m 478 818 l 347 967 l 217 818 l 136 871 l 263 1064 l 432 1064 l 558 871 l 478 818 z "},"":{"ha":694,"x_min":69,"x_max":617,"o":"m 343 -11 q 266 -3 304 -11 q 194 25 228 6 q 136 75 161 44 q 96 141 111 106 q 75 215 81 176 q 69 292 69 253 l 69 729 q 75 806 69 768 q 96 880 81 844 q 136 946 111 915 q 194 996 161 976 q 266 1024 228 1015 q 343 1032 304 1032 q 415 1026 379 1032 q 483 1003 451 1019 q 542 960 515 986 q 585 902 568 935 q 609 834 601 869 q 617 763 617 799 l 617 754 l 444 754 l 444 758 q 439 803 444 781 q 421 846 433 826 q 388 876 408 865 q 343 886 367 886 q 308 880 325 886 q 280 860 292 874 q 260 831 268 847 q 249 799 253 815 q 243 764 244 782 q 242 729 242 746 l 242 292 q 243 257 242 275 q 249 222 244 239 q 260 190 253 206 q 280 160 268 174 q 308 141 292 147 q 343 135 325 135 q 388 145 367 135 q 421 175 408 156 q 439 217 433 194 q 444 263 444 240 l 444 267 l 617 267 l 617 258 q 609 187 617 222 q 585 119 601 151 q 542 60 568 86 q 483 18 515 35 q 415 -5 451 1 q 343 -11 379 -11 m 347 1111 q 300 1118 324 1111 q 260 1142 276 1125 q 236 1182 243 1158 q 229 1229 229 1206 q 236 1276 229 1253 q 260 1317 243 1300 q 300 1340 276 1333 q 347 1347 324 1347 q 394 1340 371 1347 q 435 1317 418 1333 q 458 1276 451 1300 q 465 1229 465 1253 q 458 1182 465 1206 q 435 1142 451 1158 q 394 1118 418 1125 q 347 1111 371 1111 z "},"":{"ha":694,"x_min":69,"x_max":617,"o":"m 343 -11 q 268 -4 306 -11 q 197 22 231 3 q 138 68 164 40 q 97 131 113 96 q 76 203 82 165 q 69 278 69 240 l 69 444 q 76 519 69 482 q 97 592 82 557 q 138 654 113 626 q 197 701 164 682 q 268 726 231 719 q 343 733 306 733 q 415 727 379 733 q 483 705 450 721 q 541 663 515 689 q 584 606 567 638 q 609 538 601 574 q 617 467 617 503 l 617 456 l 444 456 l 444 461 q 439 506 444 483 q 421 548 433 529 q 387 577 408 567 q 343 588 365 588 q 296 574 318 588 q 262 540 274 561 q 246 494 250 518 q 242 444 242 469 l 242 278 q 246 228 242 253 q 262 183 250 204 q 296 148 274 161 q 343 135 318 135 q 387 145 365 135 q 421 174 408 156 q 439 216 433 193 q 444 261 444 239 l 444 267 l 617 267 l 617 256 q 609 184 617 219 q 584 117 601 149 q 541 59 567 85 q 483 17 515 33 q 415 -5 450 1 q 343 -11 379 -11 m 347 813 q 300 819 324 813 q 260 843 276 826 q 236 883 243 860 q 229 931 229 907 q 236 978 229 954 q 260 1018 243 1001 q 300 1042 276 1035 q 347 1049 324 1049 q 394 1042 371 1049 q 435 1018 418 1035 q 458 978 451 1001 q 465 931 465 954 q 458 883 465 907 q 435 843 451 860 q 394 819 418 826 q 347 813 371 813 z "},"":{"ha":694,"x_min":69,"x_max":617,"o":"m 343 -11 q 266 -3 304 -11 q 194 25 228 6 q 136 75 161 44 q 96 141 111 106 q 75 215 81 176 q 69 292 69 253 l 69 729 q 75 806 69 768 q 96 880 81 844 q 136 946 111 915 q 194 996 161 976 q 266 1024 228 1015 q 343 1032 304 1032 q 415 1026 379 1032 q 483 1003 451 1019 q 542 960 515 986 q 585 902 568 935 q 609 834 601 869 q 617 763 617 799 l 617 754 l 444 754 l 444 758 q 439 803 444 781 q 421 846 433 826 q 388 876 408 865 q 343 886 367 886 q 308 880 325 886 q 280 860 292 874 q 260 831 268 847 q 249 799 253 815 q 243 764 244 782 q 242 729 242 746 l 242 292 q 243 257 242 275 q 249 222 244 239 q 260 190 253 206 q 280 160 268 174 q 308 141 292 147 q 343 135 325 135 q 388 145 367 135 q 421 175 408 156 q 439 217 433 194 q 444 263 444 240 l 444 267 l 617 267 l 617 258 q 609 187 617 222 q 585 119 601 151 q 542 60 568 86 q 483 18 515 35 q 415 -5 451 1 q 343 -11 379 -11 m 263 1132 l 136 1325 l 217 1378 l 347 1229 l 478 1378 l 558 1325 l 432 1132 l 263 1132 z "},"":{"ha":694,"x_min":69,"x_max":617,"o":"m 343 -11 q 268 -4 306 -11 q 197 22 231 3 q 138 68 164 40 q 97 131 113 96 q 76 203 82 165 q 69 278 69 240 l 69 444 q 76 519 69 482 q 97 592 82 557 q 138 654 113 626 q 197 701 164 682 q 268 726 231 719 q 343 733 306 733 q 415 727 379 733 q 483 705 450 721 q 541 663 515 689 q 584 606 567 638 q 609 538 601 574 q 617 467 617 503 l 617 456 l 444 456 l 444 461 q 439 506 444 483 q 421 548 433 529 q 387 577 408 567 q 343 588 365 588 q 296 574 318 588 q 262 540 274 561 q 246 494 250 518 q 242 444 242 469 l 242 278 q 246 228 242 253 q 262 183 250 204 q 296 148 274 161 q 343 135 318 135 q 387 145 365 135 q 421 174 408 156 q 439 216 433 193 q 444 261 444 239 l 444 267 l 617 267 l 617 256 q 609 184 617 219 q 584 117 601 149 q 541 59 567 85 q 483 17 515 33 q 415 -5 450 1 q 343 -11 379 -11 m 263 833 l 136 1026 l 217 1079 l 347 931 l 478 1079 l 558 1026 l 432 833 l 263 833 z "},"":{"ha":694,"x_min":81,"x_max":625,"o":"m 81 0 l 81 1021 l 293 1021 q 380 1014 336 1021 q 463 988 424 1007 q 535 939 503 969 q 588 869 568 908 q 617 787 608 831 q 625 700 625 743 l 625 321 q 617 234 625 278 q 588 151 608 190 q 535 82 568 113 q 463 33 503 51 q 380 7 424 14 q 293 0 336 0 l 81 0 m 253 146 l 293 146 q 338 151 315 146 q 379 167 360 156 q 413 195 399 178 q 437 233 428 213 q 449 276 446 254 q 453 321 453 299 l 453 700 q 449 744 453 722 q 437 788 446 767 q 413 826 428 808 q 379 854 399 843 q 338 870 360 865 q 293 875 315 875 l 253 875 l 253 146 m 263 1132 l 136 1325 l 217 1378 l 347 1229 l 478 1378 l 558 1325 l 432 1132 l 263 1132 z "},"":{"ha":694,"x_min":69,"x_max":768,"o":"m 674 781 l 611 840 q 641 876 628 856 q 663 918 654 896 q 640 928 650 921 q 622 947 629 936 q 613 969 615 957 q 610 994 610 982 q 615 1026 610 1010 q 631 1053 619 1042 q 658 1069 642 1064 q 689 1074 674 1074 q 720 1069 704 1074 q 747 1053 736 1064 q 763 1026 758 1042 q 768 994 768 1010 q 762 934 768 964 q 744 876 756 904 q 714 824 732 849 q 674 781 696 800 m 250 -11 q 189 0 218 -11 q 138 33 160 11 q 103 84 117 56 q 83 142 90 113 q 72 203 75 172 q 69 264 69 233 l 69 458 q 72 519 69 489 q 83 580 75 550 q 103 638 90 610 q 138 689 117 667 q 189 722 160 711 q 250 733 218 733 q 302 725 276 733 q 349 699 328 717 q 383 659 369 682 q 407 610 397 636 l 407 1021 l 579 1021 l 579 0 l 407 0 l 407 113 q 383 63 397 86 q 349 23 369 40 q 302 -3 328 6 q 250 -11 276 -11 m 324 135 q 364 148 346 135 q 392 181 382 161 q 404 221 401 200 q 407 264 407 242 l 407 458 q 404 501 407 481 q 392 542 401 522 q 364 574 382 561 q 325 588 346 588 q 285 574 303 588 q 257 542 267 561 q 244 501 247 522 q 242 458 242 481 l 242 264 q 244 221 242 242 q 257 181 247 200 q 285 148 267 161 q 324 135 303 135 z "},"":{"ha":694,"x_min":24,"x_max":625,"o":"m 81 0 l 81 457 l 24 457 l 24 564 l 81 564 l 81 1021 l 293 1021 q 380 1014 336 1021 q 463 988 424 1007 q 535 939 503 969 q 588 869 568 908 q 617 787 608 831 q 625 700 625 743 l 625 321 q 617 234 625 278 q 588 151 608 190 q 535 82 568 113 q 463 33 503 51 q 380 7 424 14 q 293 0 336 0 l 81 0 m 253 146 l 293 146 q 338 151 315 146 q 379 167 360 156 q 413 195 399 178 q 437 233 428 213 q 449 276 446 254 q 453 321 453 299 l 453 700 q 449 744 453 722 q 437 788 446 767 q 413 826 428 808 q 379 854 399 843 q 338 870 360 865 q 293 875 315 875 l 253 875 l 253 564 l 367 564 l 367 457 l 253 457 l 253 146 z "},"":{"ha":694,"x_min":69,"x_max":671,"o":"m 267 -11 q 202 0 233 -11 q 147 34 171 11 q 108 87 124 57 q 84 148 93 117 q 72 212 75 179 q 69 278 69 244 l 69 444 q 72 510 69 478 q 84 574 75 543 q 108 635 93 606 q 147 688 124 665 q 202 722 171 711 q 267 733 233 733 q 325 724 296 733 q 377 697 354 715 q 416 652 400 678 q 442 599 432 626 l 442 818 l 315 818 l 315 925 l 442 925 l 442 1021 l 614 1021 l 614 925 l 671 925 l 671 818 l 614 818 l 614 0 l 442 0 l 442 124 q 416 70 432 96 q 377 26 400 44 q 325 -2 354 7 q 267 -11 296 -11 m 342 135 q 388 148 367 135 q 422 183 410 161 q 438 228 433 204 q 442 278 442 253 l 442 444 q 438 494 442 469 q 422 540 433 518 q 388 574 410 561 q 342 588 367 588 q 295 574 317 588 q 262 540 274 561 q 246 494 250 518 q 242 444 242 469 l 242 278 q 246 228 242 253 q 262 183 250 204 q 295 148 274 161 q 342 135 317 135 z "},"":{"ha":694,"x_min":92,"x_max":614,"o":"m 92 0 l 92 1021 l 614 1021 l 614 875 l 264 875 l 264 604 l 533 604 l 533 458 l 264 458 l 264 146 l 614 146 l 614 0 l 92 0 m 139 1172 l 139 1286 l 556 1286 l 556 1172 l 139 1172 z "},"":{"ha":694,"x_min":69,"x_max":625,"o":"m 347 -11 q 271 -4 308 -11 q 200 21 233 3 q 140 67 167 39 q 98 130 114 96 q 76 202 82 164 q 69 278 69 240 l 69 444 q 76 520 69 482 q 98 592 82 558 q 140 655 114 626 q 200 701 167 683 q 272 726 233 719 q 347 733 310 733 q 423 726 385 733 q 494 701 461 719 q 554 655 528 683 q 597 592 581 626 q 619 520 613 558 q 625 444 625 482 l 625 289 l 242 289 l 242 278 q 246 228 242 253 q 263 181 250 203 q 299 147 276 160 q 347 135 322 135 q 384 139 365 135 q 418 154 403 143 q 442 183 433 165 q 450 218 450 200 l 622 218 q 613 152 622 185 q 584 92 603 119 q 538 43 565 64 q 478 10 510 22 q 414 -6 447 -1 q 347 -11 381 -11 m 242 433 l 453 433 l 453 444 q 449 494 453 469 q 431 541 444 519 q 395 575 418 563 q 347 588 372 588 q 299 575 322 588 q 263 541 276 563 q 246 494 250 519 q 242 444 242 469 l 242 433 m 139 874 l 139 988 l 556 988 l 556 874 l 139 874 z "},"":{"ha":694,"x_min":92,"x_max":614,"o":"m 92 0 l 92 1021 l 614 1021 l 614 875 l 264 875 l 264 604 l 533 604 l 533 458 l 264 458 l 264 146 l 614 146 l 614 0 l 92 0 m 347 1132 q 290 1135 318 1132 q 234 1149 261 1139 q 183 1176 207 1160 q 143 1217 160 1193 q 119 1269 126 1240 q 113 1326 113 1297 l 249 1326 q 256 1292 249 1308 q 278 1265 264 1275 q 311 1251 293 1254 q 347 1247 329 1247 q 383 1251 365 1247 q 416 1265 401 1254 q 438 1292 431 1275 q 446 1326 446 1308 l 582 1326 q 575 1269 582 1297 q 551 1217 568 1240 q 511 1176 535 1193 q 460 1149 488 1160 q 405 1135 433 1139 q 347 1132 376 1132 z "},"":{"ha":694,"x_min":69,"x_max":625,"o":"m 347 -11 q 271 -4 308 -11 q 200 21 233 3 q 140 67 167 39 q 98 130 114 96 q 76 202 82 164 q 69 278 69 240 l 69 444 q 76 520 69 482 q 98 592 82 558 q 140 655 114 626 q 200 701 167 683 q 272 726 233 719 q 347 733 310 733 q 423 726 385 733 q 494 701 461 719 q 554 655 528 683 q 597 592 581 626 q 619 520 613 558 q 625 444 625 482 l 625 289 l 242 289 l 242 278 q 246 228 242 253 q 263 181 250 203 q 299 147 276 160 q 347 135 322 135 q 384 139 365 135 q 418 154 403 143 q 442 183 433 165 q 450 218 450 200 l 622 218 q 613 152 622 185 q 584 92 603 119 q 538 43 565 64 q 478 10 510 22 q 414 -6 447 -1 q 347 -11 381 -11 m 242 433 l 453 433 l 453 444 q 449 494 453 469 q 431 541 444 519 q 395 575 418 563 q 347 588 372 588 q 299 575 322 588 q 263 541 276 563 q 246 494 250 519 q 242 444 242 469 l 242 433 m 347 833 q 290 837 318 833 q 234 851 261 840 q 183 878 207 861 q 143 918 160 894 q 119 970 126 942 q 113 1028 113 999 l 249 1028 q 256 993 249 1010 q 278 966 264 976 q 311 952 293 956 q 347 949 329 949 q 383 952 365 949 q 416 966 401 956 q 438 993 431 976 q 446 1028 446 1010 l 582 1028 q 575 970 582 999 q 551 918 568 942 q 511 878 535 894 q 460 851 488 861 q 405 837 433 840 q 347 833 376 833 z "},"":{"ha":694,"x_min":92,"x_max":614,"o":"m 92 0 l 92 1021 l 614 1021 l 614 875 l 264 875 l 264 604 l 533 604 l 533 458 l 264 458 l 264 146 l 614 146 l 614 0 l 92 0 m 347 1111 q 300 1118 324 1111 q 260 1142 276 1125 q 236 1182 243 1158 q 229 1229 229 1206 q 236 1276 229 1253 q 260 1317 243 1300 q 300 1340 276 1333 q 347 1347 324 1347 q 394 1340 371 1347 q 435 1317 418 1333 q 458 1276 451 1300 q 465 1229 465 1253 q 458 1182 465 1206 q 435 1142 451 1158 q 394 1118 418 1125 q 347 1111 371 1111 z "},"":{"ha":694,"x_min":69,"x_max":625,"o":"m 347 -11 q 271 -4 308 -11 q 200 21 233 3 q 140 67 167 39 q 98 130 114 96 q 76 202 82 164 q 69 278 69 240 l 69 444 q 76 520 69 482 q 98 592 82 558 q 140 655 114 626 q 200 701 167 683 q 272 726 233 719 q 347 733 310 733 q 423 726 385 733 q 494 701 461 719 q 554 655 528 683 q 597 592 581 626 q 619 520 613 558 q 625 444 625 482 l 625 289 l 242 289 l 242 278 q 246 228 242 253 q 263 181 250 203 q 299 147 276 160 q 347 135 322 135 q 384 139 365 135 q 418 154 403 143 q 442 183 433 165 q 450 218 450 200 l 622 218 q 613 152 622 185 q 584 92 603 119 q 538 43 565 64 q 478 10 510 22 q 414 -6 447 -1 q 347 -11 381 -11 m 242 433 l 453 433 l 453 444 q 449 494 453 469 q 431 541 444 519 q 395 575 418 563 q 347 588 372 588 q 299 575 322 588 q 263 541 276 563 q 246 494 250 519 q 242 444 242 469 l 242 433 m 347 813 q 300 819 324 813 q 260 843 276 826 q 236 883 243 860 q 229 931 229 907 q 236 978 229 954 q 260 1018 243 1001 q 300 1042 276 1035 q 347 1049 324 1049 q 394 1042 371 1049 q 435 1018 418 1035 q 458 978 451 1001 q 465 931 465 954 q 458 883 465 907 q 435 843 451 860 q 394 819 418 826 q 347 813 371 813 z "},"":{"ha":694,"x_min":92,"x_max":632,"o":"m 92 0 l 92 1021 l 614 1021 l 614 875 l 264 875 l 264 604 l 533 604 l 533 458 l 264 458 l 264 146 l 614 146 l 614 0 l 92 0 m 581 -311 q 536 -307 558 -311 q 493 -296 514 -303 q 453 -278 472 -289 q 419 -249 433 -267 q 397 -210 404 -232 q 390 -167 390 -189 q 399 -111 390 -139 q 424 -60 408 -83 q 462 -18 440 -37 q 508 16 483 1 q 559 41 532 31 q 614 56 586 51 l 614 0 q 579 -24 594 -10 q 553 -58 564 -39 q 534 -97 542 -76 q 526 -137 526 -117 q 531 -162 526 -150 q 547 -181 536 -174 q 569 -192 557 -189 q 594 -194 582 -194 q 613 -193 604 -194 q 632 -189 622 -192 l 632 -304 q 606 -309 619 -307 q 581 -311 593 -311 z "},"":{"ha":694,"x_min":69,"x_max":625,"o":"m 556 -311 q 492 -303 524 -311 q 436 -276 461 -296 q 397 -228 411 -257 q 382 -167 382 -199 q 390 -118 382 -142 q 409 -73 397 -94 q 436 -32 421 -51 q 468 6 451 -12 q 408 -8 439 -4 q 347 -11 378 -11 q 271 -4 308 -11 q 200 21 233 3 q 140 67 167 39 q 98 130 114 96 q 76 202 82 164 q 69 278 69 240 l 69 444 q 76 520 69 482 q 98 592 82 558 q 140 655 114 626 q 200 701 167 683 q 272 726 233 719 q 347 733 310 733 q 423 726 385 733 q 494 701 461 719 q 554 655 528 683 q 597 592 581 626 q 619 520 613 558 q 625 444 625 482 l 625 289 l 242 289 l 242 278 q 246 228 242 253 q 263 181 250 203 q 299 147 276 160 q 347 135 322 135 q 384 139 365 135 q 418 154 403 143 q 442 183 433 165 q 450 218 450 200 l 622 218 q 619 172 622 194 q 612 126 617 149 q 600 81 607 103 q 585 36 593 58 q 566 -7 576 14 q 546 -49 556 -28 q 527 -92 536 -71 q 518 -137 518 -114 q 523 -162 518 -150 q 538 -181 528 -174 q 560 -192 547 -189 q 585 -194 572 -194 q 604 -193 594 -194 q 622 -189 614 -192 l 622 -304 q 589 -310 606 -308 q 556 -311 572 -311 m 242 433 l 453 433 l 453 444 q 449 494 453 469 q 431 541 444 519 q 395 575 418 563 q 347 588 372 588 q 299 575 322 588 q 263 541 276 563 q 246 494 250 519 q 242 444 242 469 l 242 433 z "},"":{"ha":694,"x_min":92,"x_max":614,"o":"m 92 0 l 92 1021 l 614 1021 l 614 875 l 264 875 l 264 604 l 533 604 l 533 458 l 264 458 l 264 146 l 614 146 l 614 0 l 92 0 m 263 1132 l 136 1325 l 217 1378 l 347 1229 l 478 1378 l 558 1325 l 432 1132 l 263 1132 z "},"":{"ha":694,"x_min":69,"x_max":625,"o":"m 347 -11 q 271 -4 308 -11 q 200 21 233 3 q 140 67 167 39 q 98 130 114 96 q 76 202 82 164 q 69 278 69 240 l 69 444 q 76 520 69 482 q 98 592 82 558 q 140 655 114 626 q 200 701 167 683 q 272 726 233 719 q 347 733 310 733 q 423 726 385 733 q 494 701 461 719 q 554 655 528 683 q 597 592 581 626 q 619 520 613 558 q 625 444 625 482 l 625 289 l 242 289 l 242 278 q 246 228 242 253 q 263 181 250 203 q 299 147 276 160 q 347 135 322 135 q 384 139 365 135 q 418 154 403 143 q 442 183 433 165 q 450 218 450 200 l 622 218 q 613 152 622 185 q 584 92 603 119 q 538 43 565 64 q 478 10 510 22 q 414 -6 447 -1 q 347 -11 381 -11 m 242 433 l 453 433 l 453 444 q 449 494 453 469 q 431 541 444 519 q 395 575 418 563 q 347 588 372 588 q 299 575 322 588 q 263 541 276 563 q 246 494 250 519 q 242 444 242 469 l 242 433 m 263 833 l 136 1026 l 217 1079 l 347 931 l 478 1079 l 558 1026 l 432 833 l 263 833 z "},"":{"ha":694,"x_min":69,"x_max":617,"o":"m 267 -11 q 201 1 233 -11 q 144 38 168 14 q 106 94 121 63 q 83 158 92 125 q 72 224 75 190 q 69 292 69 258 l 69 729 q 75 806 69 768 q 96 880 81 844 q 136 946 111 915 q 194 996 161 976 q 266 1024 228 1015 q 343 1032 304 1032 q 415 1026 379 1032 q 483 1003 451 1019 q 542 960 515 986 q 585 902 568 935 q 609 834 601 869 q 617 763 617 799 l 617 754 l 444 754 l 444 758 q 439 803 444 781 q 421 846 433 826 q 388 876 408 865 q 343 886 367 886 q 308 880 325 886 q 280 860 292 874 q 260 831 268 847 q 249 799 253 815 q 243 764 244 782 q 242 729 242 746 l 242 292 q 243 258 242 275 q 249 223 244 240 q 260 190 253 206 q 280 161 268 174 q 308 142 292 149 q 342 135 324 135 q 376 142 360 135 q 403 161 392 149 q 423 190 415 174 q 435 223 431 206 q 440 258 439 240 q 442 292 442 275 l 442 421 l 347 421 l 347 567 l 614 567 l 614 0 l 453 0 l 453 171 q 431 103 444 136 q 393 43 417 69 q 336 3 369 17 q 267 -11 303 -11 m 478 1117 l 347 1265 l 217 1117 l 136 1169 l 263 1363 l 432 1363 l 558 1169 l 478 1117 z "},"":{"ha":694,"x_min":69,"x_max":614,"o":"m 344 -310 q 281 -306 313 -310 q 219 -290 249 -301 q 162 -260 189 -279 q 116 -215 135 -240 q 88 -158 97 -189 q 78 -94 78 -126 l 250 -94 q 259 -126 250 -111 q 282 -149 268 -140 q 312 -161 296 -158 q 344 -164 328 -164 q 390 -151 369 -164 q 423 -116 411 -137 q 438 -70 435 -94 q 442 -21 442 -46 l 442 124 q 416 70 432 96 q 377 26 400 44 q 325 -2 354 7 q 267 -11 296 -11 q 202 0 233 -11 q 147 34 171 11 q 108 87 124 57 q 84 148 93 117 q 72 212 75 179 q 69 278 69 244 l 69 444 q 72 510 69 478 q 84 574 75 543 q 108 635 93 606 q 147 688 124 665 q 202 722 171 711 q 267 733 233 733 q 325 724 296 733 q 377 697 354 715 q 416 652 400 678 q 442 599 432 626 l 442 722 l 614 722 l 614 -21 q 608 -96 614 -58 q 588 -167 603 -133 q 547 -230 572 -201 q 489 -276 521 -258 q 419 -302 457 -294 q 344 -310 382 -310 m 342 135 q 388 148 367 135 q 422 183 410 161 q 438 228 433 204 q 442 278 442 253 l 442 444 q 438 494 442 469 q 422 540 433 518 q 388 574 410 561 q 342 588 367 588 q 295 574 317 588 q 262 540 274 561 q 246 494 250 518 q 242 444 242 469 l 242 278 q 246 228 242 253 q 262 183 250 204 q 295 148 274 161 q 342 135 317 135 m 478 818 l 347 967 l 217 818 l 136 871 l 263 1064 l 432 1064 l 558 871 l 478 818 z "},"":{"ha":694,"x_min":69,"x_max":617,"o":"m 267 -11 q 201 1 233 -11 q 144 38 168 14 q 106 94 121 63 q 83 158 92 125 q 72 224 75 190 q 69 292 69 258 l 69 729 q 75 806 69 768 q 96 880 81 844 q 136 946 111 915 q 194 996 161 976 q 266 1024 228 1015 q 343 1032 304 1032 q 415 1026 379 1032 q 483 1003 451 1019 q 542 960 515 986 q 585 902 568 935 q 609 834 601 869 q 617 763 617 799 l 617 754 l 444 754 l 444 758 q 439 803 444 781 q 421 846 433 826 q 388 876 408 865 q 343 886 367 886 q 308 880 325 886 q 280 860 292 874 q 260 831 268 847 q 249 799 253 815 q 243 764 244 782 q 242 729 242 746 l 242 292 q 243 258 242 275 q 249 223 244 240 q 260 190 253 206 q 280 161 268 174 q 308 142 292 149 q 342 135 324 135 q 376 142 360 135 q 403 161 392 149 q 423 190 415 174 q 435 223 431 206 q 440 258 439 240 q 442 292 442 275 l 442 421 l 347 421 l 347 567 l 614 567 l 614 0 l 453 0 l 453 171 q 431 103 444 136 q 393 43 417 69 q 336 3 369 17 q 267 -11 303 -11 m 347 1132 q 290 1135 318 1132 q 234 1149 261 1139 q 183 1176 207 1160 q 143 1217 160 1193 q 119 1269 126 1240 q 113 1326 113 1297 l 249 1326 q 256 1292 249 1308 q 278 1265 264 1275 q 311 1251 293 1254 q 347 1247 329 1247 q 383 1251 365 1247 q 416 1265 401 1254 q 438 1292 431 1275 q 446 1326 446 1308 l 582 1326 q 575 1269 582 1297 q 551 1217 568 1240 q 511 1176 535 1193 q 460 1149 488 1160 q 405 1135 433 1139 q 347 1132 376 1132 z "},"":{"ha":694,"x_min":69,"x_max":614,"o":"m 344 -310 q 281 -306 313 -310 q 219 -290 249 -301 q 162 -260 189 -279 q 116 -215 135 -240 q 88 -158 97 -189 q 78 -94 78 -126 l 250 -94 q 259 -126 250 -111 q 282 -149 268 -140 q 312 -161 296 -158 q 344 -164 328 -164 q 390 -151 369 -164 q 423 -116 411 -137 q 438 -70 435 -94 q 442 -21 442 -46 l 442 124 q 416 70 432 96 q 377 26 400 44 q 325 -2 354 7 q 267 -11 296 -11 q 202 0 233 -11 q 147 34 171 11 q 108 87 124 57 q 84 148 93 117 q 72 212 75 179 q 69 278 69 244 l 69 444 q 72 510 69 478 q 84 574 75 543 q 108 635 93 606 q 147 688 124 665 q 202 722 171 711 q 267 733 233 733 q 325 724 296 733 q 377 697 354 715 q 416 652 400 678 q 442 599 432 626 l 442 722 l 614 722 l 614 -21 q 608 -96 614 -58 q 588 -167 603 -133 q 547 -230 572 -201 q 489 -276 521 -258 q 419 -302 457 -294 q 344 -310 382 -310 m 342 135 q 388 148 367 135 q 422 183 410 161 q 438 228 433 204 q 442 278 442 253 l 442 444 q 438 494 442 469 q 422 540 433 518 q 388 574 410 561 q 342 588 367 588 q 295 574 317 588 q 262 540 274 561 q 246 494 250 518 q 242 444 242 469 l 242 278 q 246 228 242 253 q 262 183 250 204 q 295 148 274 161 q 342 135 317 135 m 347 833 q 290 837 318 833 q 234 851 261 840 q 183 878 207 861 q 143 918 160 894 q 119 970 126 942 q 113 1028 113 999 l 249 1028 q 256 993 249 1010 q 278 966 264 976 q 311 952 293 956 q 347 949 329 949 q 383 952 365 949 q 416 966 401 956 q 438 993 431 976 q 446 1028 446 1010 l 582 1028 q 575 970 582 999 q 551 918 568 942 q 511 878 535 894 q 460 851 488 861 q 405 837 433 840 q 347 833 376 833 z "},"":{"ha":694,"x_min":69,"x_max":617,"o":"m 267 -11 q 201 1 233 -11 q 144 38 168 14 q 106 94 121 63 q 83 158 92 125 q 72 224 75 190 q 69 292 69 258 l 69 729 q 75 806 69 768 q 96 880 81 844 q 136 946 111 915 q 194 996 161 976 q 266 1024 228 1015 q 343 1032 304 1032 q 415 1026 379 1032 q 483 1003 451 1019 q 542 960 515 986 q 585 902 568 935 q 609 834 601 869 q 617 763 617 799 l 617 754 l 444 754 l 444 758 q 439 803 444 781 q 421 846 433 826 q 388 876 408 865 q 343 886 367 886 q 308 880 325 886 q 280 860 292 874 q 260 831 268 847 q 249 799 253 815 q 243 764 244 782 q 242 729 242 746 l 242 292 q 243 258 242 275 q 249 223 244 240 q 260 190 253 206 q 280 161 268 174 q 308 142 292 149 q 342 135 324 135 q 376 142 360 135 q 403 161 392 149 q 423 190 415 174 q 435 223 431 206 q 440 258 439 240 q 442 292 442 275 l 442 421 l 347 421 l 347 567 l 614 567 l 614 0 l 453 0 l 453 171 q 431 103 444 136 q 393 43 417 69 q 336 3 369 17 q 267 -11 303 -11 m 347 1111 q 300 1118 324 1111 q 260 1142 276 1125 q 236 1182 243 1158 q 229 1229 229 1206 q 236 1276 229 1253 q 260 1317 243 1300 q 300 1340 276 1333 q 347 1347 324 1347 q 394 1340 371 1347 q 435 1317 418 1333 q 458 1276 451 1300 q 465 1229 465 1253 q 458 1182 465 1206 q 435 1142 451 1158 q 394 1118 418 1125 q 347 1111 371 1111 z "},"":{"ha":694,"x_min":69,"x_max":614,"o":"m 344 -310 q 281 -306 313 -310 q 219 -290 249 -301 q 162 -260 189 -279 q 116 -215 135 -240 q 88 -158 97 -189 q 78 -94 78 -126 l 250 -94 q 259 -126 250 -111 q 282 -149 268 -140 q 312 -161 296 -158 q 344 -164 328 -164 q 390 -151 369 -164 q 423 -116 411 -137 q 438 -70 435 -94 q 442 -21 442 -46 l 442 124 q 416 70 432 96 q 377 26 400 44 q 325 -2 354 7 q 267 -11 296 -11 q 202 0 233 -11 q 147 34 171 11 q 108 87 124 57 q 84 148 93 117 q 72 212 75 179 q 69 278 69 244 l 69 444 q 72 510 69 478 q 84 574 75 543 q 108 635 93 606 q 147 688 124 665 q 202 722 171 711 q 267 733 233 733 q 325 724 296 733 q 377 697 354 715 q 416 652 400 678 q 442 599 432 626 l 442 722 l 614 722 l 614 -21 q 608 -96 614 -58 q 588 -167 603 -133 q 547 -230 572 -201 q 489 -276 521 -258 q 419 -302 457 -294 q 344 -310 382 -310 m 342 135 q 388 148 367 135 q 422 183 410 161 q 438 228 433 204 q 442 278 442 253 l 442 444 q 438 494 442 469 q 422 540 433 518 q 388 574 410 561 q 342 588 367 588 q 295 574 317 588 q 262 540 274 561 q 246 494 250 518 q 242 444 242 469 l 242 278 q 246 228 242 253 q 262 183 250 204 q 295 148 274 161 q 342 135 317 135 m 347 813 q 300 819 324 813 q 260 843 276 826 q 236 883 243 860 q 229 931 229 907 q 236 978 229 954 q 260 1018 243 1001 q 300 1042 276 1035 q 347 1049 324 1049 q 394 1042 371 1049 q 435 1018 418 1035 q 458 978 451 1001 q 465 931 465 954 q 458 883 465 907 q 435 843 451 860 q 394 819 418 826 q 347 813 371 813 z "},"":{"ha":694,"x_min":69,"x_max":617,"o":"m 267 -11 q 201 1 233 -11 q 144 38 168 14 q 106 94 121 63 q 83 158 92 125 q 72 224 75 190 q 69 292 69 258 l 69 729 q 75 806 69 768 q 96 880 81 844 q 136 946 111 915 q 194 996 161 976 q 266 1024 228 1015 q 343 1032 304 1032 q 415 1026 379 1032 q 483 1003 451 1019 q 542 960 515 986 q 585 902 568 935 q 609 834 601 869 q 617 763 617 799 l 617 754 l 444 754 l 444 758 q 439 803 444 781 q 421 846 433 826 q 388 876 408 865 q 343 886 367 886 q 308 880 325 886 q 280 860 292 874 q 260 831 268 847 q 249 799 253 815 q 243 764 244 782 q 242 729 242 746 l 242 292 q 243 258 242 275 q 249 223 244 240 q 260 190 253 206 q 280 161 268 174 q 308 142 292 149 q 342 135 324 135 q 376 142 360 135 q 403 161 392 149 q 423 190 415 174 q 435 223 431 206 q 440 258 439 240 q 442 292 442 275 l 442 421 l 347 421 l 347 567 l 614 567 l 614 0 l 453 0 l 453 171 q 431 103 444 136 q 393 43 417 69 q 336 3 369 17 q 267 -11 303 -11 m 332 -360 l 269 -301 q 299 -265 286 -285 q 321 -222 313 -244 q 298 -212 308 -219 q 281 -194 288 -204 q 271 -171 274 -183 q 268 -146 268 -158 q 273 -115 268 -131 q 289 -88 278 -100 q 316 -72 300 -76 q 347 -67 332 -67 q 378 -72 363 -67 q 406 -88 394 -76 q 422 -115 417 -100 q 426 -146 426 -131 q 420 -206 426 -176 q 402 -264 414 -236 q 372 -316 390 -292 q 332 -360 354 -340 z "},"":{"ha":694,"x_min":69,"x_max":614,"o":"m 344 -310 q 281 -306 313 -310 q 219 -290 249 -301 q 162 -260 189 -279 q 116 -215 135 -240 q 88 -158 97 -189 q 78 -94 78 -126 l 250 -94 q 259 -126 250 -111 q 282 -149 268 -140 q 312 -161 296 -158 q 344 -164 328 -164 q 390 -151 369 -164 q 423 -116 411 -137 q 438 -70 435 -94 q 442 -21 442 -46 l 442 124 q 416 70 432 96 q 377 26 400 44 q 325 -2 354 7 q 267 -11 296 -11 q 202 0 233 -11 q 147 34 171 11 q 108 87 124 57 q 84 148 93 117 q 72 212 75 179 q 69 278 69 244 l 69 444 q 72 510 69 478 q 84 574 75 543 q 108 635 93 606 q 147 688 124 665 q 202 722 171 711 q 267 733 233 733 q 325 724 296 733 q 377 697 354 715 q 416 652 400 678 q 442 599 432 626 l 442 722 l 614 722 l 614 -21 q 608 -96 614 -58 q 588 -167 603 -133 q 547 -230 572 -201 q 489 -276 521 -258 q 419 -302 457 -294 q 344 -310 382 -310 m 342 135 q 388 148 367 135 q 422 183 410 161 q 438 228 433 204 q 442 278 442 253 l 442 444 q 438 494 442 469 q 422 540 433 518 q 388 574 410 561 q 342 588 367 588 q 295 574 317 588 q 262 540 274 561 q 246 494 250 518 q 242 444 242 469 l 242 278 q 246 228 242 253 q 262 183 250 204 q 295 148 274 161 q 342 135 317 135 m 347 789 q 316 794 332 789 q 289 810 300 799 q 273 838 278 822 q 268 868 268 853 q 274 928 268 899 q 292 986 281 958 q 322 1038 304 1014 q 363 1082 340 1063 l 425 1024 q 395 987 408 1007 q 374 944 382 967 q 397 934 386 942 q 414 916 407 926 q 424 893 421 906 q 426 868 426 881 q 422 838 426 853 q 406 810 417 822 q 378 794 394 799 q 347 789 363 789 z "},"":{"ha":694,"x_min":81,"x_max":614,"o":"m 81 0 l 81 1021 l 253 1021 l 253 596 l 442 596 l 442 1021 l 614 1021 l 614 0 l 442 0 l 442 450 l 253 450 l 253 0 l 81 0 m 478 1117 l 347 1265 l 217 1117 l 136 1169 l 263 1363 l 432 1363 l 558 1169 l 478 1117 z "},"":{"ha":694,"x_min":-46,"x_max":614,"o":"m 81 0 l 81 1021 l 253 1021 l 253 600 q 278 653 263 628 q 315 697 293 678 q 365 724 338 715 q 422 733 393 733 q 485 722 454 733 q 540 687 517 710 q 577 634 563 664 q 600 573 592 604 q 611 509 608 542 q 614 444 614 476 l 614 0 l 442 0 l 442 444 q 440 477 442 461 q 435 508 439 493 q 424 538 431 524 q 406 565 417 553 q 379 582 394 576 q 347 588 364 588 q 315 582 331 588 q 289 565 300 576 q 271 538 278 553 q 260 508 264 524 q 254 477 256 493 q 253 444 253 461 l 253 0 l 81 0 m 297 1117 l 167 1265 l 36 1117 l -44 1169 l 82 1363 l 251 1363 l 378 1169 l 297 1117 z "},"":{"ha":694,"x_min":24,"x_max":671,"o":"m 81 0 l 81 754 l 24 754 l 24 863 l 81 863 l 81 1021 l 253 1021 l 253 863 l 442 863 l 442 1021 l 614 1021 l 614 863 l 671 863 l 671 754 l 614 754 l 614 0 l 442 0 l 442 450 l 253 450 l 253 0 l 81 0 m 253 596 l 442 596 l 442 754 l 253 754 l 253 596 z "},"":{"ha":694,"x_min":24,"x_max":614,"o":"m 81 0 l 81 803 l 24 803 l 24 910 l 81 910 l 81 1021 l 253 1021 l 253 910 l 347 910 l 347 803 l 253 803 l 253 600 q 278 653 263 628 q 315 697 293 678 q 365 724 338 715 q 422 733 393 733 q 485 722 454 733 q 540 687 517 710 q 577 634 563 664 q 600 573 592 604 q 611 509 608 542 q 614 444 614 476 l 614 0 l 442 0 l 442 444 q 440 477 442 461 q 435 508 439 493 q 424 538 431 524 q 406 565 417 553 q 379 582 394 576 q 347 588 364 588 q 315 582 331 588 q 289 565 300 576 q 271 538 278 553 q 260 508 264 524 q 254 477 256 493 q 253 444 253 461 l 253 0 l 81 0 z "},"":{"ha":694,"x_min":79,"x_max":615,"o":"m 104 0 l 104 146 l 261 146 l 261 875 l 104 875 l 104 1021 l 590 1021 l 590 875 l 433 875 l 433 146 l 590 146 l 590 0 l 104 0 m 426 1128 q 413 1128 419 1128 q 400 1131 407 1129 q 388 1133 393 1132 q 376 1138 382 1135 q 363 1144 369 1140 q 352 1151 357 1147 q 342 1158 347 1154 q 331 1167 336 1163 q 322 1176 326 1171 q 313 1185 317 1181 q 304 1194 308 1190 q 297 1203 300 1199 q 288 1215 293 1208 q 277 1226 282 1221 q 267 1235 272 1231 q 263 1242 263 1240 l 274 1242 q 269 1236 274 1239 q 261 1228 265 1233 q 256 1222 257 1224 q 252 1218 254 1221 q 248 1213 250 1215 q 244 1206 246 1210 q 239 1199 242 1203 q 233 1192 236 1196 q 228 1183 231 1188 q 224 1174 226 1179 q 217 1165 221 1169 q 211 1154 214 1160 q 206 1143 208 1149 q 199 1131 203 1138 l 79 1185 q 98 1219 89 1203 q 116 1250 107 1236 q 135 1276 125 1264 q 153 1298 144 1288 q 176 1320 163 1308 q 203 1340 189 1332 q 235 1352 218 1347 q 268 1357 251 1357 q 281 1356 275 1357 q 294 1354 288 1356 q 307 1351 301 1353 q 319 1346 313 1349 q 331 1340 325 1343 q 342 1334 338 1338 q 353 1326 347 1331 q 363 1317 358 1322 q 373 1308 368 1313 q 382 1299 378 1303 q 390 1290 386 1294 q 398 1281 394 1285 q 407 1269 401 1276 q 417 1258 413 1263 q 427 1249 422 1253 q 432 1243 432 1244 l 421 1243 q 425 1247 421 1244 q 433 1256 429 1250 q 439 1263 438 1261 q 442 1267 440 1264 q 447 1272 444 1269 q 451 1278 449 1275 q 456 1285 453 1282 q 461 1292 458 1289 q 466 1301 464 1296 q 471 1310 468 1306 q 477 1319 474 1314 q 483 1330 481 1325 q 489 1341 486 1335 q 496 1353 492 1347 l 615 1300 q 597 1265 606 1281 q 578 1235 588 1249 q 560 1208 569 1221 q 541 1186 550 1196 q 519 1165 532 1176 q 491 1145 506 1153 q 460 1133 476 1138 q 426 1128 443 1128 z "},"":{"ha":694,"x_min":79,"x_max":615,"o":"m 104 0 l 104 146 l 271 146 l 271 576 l 124 576 l 124 722 l 443 722 l 443 146 l 590 146 l 590 0 l 104 0 m 426 829 q 413 830 419 829 q 400 832 407 831 q 388 835 393 833 q 376 839 382 836 q 363 845 369 842 q 352 852 357 849 q 342 860 347 856 q 331 868 336 864 q 322 877 326 872 q 313 887 317 882 q 304 896 308 892 q 297 905 300 900 q 288 916 293 910 q 277 927 282 922 q 267 937 272 932 q 263 943 263 942 l 274 943 q 269 938 274 940 q 261 930 265 935 q 256 924 257 925 q 252 919 254 922 q 248 914 250 917 q 244 908 246 911 q 239 901 242 904 q 233 893 236 897 q 228 885 231 889 q 224 876 226 881 q 217 866 221 871 q 211 856 214 861 q 206 844 208 850 q 199 832 203 839 l 79 886 q 98 921 89 904 q 116 951 107 938 q 135 977 125 965 q 153 999 144 989 q 176 1022 163 1010 q 203 1041 189 1033 q 235 1053 218 1049 q 268 1058 251 1058 q 281 1058 275 1058 q 294 1056 288 1057 q 307 1052 301 1054 q 319 1047 313 1050 q 331 1042 325 1044 q 342 1035 338 1039 q 353 1028 347 1032 q 363 1019 358 1024 q 373 1009 368 1014 q 382 1000 378 1004 q 390 991 386 996 q 398 982 394 986 q 407 971 401 978 q 417 959 413 964 q 427 950 422 954 q 432 944 432 946 l 421 944 q 425 949 421 946 q 433 957 429 951 q 439 964 438 963 q 442 968 440 965 q 447 974 444 971 q 451 980 449 976 q 456 987 453 983 q 461 994 458 990 q 466 1002 464 997 q 471 1011 468 1007 q 477 1021 474 1015 q 483 1031 481 1026 q 489 1042 486 1036 q 496 1054 492 1049 l 615 1001 q 597 966 606 982 q 578 936 588 950 q 560 910 569 922 q 541 888 550 897 q 519 866 532 878 q 491 847 506 854 q 460 834 476 839 q 426 829 443 829 z "},"":{"ha":694,"x_min":104,"x_max":590,"o":"m 104 0 l 104 146 l 261 146 l 261 875 l 104 875 l 104 1021 l 590 1021 l 590 875 l 433 875 l 433 146 l 590 146 l 590 0 l 104 0 m 139 1172 l 139 1286 l 556 1286 l 556 1172 l 139 1172 z "},"":{"ha":694,"x_min":104,"x_max":590,"o":"m 104 0 l 104 146 l 271 146 l 271 576 l 124 576 l 124 722 l 443 722 l 443 146 l 590 146 l 590 0 l 104 0 m 139 874 l 139 988 l 556 988 l 556 874 l 139 874 z "},"":{"ha":694,"x_min":104,"x_max":590,"o":"m 104 0 l 104 146 l 261 146 l 261 875 l 104 875 l 104 1021 l 590 1021 l 590 875 l 433 875 l 433 146 l 590 146 l 590 0 l 104 0 m 347 1132 q 290 1135 318 1132 q 234 1149 261 1139 q 183 1176 207 1160 q 143 1217 160 1193 q 119 1269 126 1240 q 113 1326 113 1297 l 249 1326 q 256 1292 249 1308 q 278 1265 264 1275 q 311 1251 293 1254 q 347 1247 329 1247 q 383 1251 365 1247 q 416 1265 401 1254 q 438 1292 431 1275 q 446 1326 446 1308 l 582 1326 q 575 1269 582 1297 q 551 1217 568 1240 q 511 1176 535 1193 q 460 1149 488 1160 q 405 1135 433 1139 q 347 1132 376 1132 z "},"":{"ha":694,"x_min":104,"x_max":590,"o":"m 104 0 l 104 146 l 271 146 l 271 576 l 124 576 l 124 722 l 443 722 l 443 146 l 590 146 l 590 0 l 104 0 m 347 833 q 290 837 318 833 q 234 851 261 840 q 183 878 207 861 q 143 918 160 894 q 119 970 126 942 q 113 1028 113 999 l 249 1028 q 256 993 249 1010 q 278 966 264 976 q 311 952 293 956 q 347 949 329 949 q 383 952 365 949 q 416 966 401 956 q 438 993 431 976 q 446 1028 446 1010 l 582 1028 q 575 970 582 999 q 551 918 568 942 q 511 878 535 894 q 460 851 488 861 q 405 837 433 840 q 347 833 376 833 z "},"":{"ha":694,"x_min":104,"x_max":608,"o":"m 104 0 l 104 146 l 261 146 l 261 875 l 104 875 l 104 1021 l 590 1021 l 590 875 l 433 875 l 433 146 l 590 146 l 590 0 l 104 0 m 557 -311 q 513 -307 535 -311 q 469 -296 490 -303 q 429 -278 449 -289 q 395 -249 410 -267 q 374 -210 381 -232 q 367 -167 367 -189 q 376 -111 367 -139 q 401 -60 385 -83 q 438 -18 417 -37 q 484 16 460 1 q 535 41 508 31 q 590 56 563 51 l 590 0 q 556 -24 571 -10 q 529 -58 540 -39 q 510 -97 518 -76 q 503 -137 503 -117 q 508 -162 503 -150 q 523 -181 513 -174 q 546 -192 533 -189 q 571 -194 558 -194 q 590 -193 581 -194 q 608 -189 599 -192 l 608 -304 q 583 -309 596 -307 q 557 -311 569 -311 z "},"":{"ha":694,"x_min":104,"x_max":608,"o":"m 104 0 l 104 146 l 271 146 l 271 576 l 124 576 l 124 722 l 443 722 l 443 146 l 590 146 l 590 0 l 104 0 m 354 813 q 307 819 331 813 q 267 843 283 826 q 243 883 250 860 q 236 931 236 907 q 243 978 236 954 q 267 1018 250 1001 q 307 1042 283 1035 q 354 1049 331 1049 q 401 1042 378 1049 q 442 1018 425 1035 q 465 978 458 1001 q 472 931 472 954 q 465 883 472 907 q 442 843 458 860 q 401 819 425 826 q 354 813 378 813 m 557 -311 q 513 -307 535 -311 q 469 -296 490 -303 q 429 -278 449 -289 q 395 -249 410 -267 q 374 -210 381 -232 q 367 -167 367 -189 q 376 -111 367 -139 q 401 -60 385 -83 q 438 -18 417 -37 q 484 16 460 1 q 535 41 508 31 q 590 56 563 51 l 590 0 q 556 -24 571 -10 q 529 -58 540 -39 q 510 -97 518 -76 q 503 -137 503 -117 q 508 -162 503 -150 q 523 -181 513 -174 q 546 -192 533 -189 q 571 -194 558 -194 q 590 -193 581 -194 q 608 -189 599 -192 l 608 -304 q 583 -309 596 -307 q 557 -311 569 -311 z "},"":{"ha":694,"x_min":104,"x_max":590,"o":"m 104 0 l 104 146 l 261 146 l 261 875 l 104 875 l 104 1021 l 590 1021 l 590 875 l 433 875 l 433 146 l 590 146 l 590 0 l 104 0 m 347 1111 q 300 1118 324 1111 q 260 1142 276 1125 q 236 1182 243 1158 q 229 1229 229 1206 q 236 1276 229 1253 q 260 1317 243 1300 q 300 1340 276 1333 q 347 1347 324 1347 q 394 1340 371 1347 q 435 1317 418 1333 q 458 1276 451 1300 q 465 1229 465 1253 q 458 1182 465 1206 q 435 1142 451 1158 q 394 1118 418 1125 q 347 1111 371 1111 z "},"":{"ha":694,"x_min":104,"x_max":590,"o":"m 104 0 l 104 146 l 271 146 l 271 576 l 124 576 l 124 722 l 443 722 l 443 146 l 590 146 l 590 0 l 104 0 z "},"":{"ha":694,"x_min":57,"x_max":650,"o":"m 313 -11 q 243 -4 278 -11 q 178 20 208 3 q 124 65 147 38 q 86 123 101 92 q 64 189 71 154 q 57 258 57 224 l 57 267 l 229 267 l 229 263 q 233 220 229 242 q 247 180 238 199 q 274 148 256 161 q 313 135 292 135 q 344 143 329 135 q 367 165 358 151 q 382 195 376 179 q 390 227 388 211 q 394 260 393 243 q 396 292 396 276 l 396 875 l 239 875 l 239 1021 l 568 1021 l 568 292 q 563 217 568 254 q 545 145 558 181 q 509 79 532 110 q 455 28 486 49 q 387 -2 424 7 q 313 -11 350 -11 m 569 1117 l 439 1265 l 308 1117 l 228 1169 l 354 1363 l 524 1363 l 650 1169 l 569 1117 z "},"":{"ha":694,"x_min":-4,"x_max":636,"o":"m 257 -310 q 191 -305 224 -310 q 128 -286 158 -300 q 72 -250 97 -272 q 30 -199 47 -228 q 4 -139 13 -171 q -4 -74 -4 -107 l 168 -74 q 174 -109 168 -92 q 192 -140 179 -126 q 222 -158 204 -153 q 257 -164 239 -164 q 290 -156 274 -164 q 316 -135 306 -149 q 333 -106 326 -122 q 342 -74 339 -90 q 347 -40 346 -57 q 349 -7 349 -24 l 349 576 l 192 576 l 192 722 l 521 722 l 521 -7 q 516 -83 521 -44 q 497 -156 511 -121 q 458 -221 482 -190 q 403 -272 435 -251 q 333 -301 371 -293 q 257 -310 296 -310 m 554 818 l 424 967 l 293 818 l 213 871 l 339 1064 l 508 1064 l 635 871 l 554 818 z "},"":{"ha":694,"x_min":103,"x_max":639,"o":"m 639 0 l 457 0 l 304 388 l 275 333 l 275 0 l 103 0 l 103 1021 l 275 1021 l 275 642 l 454 1021 l 639 1021 l 392 556 l 639 0 m 332 -360 l 269 -301 q 299 -265 286 -285 q 321 -222 313 -244 q 298 -212 308 -219 q 281 -194 288 -204 q 271 -171 274 -183 q 268 -146 268 -158 q 273 -115 268 -131 q 289 -88 278 -100 q 316 -72 300 -76 q 347 -67 332 -67 q 378 -72 363 -67 q 406 -88 394 -76 q 422 -115 417 -100 q 426 -146 426 -131 q 420 -206 426 -176 q 402 -264 414 -236 q 372 -316 390 -292 q 332 -360 354 -340 z "},"":{"ha":694,"x_min":103,"x_max":640,"o":"m 453 0 l 317 257 l 275 196 l 275 0 l 103 0 l 103 1021 l 275 1021 l 275 443 l 446 722 l 640 722 l 410 390 l 640 0 l 453 0 m 332 -360 l 269 -301 q 299 -265 286 -285 q 321 -222 313 -244 q 298 -212 308 -219 q 281 -194 288 -204 q 271 -171 274 -183 q 268 -146 268 -158 q 273 -115 268 -131 q 289 -88 278 -100 q 316 -72 300 -76 q 347 -67 332 -67 q 378 -72 363 -67 q 406 -88 394 -76 q 422 -115 417 -100 q 426 -146 426 -131 q 420 -206 426 -176 q 402 -264 414 -236 q 372 -316 390 -292 q 332 -360 354 -340 z "},"":{"ha":694,"x_min":103,"x_max":640,"o":"m 453 0 l 317 257 l 275 196 l 275 0 l 103 0 l 103 722 l 275 722 l 275 443 l 446 722 l 640 722 l 410 390 l 640 0 l 453 0 z "},"":{"ha":694,"x_min":97,"x_max":622,"o":"m 121 0 l 121 1021 l 293 1021 l 293 146 l 622 146 l 622 0 l 121 0 m 188 1096 l 99 1168 l 274 1369 l 383 1283 l 188 1096 z "},"":{"ha":694,"x_min":104,"x_max":590,"o":"m 104 0 l 104 146 l 271 146 l 271 875 l 124 875 l 124 1021 l 443 1021 l 443 146 l 590 146 l 590 0 l 104 0 m 335 1096 l 246 1168 l 421 1369 l 531 1283 l 335 1096 z "},"":{"ha":694,"x_min":121,"x_max":622,"o":"m 121 0 l 121 1021 l 293 1021 l 293 146 l 622 146 l 622 0 l 121 0 m 332 -360 l 269 -301 q 299 -265 286 -285 q 321 -222 313 -244 q 298 -212 308 -219 q 281 -194 288 -204 q 271 -171 274 -183 q 268 -146 268 -158 q 273 -115 268 -131 q 289 -88 278 -100 q 316 -72 300 -76 q 347 -67 332 -67 q 378 -72 363 -67 q 406 -88 394 -76 q 422 -115 417 -100 q 426 -146 426 -131 q 420 -206 426 -176 q 402 -264 414 -236 q 372 -316 390 -292 q 332 -360 354 -340 z "},"":{"ha":694,"x_min":104,"x_max":590,"o":"m 104 0 l 104 146 l 271 146 l 271 875 l 124 875 l 124 1021 l 443 1021 l 443 146 l 590 146 l 590 0 l 104 0 m 342 -360 l 279 -301 q 309 -265 296 -285 q 331 -222 322 -244 q 308 -212 318 -219 q 290 -194 297 -204 q 281 -171 283 -183 q 278 -146 278 -158 q 283 -115 278 -131 q 299 -88 288 -100 q 326 -72 310 -76 q 357 -67 342 -67 q 388 -72 372 -67 q 415 -88 404 -76 q 431 -115 426 -100 q 436 -146 436 -131 q 430 -206 436 -176 q 412 -264 424 -236 q 382 -316 400 -292 q 342 -360 364 -340 z "},"":{"ha":694,"x_min":121,"x_max":626,"o":"m 532 781 l 469 840 q 499 876 486 856 q 521 918 513 896 q 498 928 508 921 q 481 947 488 936 q 471 969 474 957 q 468 994 468 982 q 473 1026 468 1010 q 489 1053 478 1042 q 516 1069 500 1064 q 547 1074 532 1074 q 578 1069 563 1074 q 606 1053 594 1064 q 622 1026 617 1042 q 626 994 626 1010 q 620 934 626 964 q 602 876 614 904 q 572 824 590 849 q 532 781 554 800 m 121 0 l 121 1021 l 293 1021 l 293 146 l 622 146 l 622 0 l 121 0 z "},"":{"ha":694,"x_min":104,"x_max":668,"o":"m 574 781 l 511 840 q 541 876 528 856 q 563 918 554 896 q 540 928 550 921 q 522 947 529 936 q 513 969 515 957 q 510 994 510 982 q 515 1026 510 1010 q 531 1053 519 1042 q 558 1069 542 1064 q 589 1074 574 1074 q 620 1069 604 1074 q 647 1053 636 1064 q 663 1026 658 1042 q 668 994 668 1010 q 662 934 668 964 q 644 876 656 904 q 614 824 632 849 q 574 781 596 800 m 104 0 l 104 146 l 271 146 l 271 875 l 124 875 l 124 1021 l 443 1021 l 443 146 l 590 146 l 590 0 l 104 0 z "},"":{"ha":694,"x_min":121,"x_max":622,"o":"m 121 0 l 121 1021 l 293 1021 l 293 146 l 622 146 l 622 0 l 121 0 m 471 454 q 419 462 444 454 q 376 488 394 469 q 349 532 357 507 q 342 583 342 557 q 349 635 342 610 q 376 678 357 660 q 419 705 394 697 q 471 713 444 713 q 522 705 497 713 q 566 678 547 697 q 592 635 585 660 q 600 583 600 610 q 592 532 600 557 q 566 488 585 507 q 522 462 547 469 q 471 454 497 454 z "},"":{"ha":694,"x_min":44,"x_max":668,"o":"m 46 0 l 46 146 l 213 146 l 213 875 l 65 875 l 65 1021 l 385 1021 l 385 146 l 532 146 l 532 0 l 46 0 m 538 454 q 486 462 511 454 q 442 488 461 469 q 416 532 424 507 q 408 583 408 557 q 416 635 408 610 q 442 678 424 660 q 486 705 461 697 q 538 713 511 713 q 589 705 564 713 q 633 678 614 697 q 659 635 651 660 q 667 583 667 610 q 659 532 667 557 q 633 488 651 507 q 589 462 614 469 q 538 454 564 454 z "},"":{"ha":694,"x_min":13,"x_max":622,"o":"m 121 0 l 121 464 l 68 438 l 13 535 l 121 589 l 121 1021 l 293 1021 l 293 675 l 401 729 l 457 632 l 293 550 l 293 146 l 622 146 l 622 0 l 121 0 z "},"":{"ha":694,"x_min":104,"x_max":590,"o":"m 104 0 l 104 146 l 271 146 l 271 425 l 190 386 l 135 482 l 271 550 l 271 875 l 124 875 l 124 1021 l 443 1021 l 443 636 l 524 676 l 579 581 l 443 511 l 443 146 l 590 146 l 590 0 l 104 0 z "},"":{"ha":694,"x_min":81,"x_max":614,"o":"m 81 0 l 81 1021 l 246 1021 l 460 357 q 446 485 450 421 q 442 613 442 549 l 442 1021 l 614 1021 l 614 0 l 449 0 l 235 664 q 249 536 244 600 q 253 408 253 472 l 253 0 l 81 0 m 328 1096 l 239 1168 l 414 1369 l 524 1283 l 328 1096 z "},"":{"ha":694,"x_min":81,"x_max":614,"o":"m 81 0 l 81 722 l 253 722 l 253 600 q 278 653 263 628 q 315 697 293 678 q 365 724 338 715 q 422 733 393 733 q 485 722 454 733 q 540 687 517 710 q 577 634 563 664 q 600 573 592 604 q 611 509 608 542 q 614 444 614 476 l 614 0 l 442 0 l 442 444 q 440 477 442 461 q 435 508 439 493 q 424 538 431 524 q 406 565 417 553 q 379 582 394 576 q 347 588 364 588 q 315 582 331 588 q 289 565 300 576 q 271 538 278 553 q 260 508 264 524 q 254 477 256 493 q 253 444 253 461 l 253 0 l 81 0 m 328 797 l 239 869 l 414 1071 l 524 985 l 328 797 z "},"":{"ha":694,"x_min":81,"x_max":614,"o":"m 81 0 l 81 1021 l 246 1021 l 460 357 q 446 485 450 421 q 442 613 442 549 l 442 1021 l 614 1021 l 614 0 l 449 0 l 235 664 q 249 536 244 600 q 253 408 253 472 l 253 0 l 81 0 m 332 -360 l 269 -301 q 299 -265 286 -285 q 321 -222 313 -244 q 298 -212 308 -219 q 281 -194 288 -204 q 271 -171 274 -183 q 268 -146 268 -158 q 273 -115 268 -131 q 289 -88 278 -100 q 316 -72 300 -76 q 347 -67 332 -67 q 378 -72 363 -67 q 406 -88 394 -76 q 422 -115 417 -100 q 426 -146 426 -131 q 420 -206 426 -176 q 402 -264 414 -236 q 372 -316 390 -292 q 332 -360 354 -340 z "},"":{"ha":694,"x_min":81,"x_max":614,"o":"m 81 0 l 81 722 l 253 722 l 253 600 q 278 653 263 628 q 315 697 293 678 q 365 724 338 715 q 422 733 393 733 q 485 722 454 733 q 540 687 517 710 q 577 634 563 664 q 600 573 592 604 q 611 509 608 542 q 614 444 614 476 l 614 0 l 442 0 l 442 444 q 440 477 442 461 q 435 508 439 493 q 424 538 431 524 q 406 565 417 553 q 379 582 394 576 q 347 588 364 588 q 315 582 331 588 q 289 565 300 576 q 271 538 278 553 q 260 508 264 524 q 254 477 256 493 q 253 444 253 461 l 253 0 l 81 0 m 332 -360 l 269 -301 q 299 -265 286 -285 q 321 -222 313 -244 q 298 -212 308 -219 q 281 -194 288 -204 q 271 -171 274 -183 q 268 -146 268 -158 q 273 -115 268 -131 q 289 -88 278 -100 q 316 -72 300 -76 q 347 -67 332 -67 q 378 -72 363 -67 q 406 -88 394 -76 q 422 -115 417 -100 q 426 -146 426 -131 q 420 -206 426 -176 q 402 -264 414 -236 q 372 -316 390 -292 q 332 -360 354 -340 z "},"":{"ha":694,"x_min":81,"x_max":614,"o":"m 81 0 l 81 1021 l 246 1021 l 460 357 q 446 485 450 421 q 442 613 442 549 l 442 1021 l 614 1021 l 614 0 l 449 0 l 235 664 q 249 536 244 600 q 253 408 253 472 l 253 0 l 81 0 m 263 1132 l 136 1325 l 217 1378 l 347 1229 l 478 1378 l 558 1325 l 432 1132 l 263 1132 z "},"":{"ha":694,"x_min":81,"x_max":614,"o":"m 81 0 l 81 722 l 253 722 l 253 600 q 278 653 263 628 q 315 697 293 678 q 365 724 338 715 q 422 733 393 733 q 485 722 454 733 q 540 687 517 710 q 577 634 563 664 q 600 573 592 604 q 611 509 608 542 q 614 444 614 476 l 614 0 l 442 0 l 442 444 q 440 477 442 461 q 435 508 439 493 q 424 538 431 524 q 406 565 417 553 q 379 582 394 576 q 347 588 364 588 q 315 582 331 588 q 289 565 300 576 q 271 538 278 553 q 260 508 264 524 q 254 477 256 493 q 253 444 253 461 l 253 0 l 81 0 m 263 833 l 136 1026 l 217 1079 l 347 931 l 478 1079 l 558 1026 l 432 833 l 263 833 z "},"":{"ha":694,"x_min":1,"x_max":614,"o":"m 81 0 l 81 722 l 253 722 l 253 600 q 278 653 263 628 q 315 697 293 678 q 365 724 338 715 q 422 733 393 733 q 485 722 454 733 q 540 687 517 710 q 577 634 563 664 q 600 573 592 604 q 611 509 608 542 q 614 444 614 476 l 614 0 l 442 0 l 442 444 q 440 477 442 461 q 435 508 439 493 q 424 538 431 524 q 406 565 417 553 q 379 582 394 576 q 347 588 364 588 q 315 582 331 588 q 289 565 300 576 q 271 538 278 553 q 260 508 264 524 q 254 477 256 493 q 253 444 253 461 l 253 0 l 81 0 m 65 781 l 3 840 q 33 876 19 856 q 54 918 46 896 q 31 928 42 921 q 14 947 21 936 q 4 969 7 957 q 1 994 1 982 q 6 1026 1 1010 q 22 1053 11 1042 q 49 1069 33 1064 q 81 1074 65 1074 q 112 1069 96 1074 q 139 1053 128 1064 q 155 1026 150 1042 q 160 994 160 1010 q 153 934 160 964 q 135 876 147 904 q 106 824 124 849 q 65 781 88 800 z "},"":{"ha":694,"x_min":81,"x_max":614,"o":"m 297 -299 l 297 -161 l 324 -161 q 378 -151 351 -161 q 422 -119 404 -140 q 445 -69 439 -97 q 451 -14 451 -42 l 451 0 l 449 0 l 235 664 q 249 536 244 600 q 253 408 253 472 l 253 0 l 81 0 l 81 1021 l 246 1021 l 460 357 q 446 485 450 421 q 442 613 442 549 l 442 1021 l 614 1021 l 614 -14 q 607 -91 614 -53 q 582 -163 600 -129 q 536 -225 564 -197 q 474 -269 508 -253 q 400 -292 439 -286 q 324 -299 361 -299 l 297 -299 z "},"":{"ha":694,"x_min":81,"x_max":614,"o":"m 292 -299 l 292 -153 l 321 -153 q 372 -142 347 -153 q 413 -111 397 -132 q 435 -65 429 -90 q 442 -12 442 -39 l 442 444 q 440 477 442 461 q 435 508 439 493 q 424 538 431 524 q 406 565 417 553 q 379 582 394 576 q 347 588 364 588 q 315 582 331 588 q 289 565 300 576 q 271 538 278 553 q 260 508 264 524 q 254 477 256 493 q 253 444 253 461 l 253 0 l 81 0 l 81 722 l 253 722 l 253 600 q 278 653 263 628 q 315 697 293 678 q 365 724 338 715 q 422 733 393 733 q 485 722 454 733 q 540 687 517 710 q 577 634 563 664 q 600 573 592 604 q 611 509 608 542 q 614 444 614 476 l 614 -12 q 607 -90 614 -51 q 582 -162 600 -128 q 535 -224 564 -197 q 472 -269 507 -251 q 398 -292 436 -286 q 321 -299 360 -299 l 292 -299 z "},"":{"ha":694,"x_min":69,"x_max":625,"o":"m 347 -11 q 269 -3 308 -11 q 197 24 231 4 q 138 74 164 44 q 97 140 113 104 q 75 214 81 175 q 69 292 69 253 l 69 729 q 75 807 69 768 q 97 881 81 846 q 138 947 113 917 q 197 997 164 976 q 269 1024 231 1017 q 347 1032 308 1032 q 425 1024 386 1032 q 497 997 464 1017 q 556 947 531 976 q 598 881 582 917 q 619 807 614 846 q 625 729 625 768 l 625 292 q 619 214 625 253 q 598 140 614 175 q 556 74 582 104 q 497 24 531 44 q 425 -3 464 4 q 347 -11 386 -11 m 347 135 q 382 141 365 135 q 412 160 399 147 q 433 188 425 172 q 445 222 440 204 q 451 257 450 239 q 453 292 453 275 l 453 729 q 451 764 453 746 q 445 799 450 782 q 433 833 440 817 q 412 861 425 849 q 382 880 399 874 q 347 886 365 886 q 313 880 329 886 q 283 861 296 874 q 262 833 269 849 q 249 799 254 817 q 243 764 244 782 q 242 729 242 746 l 242 292 q 243 257 242 275 q 249 222 244 239 q 262 188 254 204 q 283 160 269 172 q 313 141 296 147 q 347 135 329 135 m 139 1172 l 139 1286 l 556 1286 l 556 1172 l 139 1172 z "},"":{"ha":694,"x_min":69,"x_max":625,"o":"m 347 -11 q 272 -4 310 -11 q 200 21 233 3 q 140 67 167 39 q 98 130 114 96 q 76 202 82 164 q 69 278 69 240 l 69 444 q 76 520 69 482 q 98 592 82 558 q 140 655 114 626 q 200 701 167 683 q 272 726 233 719 q 347 733 310 733 q 423 726 385 733 q 494 701 461 719 q 554 655 528 683 q 597 592 581 626 q 619 520 613 558 q 625 444 625 482 l 625 278 q 619 202 625 240 q 597 130 613 164 q 554 67 581 96 q 494 21 528 39 q 423 -4 461 3 q 347 -11 385 -11 m 347 135 q 395 147 372 135 q 431 181 418 160 q 449 228 444 203 q 453 278 453 253 l 453 444 q 449 494 453 469 q 431 541 444 519 q 395 575 418 563 q 347 588 372 588 q 299 575 322 588 q 263 541 276 563 q 246 494 250 519 q 242 444 242 469 l 242 278 q 246 228 242 253 q 263 181 250 203 q 299 147 276 160 q 347 135 322 135 m 139 874 l 139 988 l 556 988 l 556 874 l 139 874 z "},"":{"ha":694,"x_min":69,"x_max":625,"o":"m 347 -11 q 269 -3 308 -11 q 197 24 231 4 q 138 74 164 44 q 97 140 113 104 q 75 214 81 175 q 69 292 69 253 l 69 729 q 75 807 69 768 q 97 881 81 846 q 138 947 113 917 q 197 997 164 976 q 269 1024 231 1017 q 347 1032 308 1032 q 425 1024 386 1032 q 497 997 464 1017 q 556 947 531 976 q 598 881 582 917 q 619 807 614 846 q 625 729 625 768 l 625 292 q 619 214 625 253 q 598 140 614 175 q 556 74 582 104 q 497 24 531 44 q 425 -3 464 4 q 347 -11 386 -11 m 347 135 q 382 141 365 135 q 412 160 399 147 q 433 188 425 172 q 445 222 440 204 q 451 257 450 239 q 453 292 453 275 l 453 729 q 451 764 453 746 q 445 799 450 782 q 433 833 440 817 q 412 861 425 849 q 382 880 399 874 q 347 886 365 886 q 313 880 329 886 q 283 861 296 874 q 262 833 269 849 q 249 799 254 817 q 243 764 244 782 q 242 729 242 746 l 242 292 q 243 257 242 275 q 249 222 244 239 q 262 188 254 204 q 283 160 269 172 q 313 141 296 147 q 347 135 329 135 m 347 1132 q 290 1135 318 1132 q 234 1149 261 1139 q 183 1176 207 1160 q 143 1217 160 1193 q 119 1269 126 1240 q 113 1326 113 1297 l 249 1326 q 256 1292 249 1308 q 278 1265 264 1275 q 311 1251 293 1254 q 347 1247 329 1247 q 383 1251 365 1247 q 416 1265 401 1254 q 438 1292 431 1275 q 446 1326 446 1308 l 582 1326 q 575 1269 582 1297 q 551 1217 568 1240 q 511 1176 535 1193 q 460 1149 488 1160 q 405 1135 433 1139 q 347 1132 376 1132 z "},"":{"ha":694,"x_min":69,"x_max":625,"o":"m 347 -11 q 272 -4 310 -11 q 200 21 233 3 q 140 67 167 39 q 98 130 114 96 q 76 202 82 164 q 69 278 69 240 l 69 444 q 76 520 69 482 q 98 592 82 558 q 140 655 114 626 q 200 701 167 683 q 272 726 233 719 q 347 733 310 733 q 423 726 385 733 q 494 701 461 719 q 554 655 528 683 q 597 592 581 626 q 619 520 613 558 q 625 444 625 482 l 625 278 q 619 202 625 240 q 597 130 613 164 q 554 67 581 96 q 494 21 528 39 q 423 -4 461 3 q 347 -11 385 -11 m 347 135 q 395 147 372 135 q 431 181 418 160 q 449 228 444 203 q 453 278 453 253 l 453 444 q 449 494 453 469 q 431 541 444 519 q 395 575 418 563 q 347 588 372 588 q 299 575 322 588 q 263 541 276 563 q 246 494 250 519 q 242 444 242 469 l 242 278 q 246 228 242 253 q 263 181 250 203 q 299 147 276 160 q 347 135 322 135 m 347 833 q 290 837 318 833 q 234 851 261 840 q 183 878 207 861 q 143 918 160 894 q 119 970 126 942 q 113 1028 113 999 l 249 1028 q 256 993 249 1010 q 278 966 264 976 q 311 952 293 956 q 347 949 329 949 q 383 952 365 949 q 416 966 401 956 q 438 993 431 976 q 446 1028 446 1010 l 582 1028 q 575 970 582 999 q 551 918 568 942 q 511 878 535 894 q 460 851 488 861 q 405 837 433 840 q 347 833 376 833 z "},"":{"ha":694,"x_min":69,"x_max":656,"o":"m 347 -11 q 269 -3 308 -11 q 197 24 231 4 q 138 74 164 44 q 97 140 113 104 q 75 214 81 175 q 69 292 69 253 l 69 729 q 75 807 69 768 q 97 881 81 846 q 138 947 113 917 q 197 997 164 976 q 269 1024 231 1017 q 347 1032 308 1032 q 425 1024 386 1032 q 497 997 464 1017 q 556 947 531 976 q 598 881 582 917 q 619 807 614 846 q 625 729 625 768 l 625 292 q 619 214 625 253 q 598 140 614 175 q 556 74 582 104 q 497 24 531 44 q 425 -3 464 4 q 347 -11 386 -11 m 347 135 q 382 141 365 135 q 412 160 399 147 q 433 188 425 172 q 445 222 440 204 q 451 257 450 239 q 453 292 453 275 l 453 729 q 451 764 453 746 q 445 799 450 782 q 433 833 440 817 q 412 861 425 849 q 382 880 399 874 q 347 886 365 886 q 313 880 329 886 q 283 861 296 874 q 262 833 269 849 q 249 799 254 817 q 243 764 244 782 q 242 729 242 746 l 242 292 q 243 257 242 275 q 249 222 244 239 q 262 188 254 204 q 283 160 269 172 q 313 141 296 147 q 347 135 329 135 m 444 1094 l 360 1169 l 553 1372 l 656 1281 l 444 1094 m 208 1094 l 124 1169 l 317 1372 l 419 1281 l 208 1094 z "},"":{"ha":694,"x_min":69,"x_max":656,"o":"m 347 -11 q 272 -4 310 -11 q 200 21 233 3 q 140 67 167 39 q 98 130 114 96 q 76 202 82 164 q 69 278 69 240 l 69 444 q 76 520 69 482 q 98 592 82 558 q 140 655 114 626 q 200 701 167 683 q 272 726 233 719 q 347 733 310 733 q 423 726 385 733 q 494 701 461 719 q 554 655 528 683 q 597 592 581 626 q 619 520 613 558 q 625 444 625 482 l 625 278 q 619 202 625 240 q 597 130 613 164 q 554 67 581 96 q 494 21 528 39 q 423 -4 461 3 q 347 -11 385 -11 m 347 135 q 395 147 372 135 q 431 181 418 160 q 449 228 444 203 q 453 278 453 253 l 453 444 q 449 494 453 469 q 431 541 444 519 q 395 575 418 563 q 347 588 372 588 q 299 575 322 588 q 263 541 276 563 q 246 494 250 519 q 242 444 242 469 l 242 278 q 246 228 242 253 q 263 181 250 203 q 299 147 276 160 q 347 135 322 135 m 444 796 l 360 871 l 553 1074 l 656 982 l 444 796 m 208 796 l 124 871 l 317 1074 l 419 982 l 208 796 z "},"":{"ha":694,"x_min":43,"x_max":640,"o":"m 311 0 l 311 1021 l 640 1021 l 640 897 l 457 897 l 457 593 l 610 593 l 610 469 l 457 469 l 457 124 l 640 124 l 640 0 l 311 0 m 311 0 q 236 8 274 0 q 166 34 199 15 q 109 82 133 53 q 69 146 85 111 q 49 217 54 181 q 43 292 43 254 l 43 729 q 49 803 43 767 q 69 875 54 840 q 109 939 85 910 q 166 987 133 968 q 236 1013 199 1006 q 311 1021 274 1021 l 311 897 q 272 892 292 897 q 238 873 253 886 q 214 842 224 860 q 199 806 204 825 q 191 768 193 788 q 189 729 189 749 l 189 292 q 191 253 189 272 q 199 215 193 233 q 214 178 204 196 q 238 148 224 161 q 272 129 253 135 q 311 124 292 124 l 311 0 z "},"":{"ha":694,"x_min":43,"x_max":651,"o":"m 232 -11 q 180 -6 206 -11 q 131 12 154 -1 q 90 44 108 25 q 62 88 72 64 q 47 138 51 111 q 43 190 43 164 l 43 532 q 47 585 43 558 q 62 635 51 611 q 90 678 72 658 q 131 710 108 697 q 180 728 154 724 q 232 733 206 733 q 292 726 263 733 q 347 701 322 719 q 402 726 372 719 q 463 733 432 733 q 515 728 489 733 q 563 710 540 724 q 604 678 586 697 q 633 635 622 658 q 647 585 643 611 q 651 532 651 558 l 651 300 l 419 300 l 419 190 q 421 165 419 178 q 426 142 422 153 q 440 122 431 131 q 461 113 449 113 q 478 119 471 113 q 490 135 486 126 q 497 154 494 144 q 500 174 499 164 q 502 193 501 183 q 503 213 503 203 l 503 218 l 649 218 l 649 207 q 644 153 649 179 q 629 101 639 126 q 603 54 619 76 q 564 17 586 32 q 515 -5 542 1 q 461 -11 489 -11 q 401 -4 431 -11 q 347 21 371 3 q 292 -4 322 3 q 232 -11 263 -11 m 419 422 l 506 422 l 506 532 q 504 557 506 544 q 499 581 503 569 q 485 601 494 593 q 463 610 475 610 q 441 601 450 610 q 427 581 432 593 q 421 557 422 569 q 419 532 419 544 l 419 422 m 232 113 q 253 121 244 113 q 267 141 263 129 q 274 165 272 153 q 275 190 275 178 l 275 532 q 274 557 275 544 q 267 581 272 569 q 253 601 263 593 q 232 610 244 610 q 210 601 219 610 q 196 581 200 593 q 190 557 192 569 q 189 532 189 544 l 189 190 q 190 165 189 178 q 196 141 192 153 q 210 121 200 129 q 232 113 219 113 z "},"":{"ha":694,"x_min":81,"x_max":647,"o":"m 464 0 l 293 390 l 253 390 l 253 0 l 81 0 l 81 1021 l 353 1021 q 431 1012 393 1021 q 503 982 469 1003 q 560 929 536 961 q 599 860 585 897 q 619 784 614 824 q 625 706 625 744 q 618 617 625 661 q 592 532 611 572 q 540 460 572 492 q 468 411 508 428 l 647 0 l 464 0 m 353 536 q 388 544 371 536 q 417 567 406 553 q 435 598 428 581 q 446 633 442 615 q 451 669 450 651 q 453 706 453 688 q 451 742 453 724 q 446 778 450 761 q 435 813 442 796 q 417 845 428 831 q 388 867 406 860 q 353 875 371 875 l 253 875 l 253 536 l 353 536 m 328 1096 l 239 1168 l 414 1369 l 524 1283 l 328 1096 z "},"":{"ha":694,"x_min":154,"x_max":644,"o":"m 154 0 l 154 722 l 326 722 l 326 574 q 348 632 335 604 q 381 683 361 660 q 430 720 401 707 q 489 733 458 733 q 542 724 517 733 q 586 697 568 715 q 616 653 604 678 q 634 602 628 628 q 642 550 640 576 q 644 497 644 524 l 472 497 q 470 526 472 511 q 462 556 468 542 q 443 578 456 569 q 415 588 431 588 q 379 574 396 588 q 353 542 363 560 q 340 504 344 524 q 331 465 335 485 q 327 424 328 444 q 326 383 326 403 l 326 0 l 154 0 m 336 797 l 247 869 l 422 1071 l 532 985 l 336 797 z "},"":{"ha":694,"x_min":81,"x_max":647,"o":"m 464 0 l 293 390 l 253 390 l 253 0 l 81 0 l 81 1021 l 353 1021 q 431 1012 393 1021 q 503 982 469 1003 q 560 929 536 961 q 599 860 585 897 q 619 784 614 824 q 625 706 625 744 q 618 617 625 661 q 592 532 611 572 q 540 460 572 492 q 468 411 508 428 l 647 0 l 464 0 m 353 536 q 388 544 371 536 q 417 567 406 553 q 435 598 428 581 q 446 633 442 615 q 451 669 450 651 q 453 706 453 688 q 451 742 453 724 q 446 778 450 761 q 435 813 442 796 q 417 845 428 831 q 388 867 406 860 q 353 875 371 875 l 253 875 l 253 536 l 353 536 m 332 -360 l 269 -301 q 299 -265 286 -285 q 321 -222 313 -244 q 298 -212 308 -219 q 281 -194 288 -204 q 271 -171 274 -183 q 268 -146 268 -158 q 273 -115 268 -131 q 289 -88 278 -100 q 316 -72 300 -76 q 347 -67 332 -67 q 378 -72 363 -67 q 406 -88 394 -76 q 422 -115 417 -100 q 426 -146 426 -131 q 420 -206 426 -176 q 402 -264 414 -236 q 372 -316 390 -292 q 332 -360 354 -340 z "},"":{"ha":694,"x_min":154,"x_max":644,"o":"m 154 0 l 154 722 l 326 722 l 326 574 q 348 632 335 604 q 381 683 361 660 q 430 720 401 707 q 489 733 458 733 q 542 724 517 733 q 586 697 568 715 q 616 653 604 678 q 634 602 628 628 q 642 550 640 576 q 644 497 644 524 l 472 497 q 470 526 472 511 q 462 556 468 542 q 443 578 456 569 q 415 588 431 588 q 379 574 396 588 q 353 542 363 560 q 340 504 344 524 q 331 465 335 485 q 327 424 328 444 q 326 383 326 403 l 326 0 l 154 0 m 225 -360 l 163 -301 q 192 -265 179 -285 q 214 -222 206 -244 q 191 -212 201 -219 q 174 -194 181 -204 q 164 -171 167 -183 q 161 -146 161 -158 q 166 -115 161 -131 q 182 -88 171 -100 q 209 -72 193 -76 q 240 -67 225 -67 q 272 -72 256 -67 q 299 -88 288 -76 q 315 -115 310 -100 q 319 -146 319 -131 q 313 -206 319 -176 q 295 -264 307 -236 q 265 -316 283 -292 q 225 -360 247 -340 z "},"":{"ha":694,"x_min":81,"x_max":647,"o":"m 464 0 l 293 390 l 253 390 l 253 0 l 81 0 l 81 1021 l 353 1021 q 431 1012 393 1021 q 503 982 469 1003 q 560 929 536 961 q 599 860 585 897 q 619 784 614 824 q 625 706 625 744 q 618 617 625 661 q 592 532 611 572 q 540 460 572 492 q 468 411 508 428 l 647 0 l 464 0 m 353 536 q 388 544 371 536 q 417 567 406 553 q 435 598 428 581 q 446 633 442 615 q 451 669 450 651 q 453 706 453 688 q 451 742 453 724 q 446 778 450 761 q 435 813 442 796 q 417 845 428 831 q 388 867 406 860 q 353 875 371 875 l 253 875 l 253 536 l 353 536 m 263 1132 l 136 1325 l 217 1378 l 347 1229 l 478 1378 l 558 1325 l 432 1132 l 263 1132 z "},"":{"ha":694,"x_min":143,"x_max":644,"o":"m 154 0 l 154 722 l 326 722 l 326 574 q 348 632 335 604 q 381 683 361 660 q 430 720 401 707 q 489 733 458 733 q 542 724 517 733 q 586 697 568 715 q 616 653 604 678 q 634 602 628 628 q 642 550 640 576 q 644 497 644 524 l 472 497 q 470 526 472 511 q 462 556 468 542 q 443 578 456 569 q 415 588 431 588 q 379 574 396 588 q 353 542 363 560 q 340 504 344 524 q 331 465 335 485 q 327 424 328 444 q 326 383 326 403 l 326 0 l 154 0 m 271 833 l 144 1026 l 225 1079 l 356 931 l 486 1079 l 567 1026 l 440 833 l 271 833 z "},"":{"ha":694,"x_min":67,"x_max":625,"o":"m 346 -11 q 274 -5 310 -11 q 205 17 238 1 q 145 57 172 32 q 101 114 118 82 q 75 181 83 146 q 67 253 67 217 l 67 267 l 239 267 l 239 261 q 244 215 239 238 q 265 173 250 192 q 301 144 279 154 q 346 135 322 135 q 391 144 369 135 q 426 171 413 153 q 447 211 440 189 q 453 257 453 233 q 440 322 453 290 q 403 377 426 353 q 351 418 381 401 q 293 451 322 435 q 236 486 264 467 q 185 528 208 506 q 142 579 161 551 q 108 638 122 607 q 88 701 94 668 q 81 767 81 733 q 88 838 81 803 q 113 904 96 872 q 154 961 129 936 q 211 1003 179 986 q 278 1026 243 1019 q 349 1032 313 1032 q 419 1026 385 1032 q 486 1003 454 1019 q 543 962 518 988 q 585 904 568 936 q 609 838 601 872 q 617 768 617 803 l 617 754 l 444 754 l 444 760 q 440 804 444 782 q 423 845 435 826 q 391 875 411 864 q 349 886 371 886 q 306 876 326 886 q 274 849 286 867 q 258 808 263 831 q 253 765 253 786 q 265 700 253 732 q 301 644 278 668 q 354 603 325 619 q 413 570 383 586 q 469 535 442 554 q 521 493 497 517 q 564 442 544 469 q 597 385 583 415 q 618 321 611 354 q 625 254 625 288 q 617 183 625 218 q 591 115 608 147 q 547 58 574 83 q 487 17 519 32 q 418 -5 454 1 q 346 -11 382 -11 m 328 1096 l 239 1168 l 414 1369 l 524 1283 l 328 1096 z "},"":{"ha":694,"x_min":78,"x_max":614,"o":"m 346 -11 q 283 -8 314 -11 q 222 6 251 -4 q 165 34 192 17 q 118 76 138 51 q 88 132 99 101 q 78 194 78 163 l 78 204 l 250 204 l 250 201 q 259 170 250 185 q 283 148 268 156 q 313 138 297 140 q 346 135 329 135 q 377 137 361 135 q 408 146 393 139 q 432 165 422 153 q 442 194 442 178 q 427 233 442 215 q 393 262 413 251 q 353 278 374 272 q 312 291 332 285 q 271 306 292 297 q 231 325 250 314 q 195 349 213 336 q 162 376 178 361 q 133 409 146 392 q 111 447 121 426 q 97 488 101 467 q 92 531 92 508 q 101 591 92 561 q 129 645 111 621 q 173 688 147 669 q 228 716 199 706 q 288 730 257 726 q 349 733 318 733 q 410 729 379 733 q 470 715 442 725 q 524 687 499 704 q 569 644 550 669 q 597 590 588 619 q 606 528 606 560 l 606 518 l 433 518 l 433 521 q 426 550 433 536 q 407 573 419 564 q 379 585 394 582 q 349 588 364 588 q 320 585 335 588 q 293 576 306 583 q 272 556 281 569 q 264 529 264 543 q 278 490 264 507 q 312 461 293 472 q 351 444 331 450 q 393 431 372 438 q 434 417 414 425 q 474 398 454 408 q 510 374 493 388 q 543 346 528 361 q 572 313 558 331 q 594 276 585 296 q 609 235 604 257 q 614 192 614 214 q 603 131 614 161 q 574 75 593 100 q 527 33 554 50 q 470 6 500 17 q 409 -8 440 -4 q 346 -11 378 -11 m 328 797 l 239 869 l 414 1071 l 524 985 l 328 797 z "},"":{"ha":694,"x_min":67,"x_max":625,"o":"m 346 -11 q 274 -5 310 -11 q 205 17 238 1 q 145 57 172 32 q 101 114 118 82 q 75 181 83 146 q 67 253 67 217 l 67 267 l 239 267 l 239 261 q 244 215 239 238 q 265 173 250 192 q 301 144 279 154 q 346 135 322 135 q 391 144 369 135 q 426 171 413 153 q 447 211 440 189 q 453 257 453 233 q 440 322 453 290 q 403 377 426 353 q 351 418 381 401 q 293 451 322 435 q 236 486 264 467 q 185 528 208 506 q 142 579 161 551 q 108 638 122 607 q 88 701 94 668 q 81 767 81 733 q 88 838 81 803 q 113 904 96 872 q 154 961 129 936 q 211 1003 179 986 q 278 1026 243 1019 q 349 1032 313 1032 q 419 1026 385 1032 q 486 1003 454 1019 q 543 962 518 988 q 585 904 568 936 q 609 838 601 872 q 617 768 617 803 l 617 754 l 444 754 l 444 760 q 440 804 444 782 q 423 845 435 826 q 391 875 411 864 q 349 886 371 886 q 306 876 326 886 q 274 849 286 867 q 258 808 263 831 q 253 765 253 786 q 265 700 253 732 q 301 644 278 668 q 354 603 325 619 q 413 570 383 586 q 469 535 442 554 q 521 493 497 517 q 564 442 544 469 q 597 385 583 415 q 618 321 611 354 q 625 254 625 288 q 617 183 625 218 q 591 115 608 147 q 547 58 574 83 q 487 17 519 32 q 418 -5 454 1 q 346 -11 382 -11 m 478 1117 l 347 1265 l 217 1117 l 136 1169 l 263 1363 l 432 1363 l 558 1169 l 478 1117 z "},"":{"ha":694,"x_min":78,"x_max":614,"o":"m 346 -11 q 283 -8 314 -11 q 222 6 251 -4 q 165 34 192 17 q 118 76 138 51 q 88 132 99 101 q 78 194 78 163 l 78 204 l 250 204 l 250 201 q 259 170 250 185 q 283 148 268 156 q 313 138 297 140 q 346 135 329 135 q 377 137 361 135 q 408 146 393 139 q 432 165 422 153 q 442 194 442 178 q 427 233 442 215 q 393 262 413 251 q 353 278 374 272 q 312 291 332 285 q 271 306 292 297 q 231 325 250 314 q 195 349 213 336 q 162 376 178 361 q 133 409 146 392 q 111 447 121 426 q 97 488 101 467 q 92 531 92 508 q 101 591 92 561 q 129 645 111 621 q 173 688 147 669 q 228 716 199 706 q 288 730 257 726 q 349 733 318 733 q 410 729 379 733 q 470 715 442 725 q 524 687 499 704 q 569 644 550 669 q 597 590 588 619 q 606 528 606 560 l 606 518 l 433 518 l 433 521 q 426 550 433 536 q 407 573 419 564 q 379 585 394 582 q 349 588 364 588 q 320 585 335 588 q 293 576 306 583 q 272 556 281 569 q 264 529 264 543 q 278 490 264 507 q 312 461 293 472 q 351 444 331 450 q 393 431 372 438 q 434 417 414 425 q 474 398 454 408 q 510 374 493 388 q 543 346 528 361 q 572 313 558 331 q 594 276 585 296 q 609 235 604 257 q 614 192 614 214 q 603 131 614 161 q 574 75 593 100 q 527 33 554 50 q 470 6 500 17 q 409 -8 440 -4 q 346 -11 378 -11 m 478 818 l 347 967 l 217 818 l 136 871 l 263 1064 l 432 1064 l 558 871 l 478 818 z "}}}
